<?xml version="1.0" encoding="utf-8"?>
<!-- Generator: Adobe Illustrator 23.0.2, SVG Export Plug-In . SVG Version: 6.00 Build 0)  -->
<svg version="1.1" id="Layer_1" xmlns="http://www.w3.org/2000/svg" xmlns:xlink="http://www.w3.org/1999/xlink" x="0px" y="0px"
	 viewBox="0 0 67 73" style="enable-background:new 0 0 67 73;" xml:space="preserve">
<style type="text/css">
	.st0{fill-rule:evenodd;clip-rule:evenodd;fill:#5E6064;}
	.st1{fill-rule:evenodd;clip-rule:evenodd;fill:#23252C;stroke:#5E6064;stroke-width:2;}
	.st2{fill-rule:evenodd;clip-rule:evenodd;fill:#26CB99;stroke:#23252C;stroke-width:3;}
	.st3{fill:none;stroke:#5E6064;stroke-width:2;stroke-dasharray:2,2;}
	.st4{fill-rule:evenodd;clip-rule:evenodd;fill:#23252C;stroke:#26CB99;stroke-width:2;}
	.st5{fill:none;stroke:#23252C;}
</style>
<title>A2406C3F-3858-432C-8AEB-AAA71A985D8F</title>
<desc>Created with sketchtool.</desc>
<g id="Services">
	<g transform="translate(-337.000000, -4476.000000)">
		<g transform="translate(0.000000, 3921.000000)">
			<g id="agile" transform="translate(134.000000, 555.000000)">
				<g transform="translate(201.000000, 0.000000)">
					<path id="Combined-Shape" class="st0" d="M52.5,61h-4.2C58.8,56,66,45.4,66,33C66,15.9,52.1,2,35,2S4,15.9,4,33s13.9,31,31,31
						v2C16.8,66,2,51.2,2,33S16.8,0,35,0s33,14.8,33,33C68,44.8,61.8,55.2,52.5,61z"/>
					<circle id="Oval-57-Copy-18" class="st1" cx="62" cy="50" r="4"/>
					<circle id="Oval-57-Copy-5" class="st2" cx="35" cy="65" r="6.5"/>
					<path id="Line" class="st3" d="M69,65H42"/>
					<path id="Shape" class="st3" d="M34,47L34,47c-7.7-0.5-13.5-7.2-13-14.9c0.5-7.7,7.2-13.5,14.9-13S49.5,26.3,49,34
						C48.4,41.7,41.7,47.5,34,47L34,47L34,47z"/>
					<g>
						<circle class="st4" cx="21" cy="33" r="4"/>
						<circle class="st5" cx="21" cy="33" r="5.5"/>
					</g>
				</g>
			</g>
		</g>
	</g>
</g>
</svg>
