<svg width="124" height="125" viewBox="0 0 124 125" fill="none" xmlns="http://www.w3.org/2000/svg">
<path d="M60.3247 124.5C27.137 124.5 0 97.9499 0 65.1288C0 32.3078 27.137 5.75757 60.3247 5.75757C76.5336 5.75757 91.7523 12.0284 103.157 23.0299C114.562 34.2881 120.906 49.1034 120.906 65.1288C120.906 97.6932 93.7692 124.5 60.3247 124.5ZM60.3247 8.25124C28.6405 8.25124 2.78704 33.5546 2.78704 64.8722C2.78704 96.1897 28.6405 121.493 60.3247 121.493C92.009 121.493 117.862 96.1897 117.862 64.8722C117.862 33.8113 92.009 8.25124 60.3247 8.25124Z" fill="url(#paint0_linear_608_901)"/>
<path d="M60.3236 110.235C34.9836 110.235 14.1908 89.9556 14.1908 64.8722C14.1908 39.7889 34.9469 19.5461 60.3236 19.5461C85.7004 19.5461 106.456 39.8255 106.456 64.9089C106.456 89.9922 85.6637 110.235 60.3236 110.235ZM60.3236 22.2965C36.4871 22.2965 16.9778 41.3291 16.9778 64.9089C16.9778 88.4887 36.4871 107.521 60.3236 107.521C84.1602 107.521 103.669 88.232 103.669 64.9089C103.669 41.3291 84.1235 22.2965 60.3236 22.2965Z" fill="url(#paint1_linear_608_901)"/>
<path d="M60.3168 96.4463C42.5677 96.4463 28.3758 82.4011 28.3758 64.8721C28.3758 47.5998 42.8244 33.2979 60.3168 33.2979C78.0658 33.2979 92.2577 47.3431 92.2577 64.8721C92.4777 82.1811 78.0291 96.4463 60.3168 96.4463ZM60.3168 36.0482C44.1079 36.0482 31.1629 48.8099 31.1629 64.8721C31.1629 80.6409 44.328 93.6959 60.3168 93.6959C76.5256 93.6959 89.4707 80.9342 89.4707 64.8721C89.4707 49.1033 76.5256 36.0482 60.3168 36.0482Z" fill="url(#paint2_linear_608_901)"/>
<path d="M60.3235 82.4377C50.4221 82.4377 42.5744 74.6633 42.5744 64.9087C42.5744 55.154 50.4221 47.3796 60.3235 47.3796C70.2248 47.3796 78.0725 55.154 78.0725 64.9087C78.0358 74.6633 70.1881 82.4377 60.3235 82.4377ZM60.3235 50.0933C52.219 50.0933 45.3614 56.6209 45.3614 64.6153C45.3614 72.6464 51.9623 79.1372 60.3235 79.1372C68.4279 79.1372 75.2855 72.6097 75.2855 64.6153C75.2488 56.6209 68.6846 50.0933 60.3235 50.0933Z" fill="url(#paint3_linear_608_901)"/>
<path d="M60.3224 66.119C60.0657 66.119 59.5523 65.8623 59.2956 65.6056C58.7822 65.0922 58.7822 64.1021 59.2956 63.5887L117.09 3.44731C117.603 2.93391 118.594 2.93391 119.107 3.44731C119.62 3.96071 119.62 4.95084 119.107 5.46424L61.3126 65.6056C61.0559 66.119 60.7992 66.119 60.3224 66.119Z" fill="url(#paint4_linear_608_901)"/>
<path d="M111.775 12.7617C111.005 12.7617 110.272 11.9916 110.272 11.2582V1.50354C110.272 0.733434 110.785 0 111.775 0C112.545 0 113.315 0.733434 113.315 1.50354V11.2582C113.279 12.2483 112.509 12.7617 111.775 12.7617Z" fill="url(#paint5_linear_608_901)"/>
<path d="M111.775 12.7617C111.005 12.7617 110.272 12.2483 110.272 11.5149C110.272 10.7448 110.785 10.0113 111.555 10.0113L121.933 9.75464C122.703 9.75464 123.437 10.268 123.437 11.0015C123.437 11.7349 122.923 12.505 122.153 12.505L111.775 12.7617Z" fill="url(#paint6_linear_608_901)"/>
<path d="M7.33376 124.28C7.07706 124.28 6.56366 124.023 6.30696 123.767C5.79356 123.253 5.79356 122.263 6.30696 121.75L20.4989 107.704C21.0123 107.191 22.0391 107.191 22.5158 107.704C23.0292 108.218 23.0292 109.208 22.5158 109.721L8.32389 123.767C8.10386 124.28 7.84716 124.28 7.33376 124.28Z" fill="url(#paint7_linear_608_901)"/>
<path d="M113.275 124.28C113.018 124.28 112.505 124.023 112.248 123.767L98.056 109.721C97.5426 109.208 97.5426 108.218 98.056 107.704C98.5694 107.191 99.5595 107.191 100.073 107.704L114.265 121.75C114.778 122.263 114.778 123.253 114.265 123.767C114.045 124.28 113.788 124.28 113.275 124.28Z" fill="url(#paint8_linear_608_901)"/>
<defs>
<linearGradient id="paint0_linear_608_901" x1="60.4531" y1="5.75757" x2="60.4531" y2="124.5" gradientUnits="userSpaceOnUse">
<stop stop-color="#26CB99"/>
<stop offset="1" stop-color="#238A6B"/>
</linearGradient>
<linearGradient id="paint1_linear_608_901" x1="60.3236" y1="19.5461" x2="60.3236" y2="110.235" gradientUnits="userSpaceOnUse">
<stop stop-color="#26CB99"/>
<stop offset="1" stop-color="#238A6B"/>
</linearGradient>
<linearGradient id="paint2_linear_608_901" x1="60.318" y1="33.2979" x2="60.318" y2="96.4463" gradientUnits="userSpaceOnUse">
<stop stop-color="#26CB99"/>
<stop offset="1" stop-color="#238A6B"/>
</linearGradient>
<linearGradient id="paint3_linear_608_901" x1="60.3235" y1="47.3796" x2="60.3235" y2="82.4377" gradientUnits="userSpaceOnUse">
<stop stop-color="#26CB99"/>
<stop offset="1" stop-color="#238A6B"/>
</linearGradient>
<linearGradient id="paint4_linear_608_901" x1="89.2013" y1="3.06226" x2="89.2013" y2="66.119" gradientUnits="userSpaceOnUse">
<stop stop-color="#26CB99"/>
<stop offset="1" stop-color="#238A6B"/>
</linearGradient>
<linearGradient id="paint5_linear_608_901" x1="111.794" y1="0" x2="111.794" y2="12.7617" gradientUnits="userSpaceOnUse">
<stop stop-color="#26CB99"/>
<stop offset="1" stop-color="#238A6B"/>
</linearGradient>
<linearGradient id="paint6_linear_608_901" x1="116.854" y1="9.75464" x2="116.854" y2="12.7617" gradientUnits="userSpaceOnUse">
<stop stop-color="#26CB99"/>
<stop offset="1" stop-color="#238A6B"/>
</linearGradient>
<linearGradient id="paint7_linear_608_901" x1="14.4114" y1="107.319" x2="14.4114" y2="124.28" gradientUnits="userSpaceOnUse">
<stop stop-color="#26CB99"/>
<stop offset="1" stop-color="#238A6B"/>
</linearGradient>
<linearGradient id="paint8_linear_608_901" x1="106.16" y1="107.319" x2="106.16" y2="124.28" gradientUnits="userSpaceOnUse">
<stop stop-color="#26CB99"/>
<stop offset="1" stop-color="#238A6B"/>
</linearGradient>
</defs>
</svg>
