<svg width="121" height="136" viewBox="0 0 121 136" fill="none" xmlns="http://www.w3.org/2000/svg">
<path d="M103.233 72.6655H83.0985C82.2749 72.6655 81.4512 71.8418 81.4512 71.0181C81.4512 70.1945 82.2749 69.3708 83.0985 69.3708H103.233C110.966 69.3708 117.052 63.1018 117.052 55.1855C117.052 51.3875 115.679 47.5437 112.933 44.7982C112.659 44.5236 112.384 43.9745 112.384 43.4254C112.659 42.3272 112.659 40.9544 112.659 39.9019C112.659 30.6129 105.2 22.9711 96.0941 22.9711C93.8977 22.9711 91.9758 23.5202 89.7336 24.3439C89.1845 24.6184 88.6354 24.6184 88.0863 24.0693C87.5372 23.7947 87.5372 23.2456 87.5372 22.6965C87.8117 21.8729 87.8117 20.7746 87.8117 19.951C87.8117 10.6619 80.353 3.0201 71.2469 3.0201C65.4355 3.0201 60.219 6.0402 57.1531 10.9364C56.8786 11.211 56.604 11.4855 56.0549 11.7601C55.7804 11.7601 55.2312 11.7601 54.9567 11.4855C52.7603 10.1128 50.2435 9.28909 47.7725 9.28909C40.8629 9.28909 35.0972 14.1853 33.9533 21.278C33.9533 22.1017 33.1296 22.6508 32.3059 22.6508H32.0314C24.2981 22.6508 18.2121 28.9198 18.2121 36.8361C18.2121 37.6597 18.2121 38.4834 18.4867 39.3071C18.4867 39.8562 18.4867 40.1307 18.2121 40.6798C17.9376 40.9544 17.3885 41.229 17.1139 41.229C9.38062 41.229 3.29466 47.7725 3.29466 55.4143C3.29466 63.3306 9.65518 69.5996 17.1139 69.5996H40.5883C41.412 69.5996 42.2357 70.4233 42.2357 71.2469C42.2357 72.0706 41.412 72.8943 40.5883 72.8943H17.1139C7.73329 72.8943 0 64.9779 0 55.4143C0 46.3997 6.90963 39.0325 15.4666 38.2089C15.4666 37.9343 15.4666 37.3852 15.4666 37.1106C15.4666 27.8215 22.6508 20.1798 31.4823 19.6307C33.4042 11.9889 40.0392 6.269 48.0471 6.269C50.7926 6.269 53.3094 6.8181 55.5058 8.19088C59.075 3.0201 64.8864 0 71.2469 0C82.0003 0 90.8318 9.01454 90.8318 19.9052C90.8318 20.1798 90.8318 20.4543 90.8318 20.7289C92.4792 20.1798 94.1265 20.1798 95.8196 20.1798C106.573 20.1798 115.404 29.1943 115.404 40.085C115.404 41.1832 115.404 42.2814 115.13 43.6084C118.15 46.9031 119.569 50.9756 119.569 55.3228C120.072 64.7949 112.613 72.6655 103.233 72.6655Z" fill="url(#paint0_linear_608_1018)"/>
<path d="M40.587 135.173C39.7633 135.173 38.9397 134.349 38.9397 133.525V42.6935C38.9397 41.8698 39.7633 41.0461 40.587 41.0461C41.4107 41.0461 42.2343 41.8698 42.2343 42.6935V133.525C42.2343 134.349 41.4107 135.173 40.587 135.173Z" fill="url(#paint1_linear_608_1018)"/>
<path d="M83.0552 135.173C82.2315 135.173 81.4079 134.349 81.4079 133.525V42.6935C81.4079 41.8698 82.2315 41.0461 83.0552 41.0461C83.8789 41.0461 84.7025 41.8698 84.7025 42.6935V133.525C84.7483 134.349 83.9246 135.173 83.0552 135.173Z" fill="url(#paint2_linear_608_1018)"/>
<path d="M83.048 57.9768H40.5378C39.7141 57.9768 38.8904 57.1531 38.8904 56.3295C38.8904 55.5058 39.7141 54.6821 40.5378 54.6821H83.048C83.8717 54.6821 84.6953 55.5058 84.6953 56.3295C84.7411 57.4277 83.9174 57.9768 83.048 57.9768Z" fill="url(#paint3_linear_608_1018)"/>
<path d="M83.048 73.7639H40.5378C39.7141 73.7639 38.8904 72.9402 38.8904 72.1166C38.8904 71.2929 39.7141 70.4692 40.5378 70.4692H83.048C83.8717 70.4692 84.6953 71.2929 84.6953 72.1166C84.7411 73.2148 83.9174 73.7639 83.048 73.7639Z" fill="url(#paint4_linear_608_1018)"/>
<path d="M83.048 89.5964H40.5378C39.7141 89.5964 38.8904 88.7728 38.8904 87.9491C38.8904 87.1254 39.7141 86.3018 40.5378 86.3018H83.048C83.8717 86.3018 84.6953 87.1254 84.6953 87.9491C84.7411 89.0473 83.9174 89.5964 83.048 89.5964Z" fill="url(#paint5_linear_608_1018)"/>
<path d="M83.048 105.428H40.5378C39.7141 105.428 38.8904 104.605 38.8904 103.781C38.8904 102.957 39.7141 102.134 40.5378 102.134H83.048C83.8716 102.134 84.6953 102.957 84.6953 103.781C84.6953 104.605 83.9174 105.428 83.048 105.428Z" fill="url(#paint6_linear_608_1018)"/>
<path d="M83.048 121.261H40.5378C39.7141 121.261 38.8904 120.438 38.8904 119.614C38.8904 118.79 39.7141 117.967 40.5378 117.967H83.048C83.8717 117.967 84.6953 118.79 84.6953 119.614C84.7411 120.438 83.9174 121.261 83.048 121.261Z" fill="url(#paint7_linear_608_1018)"/>
<path d="M15.4563 135.172C14.6327 135.172 13.809 134.348 13.809 133.525V97.787C13.809 96.9633 14.6327 96.1396 15.4563 96.1396C16.28 96.1396 17.1036 96.9633 17.1036 97.787V133.525C17.1036 134.348 16.28 135.172 15.4563 135.172Z" fill="url(#paint8_linear_608_1018)"/>
<path d="M6.90942 105.429C6.36031 105.429 6.08575 105.154 5.53665 104.88C4.98754 104.056 5.26209 103.233 5.8112 102.683L14.3682 96.689C15.1918 96.1398 16.0155 96.4144 16.5646 96.9635C17.1137 97.7872 16.8391 98.6109 16.29 99.16L7.73308 105.154C7.45853 105.429 7.18397 105.429 6.90942 105.429Z" fill="url(#paint9_linear_608_1018)"/>
<path d="M24.0124 105.429C23.7379 105.429 23.4633 105.429 23.1888 105.155L14.6318 99.1603C13.8082 98.6112 13.8082 97.7876 14.3573 96.9639C14.9064 96.1402 15.7301 96.1402 16.5537 96.6893L25.1107 102.684C25.9343 103.233 25.9343 104.057 25.3852 104.88C24.8361 105.155 24.5616 105.429 24.0124 105.429Z" fill="url(#paint10_linear_608_1018)"/>
<path d="M110.418 135.173C109.595 135.173 108.771 134.349 108.771 133.526V89.3224C108.771 88.4987 109.595 87.675 110.418 87.675C111.242 87.675 112.066 88.4987 112.066 89.3224V133.526C112.066 134.349 111.517 135.173 110.418 135.173Z" fill="url(#paint11_linear_608_1018)"/>
<path d="M101.852 96.9631C101.303 96.9631 101.029 96.6886 100.48 96.414C99.9304 95.5904 100.205 94.7667 100.754 94.2176L109.311 88.2231C110.135 87.674 110.958 87.9486 111.507 88.4977C112.057 89.3214 111.782 90.145 111.233 90.6941L102.676 96.6886C102.676 96.6886 102.401 96.9631 101.852 96.9631Z" fill="url(#paint12_linear_608_1018)"/>
<path d="M118.927 96.963C118.652 96.963 118.378 96.963 118.103 96.6885L109.546 90.694C108.722 90.1449 108.722 89.3212 109.272 88.4976C109.821 87.6739 110.644 87.6739 111.468 88.223L120.025 94.2175C120.849 94.7666 120.849 95.5903 120.299 96.4139C120.071 96.6885 119.522 96.963 118.927 96.963Z" fill="url(#paint13_linear_608_1018)"/>
<defs>
<linearGradient id="paint0_linear_608_1018" x1="59.7963" y1="0" x2="59.7963" y2="72.8943" gradientUnits="userSpaceOnUse">
<stop stop-color="#26CB99"/>
<stop offset="1" stop-color="#238A6B"/>
</linearGradient>
<linearGradient id="paint1_linear_608_1018" x1="40.587" y1="41.0461" x2="40.587" y2="135.173" gradientUnits="userSpaceOnUse">
<stop stop-color="#26CB99"/>
<stop offset="1" stop-color="#238A6B"/>
</linearGradient>
<linearGradient id="paint2_linear_608_1018" x1="83.0561" y1="41.0461" x2="83.0561" y2="135.173" gradientUnits="userSpaceOnUse">
<stop stop-color="#26CB99"/>
<stop offset="1" stop-color="#238A6B"/>
</linearGradient>
<linearGradient id="paint3_linear_608_1018" x1="61.7938" y1="54.6821" x2="61.7938" y2="57.9768" gradientUnits="userSpaceOnUse">
<stop stop-color="#26CB99"/>
<stop offset="1" stop-color="#238A6B"/>
</linearGradient>
<linearGradient id="paint4_linear_608_1018" x1="61.7938" y1="70.4692" x2="61.7938" y2="73.7639" gradientUnits="userSpaceOnUse">
<stop stop-color="#26CB99"/>
<stop offset="1" stop-color="#238A6B"/>
</linearGradient>
<linearGradient id="paint5_linear_608_1018" x1="61.7938" y1="86.3018" x2="61.7938" y2="89.5964" gradientUnits="userSpaceOnUse">
<stop stop-color="#26CB99"/>
<stop offset="1" stop-color="#238A6B"/>
</linearGradient>
<linearGradient id="paint6_linear_608_1018" x1="61.7929" y1="102.134" x2="61.7929" y2="105.428" gradientUnits="userSpaceOnUse">
<stop stop-color="#26CB99"/>
<stop offset="1" stop-color="#238A6B"/>
</linearGradient>
<linearGradient id="paint7_linear_608_1018" x1="61.7938" y1="117.967" x2="61.7938" y2="121.261" gradientUnits="userSpaceOnUse">
<stop stop-color="#26CB99"/>
<stop offset="1" stop-color="#238A6B"/>
</linearGradient>
<linearGradient id="paint8_linear_608_1018" x1="15.4563" y1="96.1396" x2="15.4563" y2="135.172" gradientUnits="userSpaceOnUse">
<stop stop-color="#26CB99"/>
<stop offset="1" stop-color="#238A6B"/>
</linearGradient>
<linearGradient id="paint9_linear_608_1018" x1="11.0506" y1="96.3896" x2="11.0506" y2="105.429" gradientUnits="userSpaceOnUse">
<stop stop-color="#26CB99"/>
<stop offset="1" stop-color="#238A6B"/>
</linearGradient>
<linearGradient id="paint10_linear_608_1018" x1="19.8712" y1="96.3066" x2="19.8712" y2="105.429" gradientUnits="userSpaceOnUse">
<stop stop-color="#26CB99"/>
<stop offset="1" stop-color="#238A6B"/>
</linearGradient>
<linearGradient id="paint11_linear_608_1018" x1="110.418" y1="87.675" x2="110.418" y2="135.173" gradientUnits="userSpaceOnUse">
<stop stop-color="#26CB99"/>
<stop offset="1" stop-color="#238A6B"/>
</linearGradient>
<linearGradient id="paint12_linear_608_1018" x1="105.994" y1="87.9238" x2="105.994" y2="96.9631" gradientUnits="userSpaceOnUse">
<stop stop-color="#26CB99"/>
<stop offset="1" stop-color="#238A6B"/>
</linearGradient>
<linearGradient id="paint13_linear_608_1018" x1="114.786" y1="87.8403" x2="114.786" y2="96.963" gradientUnits="userSpaceOnUse">
<stop stop-color="#26CB99"/>
<stop offset="1" stop-color="#238A6B"/>
</linearGradient>
</defs>
</svg>
