<svg width="45" height="45" viewBox="0 0 45 45" fill="none" xmlns="http://www.w3.org/2000/svg">
<path d="M22.2656 0C17.8619 0 13.5571 1.30586 9.89552 3.75243C6.23395 6.19901 3.38011 9.67643 1.69488 13.7449C0.00964699 17.8134 -0.431286 22.2903 0.427838 26.6094C1.28696 30.9285 3.40756 34.8959 6.52146 38.0098C9.63536 41.1237 13.6027 43.2443 17.9218 44.1034C22.2409 44.9625 26.7178 44.5216 30.7863 42.8364C34.8548 41.1511 38.3322 38.2973 40.7788 34.6357C43.2254 30.9742 44.5313 26.6693 44.5313 22.2656C44.5248 16.3624 42.1769 10.7028 38.0026 6.52861C33.8284 2.3544 28.1689 0.00648285 22.2656 0ZM22.2656 42.4405C20.8562 41.0845 17.1445 37.0055 15.3032 30.2812H29.2281C27.3867 37.0055 23.675 41.0845 22.2656 42.4405ZM14.8779 28.5C14.0406 24.3859 14.0406 20.1453 14.8779 16.0312H29.6534C30.4907 20.1453 30.4907 24.3859 29.6534 28.5H14.8779ZM22.2656 2.09074C23.675 3.44672 27.3867 7.52578 29.2281 14.25H15.3032C17.1445 7.52578 20.8562 3.44672 22.2656 2.09074ZM31.4858 16.0312H41.7792C43.0734 20.0868 43.0734 24.4445 41.7792 28.5H31.4858C32.2545 24.3793 32.2545 20.152 31.4858 16.0312ZM41.1157 14.25H31.0962C29.9723 9.66819 27.7405 5.43245 24.5968 1.91484C28.1931 2.33267 31.615 3.69362 34.516 5.85982C37.4169 8.02603 39.6937 10.9205 41.1157 14.25ZM19.9366 1.91484C16.793 5.43245 14.5612 9.66819 13.4373 14.25H3.41778C4.83981 10.9205 7.11662 8.02603 10.0175 5.85982C12.9184 3.69362 16.3404 2.33267 19.9366 1.91484ZM2.75204 16.0312H13.0454C12.2768 20.152 12.2768 24.3793 13.0454 28.5H2.75204C1.45784 24.4445 1.45784 20.0868 2.75204 16.0312ZM3.42001 30.2812H13.4395C14.5634 34.8631 16.7952 39.0988 19.9389 42.6164C16.3418 42.1993 12.919 40.8387 10.0172 38.6725C7.11545 36.5062 4.83796 33.6113 3.41556 30.2812H3.42001ZM24.5991 42.6164C27.7411 39.0983 29.9714 34.8626 31.094 30.2812H41.1135C39.6915 33.6107 37.4146 36.5052 34.5137 38.6714C31.6128 40.8376 28.1909 42.1986 24.5946 42.6164H24.5991Z" fill="url(#paint0_linear_608_1475)"/>
<defs>
<linearGradient id="paint0_linear_608_1475" x1="22.2656" y1="0" x2="22.2656" y2="44.5313" gradientUnits="userSpaceOnUse">
<stop stop-color="#26CB99"/>
<stop offset="1" stop-color="#238A6B"/>
</linearGradient>
</defs>
</svg>
