<svg width="121" height="119" viewBox="0 0 121 119" fill="none" xmlns="http://www.w3.org/2000/svg">
<path d="M101.909 81.2894H18.9122C18.175 81.2894 17.4377 80.5521 17.4377 79.8537V39.0731C17.4377 38.3359 18.175 37.6375 18.9122 37.6375H102.142C102.879 37.6375 103.577 38.3747 103.577 39.0731V79.8537C103.383 80.5521 102.646 81.2894 101.909 81.2894ZM20.1539 78.6508H100.473V40.276H20.1539V78.6508Z" fill="url(#paint0_linear_608_839)"/>
<path d="M112.806 60.8802H101.903C101.166 60.8802 100.467 60.143 100.467 59.4446C100.467 58.7073 101.205 58.0089 101.903 58.0089H111.603V21.0697C111.603 20.3325 112.341 19.634 113.039 19.634C113.776 19.634 114.514 20.3713 114.514 21.0697V59.4446C114.281 60.1818 113.544 60.8802 112.806 60.8802Z" fill="url(#paint1_linear_608_839)"/>
<path d="M60.4231 99.2552C59.6859 99.2552 58.9487 98.518 58.9487 97.8195V79.8155C58.9487 79.0783 59.6859 78.3799 60.4231 78.3799C61.1604 78.3799 61.8976 79.1171 61.8976 79.8155V97.8195C61.626 98.5568 61.1604 99.2552 60.4231 99.2552Z" fill="url(#paint2_linear_608_839)"/>
<path d="M18.9195 60.8802H8.01627C7.27904 60.8802 6.54181 60.143 6.54181 59.4446V21.0697C6.54181 20.3325 7.27904 19.634 8.01627 19.634C8.75351 19.634 9.49074 20.3713 9.49074 21.0697V58.0089H19.1912C19.9284 58.0089 20.6656 58.7461 20.6656 59.4446C20.1612 60.1818 19.6568 60.8802 18.9195 60.8802Z" fill="url(#paint3_linear_608_839)"/>
<path d="M112.802 99.2545C112.065 99.2545 111.328 98.5173 111.328 97.8188V60.8796H101.627C100.89 60.8796 100.153 60.1424 100.153 59.444C100.153 58.7067 100.89 58.0083 101.627 58.0083H112.53C113.268 58.0083 114.005 58.7455 114.005 59.444V97.8188C114.276 98.5561 113.539 99.2545 112.802 99.2545Z" fill="url(#paint4_linear_608_839)"/>
<path d="M7.78282 99.2545C7.04558 99.2545 6.30835 98.5173 6.30835 97.8188V59.444C6.30835 58.7067 7.04558 58.0083 7.78282 58.0083H18.6861C19.4233 58.0083 20.1606 58.7455 20.1606 59.444C20.1606 60.1812 19.4233 60.8796 18.6861 60.8796H8.98567V97.8188C9.21848 98.5561 8.52005 99.2545 7.78282 99.2545Z" fill="url(#paint5_linear_608_839)"/>
<path d="M60.4231 40.2762C59.6859 40.2762 58.9487 39.539 58.9487 38.8405V20.8365C58.9487 20.0993 59.6859 19.4009 60.4231 19.4009C61.1604 19.4009 61.8976 20.1381 61.8976 20.8365V39.0733C61.626 39.7718 61.1604 40.2762 60.4231 40.2762Z" fill="url(#paint6_linear_608_839)"/>
<path d="M112.809 99.2551C112.576 99.2551 112.343 99.2551 112.072 99.0223L105.747 94.4825C105.01 94.0169 105.01 93.2797 105.514 92.5813C105.98 91.844 106.717 91.844 107.454 92.3485L113.779 96.8882C114.516 97.3539 114.516 98.0911 114.012 98.8283C113.779 99.0223 113.313 99.2551 112.809 99.2551Z" fill="url(#paint7_linear_608_839)"/>
<path d="M112.814 99.255C112.348 99.255 111.844 99.0222 111.611 98.7893C111.145 98.0521 111.378 97.3537 111.844 96.8493L118.169 92.3095C118.906 91.8438 119.604 92.0767 120.109 92.5423C120.613 93.2795 120.341 93.9779 119.876 94.4436L113.823 98.9834C113.551 99.0222 113.086 99.255 112.814 99.255Z" fill="url(#paint8_linear_608_839)"/>
<path d="M60.4265 99.2551C60.1937 99.2551 59.9609 99.2551 59.6893 99.0223L53.3646 94.4825C52.6274 94.0169 52.6274 93.2797 53.1318 92.5813C53.5974 91.844 54.3346 91.844 55.0719 92.3485L61.3965 96.8882C62.1338 97.3539 62.1338 98.0911 61.6293 98.8283C61.1637 99.0223 60.6593 99.2551 60.4265 99.2551Z" fill="url(#paint9_linear_608_839)"/>
<path d="M60.4377 99.255C59.9721 99.255 59.4676 99.0222 59.2348 98.7893C58.7692 98.0521 59.002 97.3537 59.4676 96.8493L65.7923 92.3095C66.5295 91.8438 67.2668 92.0767 67.7324 92.5423C68.2368 93.0079 67.9652 93.9779 67.4996 94.4436L61.1749 98.9834C60.9033 99.0222 60.6705 99.255 60.4377 99.255Z" fill="url(#paint10_linear_608_839)"/>
<path d="M7.77396 99.2551C7.54115 99.2551 7.30835 99.2551 7.03673 99.0223L0.712059 94.4825C-0.0251732 94.0169 -0.0251756 93.2797 0.479246 92.5813C0.983668 91.844 1.6821 91.844 2.41933 92.3485L8.74401 96.8882C9.48124 97.3539 9.48124 98.0911 8.97682 98.8283C8.74401 99.0223 8.23958 99.2551 7.77396 99.2551Z" fill="url(#paint11_linear_608_839)"/>
<path d="M7.782 99.255C7.31638 99.255 6.81196 99.0222 6.57915 98.7893C6.07473 98.0521 6.34634 97.3537 6.81196 96.8493L13.1366 92.3095C13.8739 91.8438 14.6111 92.0767 15.0767 92.5423C15.5423 93.2795 15.3095 93.9779 14.8439 94.4436L8.79085 98.9834C8.51924 99.0222 8.01481 99.255 7.782 99.255Z" fill="url(#paint12_linear_608_839)"/>
<path d="M106.527 26.8124C106.023 26.8124 105.557 26.5796 105.324 26.3467C104.82 25.6095 105.091 24.9111 105.557 24.4455L111.882 19.9057C112.619 19.44 113.356 19.6728 113.822 20.1385C114.287 20.8757 114.054 21.5741 113.589 22.0786L107.264 26.6184C106.993 26.8124 106.76 26.8124 106.527 26.8124Z" fill="url(#paint13_linear_608_839)"/>
<path d="M119.376 26.8126C119.143 26.8126 118.872 26.8126 118.639 26.5798L112.082 22.2728C111.344 21.8072 111.344 21.07 111.849 20.3715C112.353 19.6343 113.052 19.6343 113.789 20.1387L120.113 24.6785C120.851 25.1441 120.851 25.8814 120.346 26.5798C120.346 26.5798 119.881 26.8126 119.376 26.8126Z" fill="url(#paint14_linear_608_839)"/>
<path d="M53.8697 26.8124C53.4041 26.8124 52.8996 26.5796 52.6668 26.3467C52.2012 25.6095 52.434 24.9111 52.8996 24.4455L59.2243 19.9057C59.9615 19.44 60.6988 19.6728 61.1644 20.1385C61.63 20.8757 61.3972 21.5741 60.9316 22.0786L54.6069 26.6184C54.6069 26.8124 54.3353 26.8124 53.8697 26.8124Z" fill="url(#paint15_linear_608_839)"/>
<path d="M66.7162 26.8126C66.4834 26.8126 66.2118 26.8126 65.979 26.5798L59.6931 22.2728C58.9558 21.8072 58.9558 21.07 59.4603 20.3715C59.9647 19.6343 60.6631 19.6343 61.4003 20.1387L67.725 24.6785C68.4623 25.1441 68.4623 25.8814 67.9578 26.5798C67.6862 26.5798 67.2206 26.8126 66.7162 26.8126Z" fill="url(#paint16_linear_608_839)"/>
<path d="M1.45665 26.8124C0.991032 26.8124 0.486614 26.5796 0.253804 26.3467C-0.211817 25.6095 0.0209901 24.9111 0.48661 24.4455L6.81129 19.9057C7.54852 19.44 8.28575 19.6728 8.75137 20.1385C9.25579 20.8757 8.98419 21.5741 8.51857 22.0786L2.19389 26.6184C1.96108 26.8124 1.68946 26.8124 1.45665 26.8124Z" fill="url(#paint17_linear_608_839)"/>
<path d="M14.3352 26.8126C14.1024 26.8126 13.8696 26.8126 13.598 26.5798L7.04049 22.2728C6.30326 21.8072 6.30325 21.07 6.80768 20.3715C7.2733 19.6343 8.01053 19.6343 8.74776 20.1387L15.0724 24.6785C15.8097 25.1441 15.8097 25.8814 15.3052 26.5798C15.3052 26.5798 14.8008 26.8126 14.3352 26.8126Z" fill="url(#paint18_linear_608_839)"/>
<path d="M35.4417 56.8059H29.8542V62.3157H35.4417V56.8059Z" fill="url(#paint19_linear_608_839)"/>
<path d="M49.2552 56.8059H43.6677V62.3157H49.2552V56.8059Z" fill="url(#paint20_linear_608_839)"/>
<path d="M63.1105 56.8059H57.5231V62.3157H63.1105V56.8059Z" fill="url(#paint21_linear_608_839)"/>
<path d="M77.154 56.8059H71.5665V62.3157H77.154V56.8059Z" fill="url(#paint22_linear_608_839)"/>
<path d="M91.0093 56.8059H85.4219V62.3157H91.0093V56.8059Z" fill="url(#paint23_linear_608_839)"/>
<path d="M71.5686 13.891H49.4905C48.7532 13.891 48.016 13.1538 48.016 12.4553V1.43566C48.016 0.698429 48.7532 0 49.4905 0H71.5686C72.3059 0 73.0431 0.737231 73.0431 1.43566V12.4553C72.8103 13.1538 72.3059 13.891 71.5686 13.891ZM50.7321 11.2525H70.133V2.83252H50.7321V11.2525Z" fill="url(#paint24_linear_608_839)"/>
<path d="M118.904 13.8912H107.031C106.294 13.8912 105.557 13.154 105.557 12.4556V1.43591C105.557 0.698673 106.294 0.000244141 107.031 0.000244141H118.904C119.642 0.000244141 120.379 0.737475 120.379 1.43591V12.4556C120.34 13.154 119.642 13.8912 118.904 13.8912ZM108.467 11.2527H117.43V2.83277H108.467V11.2527Z" fill="url(#paint25_linear_608_839)"/>
<path d="M13.8313 13.891H1.95799C1.22075 13.891 0.483521 13.1538 0.483521 12.4553V1.43566C0.483521 0.698429 1.22075 0 1.95799 0H13.8313C14.5685 0 15.3058 0.737231 15.3058 1.43566V12.4553C15.3058 13.1538 14.5685 13.891 13.8313 13.891ZM3.39365 11.2525H12.3568V2.83252H3.39365V11.2525Z" fill="url(#paint26_linear_608_839)"/>
<path d="M71.5686 118.927H49.4905C48.7532 118.927 48.016 118.19 48.016 117.491V106.472C48.016 105.735 48.7532 105.036 49.4905 105.036H71.5686C72.3059 105.036 73.0431 105.773 73.0431 106.472V117.491C72.8103 118.229 72.3059 118.927 71.5686 118.927ZM50.7321 116.056H70.133V107.675H50.7321V116.056Z" fill="url(#paint27_linear_608_839)"/>
<path d="M118.904 118.927H107.031C106.294 118.927 105.557 118.19 105.557 117.492V106.472C105.557 105.735 106.294 105.036 107.031 105.036H118.904C119.642 105.036 120.379 105.774 120.379 106.472V117.492C120.34 118.229 119.642 118.927 118.904 118.927ZM108.467 116.056H117.43V107.675H108.467V116.056Z" fill="url(#paint28_linear_608_839)"/>
<path d="M13.8313 118.927H1.95799C1.22075 118.927 0.483521 118.19 0.483521 117.491V106.472C0.483521 105.735 1.22075 105.036 1.95799 105.036H13.8313C14.5685 105.036 15.3058 105.773 15.3058 106.472V117.491C15.3058 118.229 14.5685 118.927 13.8313 118.927ZM3.39365 116.056H12.3568V107.675H3.39365V116.056Z" fill="url(#paint29_linear_608_839)"/>
<defs>
<linearGradient id="paint0_linear_608_839" x1="60.5076" y1="37.6375" x2="60.5076" y2="81.2894" gradientUnits="userSpaceOnUse">
<stop stop-color="#26CB99"/>
<stop offset="1" stop-color="#238A6B"/>
</linearGradient>
<linearGradient id="paint1_linear_608_839" x1="107.491" y1="19.634" x2="107.491" y2="60.8802" gradientUnits="userSpaceOnUse">
<stop stop-color="#26CB99"/>
<stop offset="1" stop-color="#238A6B"/>
</linearGradient>
<linearGradient id="paint2_linear_608_839" x1="60.4231" y1="78.3799" x2="60.4231" y2="99.2552" gradientUnits="userSpaceOnUse">
<stop stop-color="#26CB99"/>
<stop offset="1" stop-color="#238A6B"/>
</linearGradient>
<linearGradient id="paint3_linear_608_839" x1="13.6037" y1="19.634" x2="13.6037" y2="60.8802" gradientUnits="userSpaceOnUse">
<stop stop-color="#26CB99"/>
<stop offset="1" stop-color="#238A6B"/>
</linearGradient>
<linearGradient id="paint4_linear_608_839" x1="107.108" y1="58.0083" x2="107.108" y2="99.2545" gradientUnits="userSpaceOnUse">
<stop stop-color="#26CB99"/>
<stop offset="1" stop-color="#238A6B"/>
</linearGradient>
<linearGradient id="paint5_linear_608_839" x1="13.2345" y1="58.0083" x2="13.2345" y2="99.2545" gradientUnits="userSpaceOnUse">
<stop stop-color="#26CB99"/>
<stop offset="1" stop-color="#238A6B"/>
</linearGradient>
<linearGradient id="paint6_linear_608_839" x1="60.4231" y1="19.4009" x2="60.4231" y2="40.2762" gradientUnits="userSpaceOnUse">
<stop stop-color="#26CB99"/>
<stop offset="1" stop-color="#238A6B"/>
</linearGradient>
<linearGradient id="paint7_linear_608_839" x1="109.763" y1="91.9951" x2="109.763" y2="99.2551" gradientUnits="userSpaceOnUse">
<stop stop-color="#26CB99"/>
<stop offset="1" stop-color="#238A6B"/>
</linearGradient>
<linearGradient id="paint8_linear_608_839" x1="115.868" y1="92.0557" x2="115.868" y2="99.255" gradientUnits="userSpaceOnUse">
<stop stop-color="#26CB99"/>
<stop offset="1" stop-color="#238A6B"/>
</linearGradient>
<linearGradient id="paint9_linear_608_839" x1="57.3806" y1="91.9951" x2="57.3806" y2="99.2551" gradientUnits="userSpaceOnUse">
<stop stop-color="#26CB99"/>
<stop offset="1" stop-color="#238A6B"/>
</linearGradient>
<linearGradient id="paint10_linear_608_839" x1="63.4921" y1="92.0557" x2="63.4921" y2="99.255" gradientUnits="userSpaceOnUse">
<stop stop-color="#26CB99"/>
<stop offset="1" stop-color="#238A6B"/>
</linearGradient>
<linearGradient id="paint11_linear_608_839" x1="4.72803" y1="91.9951" x2="4.72803" y2="99.2551" gradientUnits="userSpaceOnUse">
<stop stop-color="#26CB99"/>
<stop offset="1" stop-color="#238A6B"/>
</linearGradient>
<linearGradient id="paint12_linear_608_839" x1="10.8194" y1="92.0557" x2="10.8194" y2="99.255" gradientUnits="userSpaceOnUse">
<stop stop-color="#26CB99"/>
<stop offset="1" stop-color="#238A6B"/>
</linearGradient>
<linearGradient id="paint13_linear_608_839" x1="109.564" y1="19.6519" x2="109.564" y2="26.8124" gradientUnits="userSpaceOnUse">
<stop stop-color="#26CB99"/>
<stop offset="1" stop-color="#238A6B"/>
</linearGradient>
<linearGradient id="paint14_linear_608_839" x1="116.098" y1="19.7854" x2="116.098" y2="26.8126" gradientUnits="userSpaceOnUse">
<stop stop-color="#26CB99"/>
<stop offset="1" stop-color="#238A6B"/>
</linearGradient>
<linearGradient id="paint15_linear_608_839" x1="56.9156" y1="19.6519" x2="56.9156" y2="26.8124" gradientUnits="userSpaceOnUse">
<stop stop-color="#26CB99"/>
<stop offset="1" stop-color="#238A6B"/>
</linearGradient>
<linearGradient id="paint16_linear_608_839" x1="63.7091" y1="19.7854" x2="63.7091" y2="26.8126" gradientUnits="userSpaceOnUse">
<stop stop-color="#26CB99"/>
<stop offset="1" stop-color="#238A6B"/>
</linearGradient>
<linearGradient id="paint17_linear_608_839" x1="4.51109" y1="19.6519" x2="4.51109" y2="26.8124" gradientUnits="userSpaceOnUse">
<stop stop-color="#26CB99"/>
<stop offset="1" stop-color="#238A6B"/>
</linearGradient>
<linearGradient id="paint18_linear_608_839" x1="11.0565" y1="19.7854" x2="11.0565" y2="26.8126" gradientUnits="userSpaceOnUse">
<stop stop-color="#26CB99"/>
<stop offset="1" stop-color="#238A6B"/>
</linearGradient>
<linearGradient id="paint19_linear_608_839" x1="32.648" y1="56.8059" x2="32.648" y2="62.3157" gradientUnits="userSpaceOnUse">
<stop stop-color="#26CB99"/>
<stop offset="1" stop-color="#238A6B"/>
</linearGradient>
<linearGradient id="paint20_linear_608_839" x1="46.4614" y1="56.8059" x2="46.4614" y2="62.3157" gradientUnits="userSpaceOnUse">
<stop stop-color="#26CB99"/>
<stop offset="1" stop-color="#238A6B"/>
</linearGradient>
<linearGradient id="paint21_linear_608_839" x1="60.3168" y1="56.8059" x2="60.3168" y2="62.3157" gradientUnits="userSpaceOnUse">
<stop stop-color="#26CB99"/>
<stop offset="1" stop-color="#238A6B"/>
</linearGradient>
<linearGradient id="paint22_linear_608_839" x1="74.3602" y1="56.8059" x2="74.3602" y2="62.3157" gradientUnits="userSpaceOnUse">
<stop stop-color="#26CB99"/>
<stop offset="1" stop-color="#238A6B"/>
</linearGradient>
<linearGradient id="paint23_linear_608_839" x1="88.2156" y1="56.8059" x2="88.2156" y2="62.3157" gradientUnits="userSpaceOnUse">
<stop stop-color="#26CB99"/>
<stop offset="1" stop-color="#238A6B"/>
</linearGradient>
<linearGradient id="paint24_linear_608_839" x1="60.5295" y1="0" x2="60.5295" y2="13.891" gradientUnits="userSpaceOnUse">
<stop stop-color="#26CB99"/>
<stop offset="1" stop-color="#238A6B"/>
</linearGradient>
<linearGradient id="paint25_linear_608_839" x1="112.968" y1="0.000244141" x2="112.968" y2="13.8912" gradientUnits="userSpaceOnUse">
<stop stop-color="#26CB99"/>
<stop offset="1" stop-color="#238A6B"/>
</linearGradient>
<linearGradient id="paint26_linear_608_839" x1="7.89465" y1="0" x2="7.89465" y2="13.891" gradientUnits="userSpaceOnUse">
<stop stop-color="#26CB99"/>
<stop offset="1" stop-color="#238A6B"/>
</linearGradient>
<linearGradient id="paint27_linear_608_839" x1="60.5295" y1="105.036" x2="60.5295" y2="118.927" gradientUnits="userSpaceOnUse">
<stop stop-color="#26CB99"/>
<stop offset="1" stop-color="#238A6B"/>
</linearGradient>
<linearGradient id="paint28_linear_608_839" x1="112.968" y1="105.036" x2="112.968" y2="118.927" gradientUnits="userSpaceOnUse">
<stop stop-color="#26CB99"/>
<stop offset="1" stop-color="#238A6B"/>
</linearGradient>
<linearGradient id="paint29_linear_608_839" x1="7.89465" y1="105.036" x2="7.89465" y2="118.927" gradientUnits="userSpaceOnUse">
<stop stop-color="#26CB99"/>
<stop offset="1" stop-color="#238A6B"/>
</linearGradient>
</defs>
</svg>
