<svg width="100" height="100" viewBox="0 0 100 100" fill="none" xmlns="http://www.w3.org/2000/svg">
<rect width="100" height="100" rx="15" fill="#26CB99"/>
<path d="M37.0287 72.1312H78.8694C84.681 72.1312 89.3952 67.2463 89.3952 61.2314C89.3952 56.0622 85.9175 51.7388 81.2574 50.616C81.5743 49.5589 81.7443 48.4288 81.7443 47.2623C81.7443 40.9776 76.8214 35.8886 70.7547 35.8886C69.0236 35.8886 67.3929 36.3042 65.94 37.0406C63.6061 31.711 58.4205 28 52.3924 28C45.9857 28 40.5296 32.1922 38.4352 38.0686C36.6114 36.8291 34.432 36.1074 32.0904 36.1074C25.6991 36.1074 20.5135 41.4734 20.5135 48.0861C20.5135 48.8662 20.5907 49.6318 20.7299 50.3754C15.2892 50.7983 11 55.5009 11 61.2387C11 67.2609 15.7142 72.1384 21.5336 72.1384H29.4009" stroke="white" stroke-width="1.79213" stroke-miterlimit="10"/>
<path d="M30.834 72.1308H35.8032" stroke="white" stroke-width="1.79213" stroke-miterlimit="10"/>
<path d="M59.1648 65.8755H42.0312V43.0626H59.1648V65.8755Z" stroke="white" stroke-width="1.73069" stroke-miterlimit="10"/>
<path d="M52.8035 48.166C52.8035 49.3107 51.8143 50.2439 50.601 50.2439C49.3877 50.2439 48.3984 49.3107 48.3984 48.166C48.3984 47.0214 49.3877 46.0882 50.601 46.0882C51.822 46.0882 52.8035 47.0214 52.8035 48.166Z" stroke="white" stroke-width="1.06701" stroke-miterlimit="10"/>
<path d="M47.8984 53.4812H56.2759" stroke="white" stroke-width="1.73069" stroke-miterlimit="10"/>
<path d="M44.916 53.4812H47.1495" stroke="white" stroke-width="1.73069" stroke-miterlimit="10"/>
<path d="M44.916 57.7609H56.2765" stroke="white" stroke-width="1.73069" stroke-miterlimit="10"/>
<path d="M52.668 62.0406H56.2771" stroke="white" stroke-width="1.73069" stroke-miterlimit="10"/>
<path d="M44.916 62.0406H51.8251" stroke="white" stroke-width="1.73069" stroke-miterlimit="10"/>
<path d="M75.9173 65.8754H63.3125V49.0847H75.9173V65.8754Z" stroke="white" stroke-width="1.27386" stroke-miterlimit="10"/>
<path d="M71.2361 52.8396C71.2361 53.6854 70.5096 54.3707 69.6132 54.3707C68.7167 54.3707 67.9902 53.6854 67.9902 52.8396C67.9902 51.9939 68.7167 51.3086 69.6132 51.3086C70.5096 51.3159 71.2361 52.0012 71.2361 52.8396Z" stroke="white" stroke-width="0.785364" stroke-miterlimit="10"/>
<path d="M67.6348 56.7546H73.8019" stroke="white" stroke-width="1.27386" stroke-miterlimit="10"/>
<path d="M65.4316 56.7546H67.0855" stroke="white" stroke-width="1.27386" stroke-miterlimit="10"/>
<path d="M65.4316 59.9044H73.8013" stroke="white" stroke-width="1.27386" stroke-miterlimit="10"/>
<path d="M71.1406 63.0541H73.7991" stroke="white" stroke-width="1.27386" stroke-miterlimit="10"/>
<path d="M65.4316 63.0541H70.5246" stroke="white" stroke-width="1.27386" stroke-miterlimit="10"/>
<path d="M37.8723 65.8755H25.2676V49.0848H37.8723V65.8755Z" stroke="white" stroke-width="1.27386" stroke-miterlimit="10"/>
<path d="M33.1912 52.8396C33.1912 53.6854 32.4647 54.3707 31.5682 54.3707C30.6718 54.3707 29.9453 53.6854 29.9453 52.8396C29.9453 51.9939 30.6718 51.3086 31.5682 51.3086C32.4724 51.3159 33.1912 52.0012 33.1912 52.8396Z" stroke="white" stroke-width="0.785364" stroke-miterlimit="10"/>
<path d="M29.5898 56.7546H35.757" stroke="white" stroke-width="1.27386" stroke-miterlimit="10"/>
<path d="M27.3945 56.7546H29.0406" stroke="white" stroke-width="1.27386" stroke-miterlimit="10"/>
<path d="M27.3945 59.9044H35.7565" stroke="white" stroke-width="1.27386" stroke-miterlimit="10"/>
<path d="M33.0957 63.0541H35.7542" stroke="white" stroke-width="1.27386" stroke-miterlimit="10"/>
<path d="M27.3945 63.0541H32.4797" stroke="white" stroke-width="1.27386" stroke-miterlimit="10"/>
</svg>
