<svg width="72" height="72" viewBox="0 0 72 72" fill="none" xmlns="http://www.w3.org/2000/svg">
<path d="M68.2657 28.6964L63.0585 28.8222C62.2536 25.552 61.0461 23.0617 59.4362 20.6216L59.4613 20.521L63.0585 16.6974C63.8635 15.8673 63.8132 14.5089 62.9831 13.7039L56.3924 7.4403C55.5623 6.63533 54.2291 6.66049 53.4241 7.51576L49.9024 11.289C47.3114 9.80489 45.0223 8.74837 41.727 8.1698V8.14464L41.6012 2.93752C41.576 1.78038 40.4943 0.975418 39.3372 1.00057L30.2562 1.22697C29.0991 1.25213 28.6966 2.1074 28.7217 3.26454L28.8475 8.47166C25.5773 9.27663 22.9864 10.4841 20.5715 12.094L20.4205 12.0689L16.5718 8.47166C15.7417 7.6667 14.3581 7.71701 13.5783 8.54713L7.26436 15.1881C6.4594 16.0182 6.48455 17.3514 7.33983 18.1564L11.1131 21.8794C9.62895 24.4704 8.57243 26.9356 7.99387 30.256H7.96871L2.76159 30.3818C1.60445 30.407 0.975571 31.0862 1.00073 32.2685L1.22712 41.3495C1.25228 42.5066 1.93147 43.3116 3.08861 43.2864L8.29573 43.1606C9.10069 46.4308 10.3081 48.8206 11.9181 51.2606L11.8929 51.3109L8.29573 55.0842C7.49076 55.9143 7.54107 57.2727 8.37119 58.0525L14.9618 64.3161C15.792 65.1211 17.1252 65.0708 17.9302 64.2407L21.7537 60.4423C24.3447 61.9264 26.9106 62.9829 30.231 63.5615V63.5866L30.3568 68.7938C30.382 69.9509 30.8851 70.9823 32.0422 70.9571L41.1232 70.7307C42.2804 70.7056 43.2614 69.649 43.2363 68.4667L43.1105 63.2596C46.3807 62.4547 48.6698 61.2472 51.1098 59.6373V59.6624L54.8831 63.2596C55.7132 64.0646 57.0465 64.0143 57.8514 63.1842L64.0899 56.5935C64.8949 55.7634 64.8446 54.4302 64.0144 53.6252L60.2412 50.0029C61.7253 47.4119 62.7567 44.3681 63.3604 41.7268H63.3856L68.5927 41.601C69.7498 41.5759 70.9573 40.6703 70.9321 39.5131L70.7057 30.4321C70.6806 29.275 69.4228 28.6713 68.2657 28.6964Z" stroke="white" stroke-width="1.5" stroke-miterlimit="10" stroke-linejoin="round"/>
<path d="M24.2195 41.727C24.2195 41.727 24.2446 41.8025 24.3201 41.9283C24.3704 42.0289 24.4459 42.205 24.5465 42.3559C24.7226 42.6578 24.8987 42.9345 24.8987 42.9345C24.8987 42.9345 24.949 43.0099 24.9993 43.1106C25.0748 43.2112 25.1502 43.3621 25.2508 43.4879C25.4521 43.7646 25.6533 44.0413 25.6533 44.0413C25.6282 44.0664 26.5338 45.0727 26.5338 45.0727C26.5338 45.0727 26.5841 45.1481 26.6847 45.2236C26.7853 45.2991 26.9111 45.4248 27.0369 45.5506C27.2884 45.777 27.54 46.0034 27.54 46.0034C27.54 46.0034 27.5903 46.0789 27.6909 46.1292C27.7915 46.2046 27.9173 46.3053 28.0682 46.4059C28.3449 46.6071 28.6216 46.8084 28.6216 46.8084C28.6216 46.8084 28.9235 46.9845 29.2002 47.1605C29.3511 47.2612 29.5021 47.3366 29.6027 47.4121C29.7033 47.4876 29.7788 47.5127 29.7788 47.5127C29.7788 47.5127 30.0806 47.6636 30.3825 47.8146C30.5334 47.89 30.6844 47.9655 30.8101 48.0158C30.9359 48.0661 31.0114 48.0913 31.0114 48.0913C31.0114 48.0913 32.2943 48.5692 32.2943 48.5441C32.2943 48.5441 33.6024 48.8962 33.6275 48.8459C33.6275 48.8459 33.9545 48.8962 34.3067 48.9466C34.4828 48.9717 34.6337 48.9969 34.7595 48.9969C34.8853 48.9969 34.9607 48.9969 34.9607 48.9969C34.9607 48.9969 35.3129 49.022 35.6399 49.022C35.816 49.022 35.9921 49.0472 36.1179 49.022C36.2437 49.022 36.3191 49.022 36.3191 49.022C36.3191 49.022 36.6713 48.9969 36.9983 48.9969C37.1744 48.9969 37.3505 48.9717 37.4763 48.9466C37.602 48.9214 37.6775 48.9214 37.6775 48.9214C37.6775 48.9214 38.0045 48.8711 38.3567 48.8208C38.5328 48.7956 38.6837 48.7453 38.8095 48.7202C38.9353 48.695 39.0107 48.6698 39.0107 48.6698C39.0107 48.6698 39.3377 48.5944 39.6648 48.4938C39.8408 48.4686 39.9918 48.3931 40.1176 48.3428C40.2433 48.2925 40.3188 48.2674 40.3188 48.2674C40.3188 48.2674 40.6458 48.1416 40.9477 48.041C41.2495 47.89 41.5514 47.7391 41.5514 47.7391C41.5514 47.7391 41.8533 47.5882 42.1551 47.4372C42.457 47.2612 42.7337 47.0851 42.7337 47.0851C42.7337 47.0851 42.8092 47.0348 42.9098 46.9844C43.0104 46.909 43.1613 46.8335 43.3123 46.7329C43.589 46.5317 43.8657 46.3304 43.8657 46.3304C43.8657 46.3304 43.9411 46.2801 44.0418 46.2046C44.1424 46.1292 44.2682 46.0286 44.3939 45.9028C44.6455 45.6764 44.897 45.45 44.897 45.45C44.9222 45.4751 45.8278 44.4689 45.8278 44.4689C45.8278 44.4689 45.8781 44.3935 45.9787 44.318C46.0542 44.2174 46.1548 44.0916 46.2554 43.9407C46.4567 43.664 46.6579 43.3873 46.6579 43.3873C46.6579 43.3873 46.7082 43.3118 46.7837 43.2112C46.8591 43.1105 46.9346 42.9596 47.0352 42.8087C47.2113 42.5068 47.3874 42.2301 47.3874 42.2301C47.3874 42.2301 47.5383 41.9283 47.6893 41.6264C47.7647 41.4755 47.8402 41.3245 47.8905 41.1988C47.9408 41.073 47.966 40.9975 47.966 40.9975C47.966 40.9975 48.0917 40.6705 48.1924 40.3686C48.2427 40.2177 48.3181 40.0416 48.3433 39.941C48.3936 39.8152 48.3936 39.7398 48.3936 39.7398C48.3936 39.7398 48.4691 39.4127 48.5697 39.0857C48.62 38.9096 48.6703 38.7587 48.6955 38.6329C48.7206 38.5072 48.7206 38.4317 48.7206 38.4317C48.7206 38.4317 48.947 37.0733 48.8967 37.0733C48.8967 37.0733 48.9722 35.7149 48.9219 35.7149C48.9219 35.7149 48.8464 34.3565 48.8212 34.3565C48.8212 34.3565 48.7709 34.0295 48.7206 33.6774C48.6955 33.5013 48.6703 33.3503 48.62 33.2246C48.5948 33.0988 48.5697 33.0233 48.5697 33.0233C48.5697 33.0233 48.4942 32.6963 48.3936 32.3693C48.3684 32.1932 48.293 32.0423 48.2427 31.9165C48.1924 31.7907 48.1672 31.7153 48.1672 31.7153C48.1672 31.7153 48.0414 31.3882 47.9408 31.0864C47.8905 30.9354 47.7899 30.7845 47.7396 30.6587C47.6893 30.533 47.6389 30.4575 47.6389 30.4575C47.6389 30.4575 47.488 30.1556 47.3371 29.8538C47.161 29.5519 46.9849 29.2752 46.9849 29.2752C46.9849 29.2752 46.8088 28.9733 46.6327 28.6966C46.4315 28.4199 46.2303 28.1432 46.2303 28.1432C46.2303 28.1432 46.1799 28.0678 46.1045 27.9671C46.029 27.8665 45.9284 27.7156 45.8026 27.5898C45.5762 27.3383 45.3498 27.0867 45.3498 27.0867C45.3498 27.0867 45.2995 27.0112 45.1989 26.9358C45.1234 26.8352 44.9977 26.7094 44.8719 26.6088C44.6203 26.3824 44.3688 26.156 44.3688 26.156C44.3939 26.1308 43.2871 25.3258 43.2871 25.3258C43.2871 25.3258 43.2116 25.2755 43.111 25.2001C43.0104 25.1246 42.8595 25.0491 42.7085 24.9485C42.4067 24.7724 42.13 24.5963 42.13 24.5963C42.13 24.5963 42.0545 24.546 41.9539 24.4957C41.8281 24.4454 41.6772 24.3699 41.5262 24.2945C41.2244 24.1435 40.9225 23.9926 40.9225 23.9926C40.9225 23.9926 40.5955 23.8668 40.2936 23.7662C40.1427 23.7159 39.9666 23.6404 39.866 23.6153C39.7402 23.565 39.6648 23.5398 39.6648 23.5398C39.6648 23.5398 39.3377 23.4644 39.0107 23.3637C38.8346 23.3134 38.6837 23.2883 38.5579 23.238C38.4322 23.2128 38.3567 23.2128 38.3567 23.2128C38.3567 23.2128 38.0297 23.1625 37.6775 23.1122C37.5014 23.087 37.3505 23.0619 37.2247 23.0367C37.0989 23.0367 37.0235 23.0367 37.0235 23.0367C37.0235 23.0367 36.6713 23.0116 36.3443 23.0116C36.1682 23.0116 35.9921 22.9864 35.8663 22.9864C35.7406 22.9864 35.6651 22.9864 35.6651 22.9864C35.6651 22.9864 35.5896 22.9864 35.4638 22.9864C35.3381 22.9864 35.162 22.9864 34.9859 23.0116C34.6337 23.0367 34.3067 23.087 34.3067 23.087C34.3067 23.087 33.9545 23.1122 33.6275 23.1877C33.3005 23.238 32.9483 23.3134 32.9483 23.3134C32.9483 23.3134 32.6213 23.3889 32.2943 23.4895C31.9673 23.565 31.6403 23.6908 31.6403 23.6908C31.6403 23.6908 31.5648 23.7159 31.3887 23.7662C31.2378 23.8165 31.0114 23.9172 30.7598 24.0178C30.2567 24.2442 29.5775 24.5712 28.9487 24.9737C28.3198 25.351 27.7161 25.8289 27.3136 26.1811C27.1123 26.3572 26.9362 26.5333 26.8105 26.6339C26.6847 26.7345 26.6344 26.81 26.6344 26.81" stroke="white" stroke-width="0.795683" stroke-miterlimit="10"/>
<path d="M26.1292 38.2556C26.0285 37.9537 25.9531 37.677 25.7267 37.4003C25.6261 37.2745 25.5254 37.1487 25.3997 37.023C25.299 36.8972 25.1481 36.7966 25.0223 36.696C24.4689 36.2935 23.6891 35.9665 22.8841 35.9665C22.054 35.9665 21.3245 36.3186 20.8214 36.9727C20.6956 37.1487 20.5699 37.3248 20.4944 37.5261C20.4189 37.7273 20.3435 37.9286 20.3183 38.155C20.2428 38.6077 20.1925 39.0857 20.3435 39.5888C20.4692 40.0667 20.6453 40.5195 20.9472 40.8969C21.2239 41.249 21.5761 41.5509 21.9282 41.727C22.4062 41.9785 22.9344 42.054 23.4375 41.9785C23.4627 42.054 23.4879 42.1043 23.4879 42.1043L24.2425 41.727L24.9972 41.3497C24.9972 41.3497 24.972 41.2994 24.9469 41.249C25.3242 40.922 25.626 40.5447 25.8273 40.1422C26.0034 39.8152 26.1292 39.5133 26.1543 39.2115C26.1795 38.8845 26.2298 38.5574 26.1292 38.2556ZM21.9534 39.2366C21.8528 38.8593 21.9534 38.4568 22.1546 38.1801C22.3559 37.9034 22.6577 37.7022 23.0099 37.6519C23.3621 37.6015 23.7143 37.7022 23.991 37.8782C24.2677 38.0543 24.4186 38.331 24.5192 38.6329C24.5947 38.9348 24.5192 39.2618 24.3683 39.5385C24.2174 39.8152 23.9658 40.0416 23.6136 40.1674C23.2866 40.2931 22.9093 40.2428 22.6074 40.0667C22.2804 39.9158 22.054 39.614 21.9534 39.2366Z" fill="white"/>
<path d="M52.9686 40.293C52.9686 40.293 52.9937 40.2176 53.0189 40.0918C53.044 39.966 53.0943 39.7899 53.1195 39.639C53.195 39.312 53.2453 38.9598 53.2453 38.9598C53.2453 38.9598 53.2956 38.6328 53.3459 38.2806C53.371 38.1045 53.3962 37.9536 53.3962 37.8027C53.3962 37.6769 53.4214 37.6014 53.4214 37.6014C53.4214 37.6014 53.4717 37.2493 53.4717 36.9223C53.4717 36.5701 53.4968 36.2431 53.4968 36.2431C53.4968 36.2431 53.4968 35.8909 53.4968 35.5639C53.4968 35.2117 53.4717 34.8847 53.4717 34.8847C53.4717 34.8847 53.4717 34.7841 53.4465 34.6331C53.4465 34.4822 53.4214 34.2307 53.3711 33.9539C53.3207 33.4005 53.195 32.671 53.0189 31.9415C52.8428 31.212 52.6164 30.5077 52.4403 29.9794C52.2391 29.4512 52.0881 29.1241 52.0881 29.1241" stroke="white" stroke-width="0.795683" stroke-miterlimit="10"/>
<path d="M54.7563 41.7521C54.5551 41.2742 54.2029 40.8968 53.7501 40.6201C53.7753 40.5447 53.7753 40.4944 53.7753 40.4944L52.9703 40.2931L52.1654 40.0919C52.1654 40.0919 52.1654 40.1422 52.1402 40.1925C51.6371 40.1925 51.1592 40.3183 50.7315 40.5195C50.4045 40.6704 50.1278 40.8717 49.8762 41.0981C49.6247 41.3245 49.4486 41.6012 49.2977 41.903C49.021 42.5319 49.021 43.2111 49.2474 43.9155C49.4738 44.5947 49.9014 45.2738 50.6057 45.7266C51.2849 46.1794 52.115 46.3052 52.8949 46.0788C53.6747 45.8273 54.4042 45.2235 54.7815 44.3431C55.1085 43.4375 55.0834 42.4816 54.7563 41.7521ZM53.1716 43.6388C52.8697 44.3683 52.0396 44.6198 51.4107 44.2928C50.7818 43.9406 50.5303 43.186 50.7818 42.5822C51.0585 41.9785 51.7629 41.6767 52.4672 41.903C53.1464 42.1294 53.4986 42.9344 53.1716 43.6388Z" fill="white"/>
<path d="M38.9028 18.71C38.9028 18.71 38.8273 18.6848 38.7015 18.6596C38.5758 18.6345 38.3997 18.5842 38.2487 18.5842C37.8966 18.559 37.5696 18.5339 37.5696 18.5339C37.5696 18.5339 37.2174 18.5087 36.8904 18.4836C36.7143 18.4584 36.5382 18.4584 36.4124 18.4584C36.2866 18.4584 36.186 18.4584 36.186 18.4584C36.186 18.4584 35.8339 18.4584 35.5068 18.4584C35.3307 18.4584 35.1547 18.4584 35.0289 18.4584C34.9031 18.4584 34.8276 18.4836 34.8276 18.4836L33.4693 18.6345C33.4693 18.6345 33.3938 18.6345 33.268 18.6596C33.1422 18.6848 32.9662 18.71 32.8152 18.7603C32.4882 18.8357 32.136 18.886 32.136 18.886C32.136 18.886 32.0606 18.9112 31.9348 18.9363C31.809 18.9615 31.6329 18.9867 31.482 19.0621C31.155 19.1627 30.828 19.2634 30.828 19.2634C30.828 19.2634 30.501 19.364 30.1739 19.4646C29.8469 19.5652 29.5451 19.7162 29.5451 19.7162C29.5451 19.7162 28.2621 20.2193 28.2873 20.2696L27.0798 20.8985C27.0798 20.8985 27.0044 20.9488 26.9038 21.0242C26.8031 21.0997 26.6522 21.2003 26.5013 21.2758C26.2246 21.4519 25.9227 21.6531 25.9227 21.6531C25.9227 21.6531 25.8472 21.7034 25.7466 21.7789C25.646 21.8543 25.4951 21.955 25.3693 22.0556C25.0926 22.282 24.841 22.4832 24.841 22.4832C24.841 22.4832 24.5643 22.7096 24.3128 22.9109C24.0612 23.1624 23.8348 23.3888 23.8348 23.3888C23.8348 23.3888 22.8538 24.3447 22.8789 24.3699L21.9985 25.4264C21.9985 25.4264 21.9482 25.5018 21.8727 25.6025C21.7973 25.7031 21.6966 25.854 21.6212 26.005C21.4199 26.2817 21.2438 26.5835 21.2438 26.5835C21.2438 26.5835 21.1935 26.659 21.1181 26.7596C21.0426 26.8602 20.942 27.0112 20.8665 27.1621C20.7156 27.464 20.5395 27.7658 20.5395 27.7658C20.5395 27.7658 20.3886 28.0677 20.2125 28.3695C20.137 28.5205 20.0616 28.6714 20.0112 28.7972C19.9609 28.923 19.9358 28.9984 19.9358 28.9984C19.9358 28.9984 19.81 29.3254 19.6842 29.6273C19.6088 29.7782 19.5585 29.9543 19.5081 30.0549C19.4578 30.1807 19.4327 30.2562 19.4327 30.2562L19.0302 31.5642C18.9799 31.5642 18.7535 32.8975 18.7535 32.8975C18.7535 32.8975 18.678 33.2245 18.6277 33.5767C18.6026 33.9288 18.5774 34.2558 18.5774 34.2558C18.5774 34.2558 18.4516 35.6142 18.4768 35.6142V36.9726L18.6277 38.331C18.5774 38.331 18.8793 39.6894 18.8793 39.6894C18.8793 39.6894 18.9547 40.0164 19.0302 40.3686C19.1308 40.6956 19.2314 41.0226 19.2314 41.0226C19.2314 41.0226 19.3321 41.3496 19.4327 41.6766C19.483 41.8527 19.5333 42.0036 19.5836 42.1294C19.6339 42.2552 19.6591 42.3307 19.6591 42.3307C19.6591 42.3307 19.7848 42.6577 19.9106 42.9595C19.9861 43.1105 20.0364 43.2866 20.0867 43.3872C20.137 43.513 20.1873 43.5884 20.1873 43.5884L20.8162 44.7959C20.8162 44.7959 20.8665 44.8713 20.9168 44.9971C20.9923 45.0977 21.0929 45.2487 21.1684 45.3996C21.3445 45.6763 21.5457 45.9782 21.5457 45.9782C21.5457 45.9782 21.596 46.0536 21.6715 46.1542C21.7469 46.2549 21.8224 46.4058 21.9482 46.5316C22.1746 46.8083 22.3758 47.0598 22.3758 47.0598C22.3758 47.0598 22.6022 47.3365 22.8035 47.5881C22.9041 47.7139 23.0299 47.8396 23.1305 47.9403C23.2311 48.0409 23.2814 48.0912 23.2814 48.0912C23.2814 48.0912 23.533 48.3427 23.7594 48.5691C23.8851 48.6949 24.0109 48.8207 24.0864 48.8962C24.187 48.9968 24.2373 49.0471 24.2373 49.0471L25.2938 49.9275C25.2938 49.9275 25.3693 49.9778 25.4699 50.0533C25.5705 50.1288 25.7215 50.2294 25.8472 50.3049C26.124 50.5061 26.4258 50.6822 26.4258 50.6822C26.4258 50.6822 26.7025 50.8834 27.0044 51.0595C27.3062 51.2104 27.6081 51.3865 27.6081 51.3865C27.6081 51.3865 28.8156 52.0406 28.8156 52.0154C28.8156 52.0154 29.1174 52.1663 29.4444 52.2921C29.7715 52.4179 30.0733 52.5437 30.0733 52.5437C30.0733 52.5437 30.4003 52.6694 30.7273 52.7701C31.0544 52.8707 31.3814 52.9713 31.3814 52.9713C31.3814 52.9713 31.7084 53.0719 32.0354 53.1474C32.3624 53.2228 32.7146 53.2983 32.7146 53.2983C32.7146 53.2983 33.0919 53.3738 33.6453 53.4492C34.1988 53.5247 34.9534 53.6002 35.6829 53.6002C36.4376 53.6253 37.1671 53.575 37.7205 53.5247C37.9972 53.4996 38.2236 53.4744 38.3997 53.4492C38.5506 53.4241 38.6512 53.4241 38.6512 53.4241" stroke="white" stroke-width="0.795683" stroke-miterlimit="10"/>
<path d="M44.6608 18.3829C44.3589 17.6283 43.6797 16.9994 42.7742 16.6221C42.3214 16.4711 41.8434 16.4208 41.4158 16.446C40.9881 16.4711 40.5857 16.5718 40.2083 16.7981C39.7555 17.0749 39.3782 17.427 39.1518 17.8798C39.0763 17.8547 39.026 17.8547 39.026 17.8547L38.7493 19.5149C38.7493 19.5149 38.7996 19.5149 38.8751 19.5401C38.9254 20.0432 39.0763 20.5211 39.3027 20.9236C39.4788 21.2255 39.6801 21.5273 39.9316 21.7537C40.1832 21.9801 40.4599 22.1562 40.7869 22.2568C41.4158 22.5335 42.1201 22.4078 42.7742 22.1562C43.4282 21.8795 44.0822 21.3764 44.4847 20.672C44.9123 19.9425 44.9627 19.1376 44.6608 18.3829ZM43.0006 19.9425C42.6987 20.5966 41.9692 20.9236 41.3655 20.672C40.7366 20.496 40.3593 19.7665 40.5605 19.0621C40.7366 18.3578 41.4912 17.9804 42.2459 18.2068C42.9502 18.5087 43.3024 19.2885 43.0006 19.9425Z" fill="white"/>
<path d="M19.0603 21.8795C19.0603 21.8795 19.01 21.955 18.9094 22.0556C18.8339 22.1562 18.7081 22.282 18.6075 22.4329C18.4063 22.7096 18.1799 22.9863 18.1799 22.9863C18.1799 22.9863 18.1296 23.0618 18.0541 23.1624C17.9786 23.263 17.878 23.414 17.7774 23.5649C17.5762 23.8668 17.4001 24.1435 17.4001 24.1435C17.4001 24.1435 17.1988 24.4202 17.0227 24.722C16.8467 25.0239 16.6706 25.3258 16.6706 25.3258C16.6706 25.3258 16.4945 25.6276 16.3435 25.9295C16.1926 26.2313 16.0417 26.5584 16.0417 26.5584C16.0417 26.5584 15.9914 26.6338 15.9411 26.7596C15.8908 26.8854 15.8153 27.0363 15.765 27.1872C15.6392 27.5143 15.4883 27.8161 15.4883 27.8161C15.4883 27.8161 15.4631 27.8916 15.4128 28.0174C15.3625 28.1431 15.3122 28.2941 15.2619 28.4702C15.1361 28.7972 15.0355 29.1242 15.0355 29.1242C15.0355 29.1242 15.0103 29.1997 14.96 29.3254C14.9349 29.4512 14.8845 29.6273 14.8342 29.7782C14.7336 30.1052 14.633 30.4574 14.633 30.4574C14.633 30.4574 14.6078 30.5329 14.5827 30.6587C14.5575 30.7844 14.5072 30.9605 14.4821 31.1366C14.4066 31.4888 14.3311 31.8158 14.3311 31.8158L14.1047 33.1993L13.979 34.5829L13.9286 35.9664C13.9286 35.9664 13.9286 36.3186 13.9286 36.6707C13.9286 37.0229 13.9538 37.3751 13.9538 37.3751C13.9538 37.3751 13.979 37.7273 14.0041 38.0794C14.0293 38.4316 14.0796 38.7838 14.0796 38.7838C14.0796 38.7838 14.2557 40.2931 14.6582 41.7521C15.0355 43.2111 15.6392 44.6198 15.6392 44.6198" stroke="white" stroke-width="0.795683" stroke-miterlimit="10"/>
<path d="M23.5363 17.8042C23.0835 17.125 22.3792 16.7225 21.5491 16.6471C21.1466 16.5968 20.7189 16.6471 20.3164 16.798C19.914 16.9489 19.4863 17.1502 19.1593 17.4772C18.455 18.1061 18.1028 18.9865 18.0776 19.7915C18.0776 20.3197 18.2286 20.8228 18.5053 21.2505C18.455 21.3008 18.4298 21.3511 18.4298 21.3511L19.0838 21.8794L19.7379 22.4076C19.7379 22.4076 19.763 22.3573 19.8133 22.307C20.2661 22.5082 20.7692 22.6089 21.222 22.6089C21.9767 22.6089 22.6559 22.3573 23.1841 21.8794C23.4357 21.6278 23.6621 21.3511 23.813 21.0241C23.9639 20.6971 24.0394 20.3449 24.0897 19.9927C24.1652 19.2884 23.9891 18.4834 23.5363 17.8042ZM22.0522 20.6467C21.8006 20.8731 21.4736 20.9738 21.1466 20.9738C20.8196 20.9738 20.4925 20.848 20.241 20.5964C19.9894 20.3449 19.8637 20.0179 19.8637 19.6657C19.8888 19.3135 20.0397 18.9865 20.3164 18.7098C20.895 18.1815 21.7755 18.257 22.2031 18.8104C22.6307 19.4141 22.5301 20.194 22.0522 20.6467Z" fill="white"/>
<path d="M30.0585 57.2224C30.0585 57.2224 30.3856 57.2979 30.7126 57.3985C31.0396 57.474 31.3666 57.5495 31.3666 57.5495C31.3666 57.5495 31.6936 57.6249 32.0206 57.6752C32.3477 57.7255 32.6998 57.7759 32.6998 57.7759C32.6998 57.7759 33.0268 57.8262 33.379 57.8765C33.706 57.9268 34.0582 57.9519 34.0582 57.9519C34.0582 57.9519 34.3852 57.9771 34.7374 58.0023C35.0644 58.0274 35.4166 58.0274 35.4166 58.0274C35.4166 58.0274 35.7436 58.0526 36.0958 58.0274C36.4228 58.0023 36.775 58.0023 36.775 58.0023C36.775 58.0023 37.102 57.9771 37.4542 57.9771C37.6302 57.9771 37.7812 57.9519 37.907 57.9519C38.0327 57.9519 38.1082 57.9268 38.1082 57.9268L39.4414 57.7507C39.4414 57.7507 39.5169 57.7507 39.6427 57.7255C39.7684 57.7004 39.9445 57.7004 40.0954 57.6501C40.4225 57.5746 40.7495 57.4992 40.7495 57.4992C40.7495 57.4992 41.0765 57.4237 41.4035 57.3482C41.5796 57.2979 41.7305 57.2728 41.8563 57.2476C41.9821 57.1973 42.0576 57.1721 42.0576 57.1721L43.3405 56.7445C43.3405 56.7445 43.4159 56.7193 43.5417 56.669C43.6675 56.6439 43.8184 56.5684 43.9693 56.4929C44.2712 56.3672 44.5982 56.2162 44.5982 56.2162C44.5982 56.2162 44.9001 56.0905 45.2271 55.9395C45.378 55.8641 45.529 55.8138 45.6547 55.7383C45.7554 55.688 45.8308 55.6377 45.8308 55.6377L47.0131 54.9836C47.0131 54.9836 47.0886 54.9585 47.1892 54.883C47.2898 54.8075 47.4408 54.7321 47.5665 54.6315C47.8432 54.4554 48.1199 54.2541 48.1199 54.2541C48.1199 54.2541 48.3967 54.078 48.6734 53.8768C48.9501 53.6756 49.2016 53.4492 49.2016 53.4492C49.2016 53.4492 49.4783 53.2479 49.7299 53.0215C49.8557 52.9209 50.0066 52.8203 50.1072 52.7448C50.2078 52.6694 50.2581 52.619 50.2581 52.619L51.2392 51.6883C51.2392 51.6883 51.2895 51.638 51.3901 51.5374C51.4907 51.4619 51.6165 51.3361 51.7171 51.2104C51.9435 50.9588 52.1699 50.7073 52.1699 50.7073C52.1699 50.7073 53.0755 49.701 53.0504 49.6759L53.8553 48.5942C53.8553 48.5942 53.9056 48.5188 53.9811 48.4181C54.0566 48.3175 54.132 48.1666 54.2327 48.0156C54.4087 47.7389 54.5848 47.4371 54.5848 47.4371C54.5848 47.4371 54.7609 47.1604 54.937 46.8585C55.0376 46.7076 55.0879 46.5567 55.1634 46.456C55.2137 46.3554 55.264 46.2799 55.264 46.2799L55.8677 45.0725C55.8677 45.0725 56.0187 44.7203 56.2199 44.2172C56.3205 43.9657 56.4463 43.6638 56.5721 43.3368C56.6979 43.0098 56.7733 42.6576 56.8991 42.3054C56.9997 41.9533 57.1255 41.6011 57.201 41.2741C57.2764 40.947 57.3267 40.62 57.4022 40.3433C57.5028 39.7899 57.5783 39.4377 57.5783 39.4377" stroke="white" stroke-width="0.795683" stroke-miterlimit="10"/>
<path d="M30.0601 57.2225L30.2865 56.4175C30.2865 56.4175 30.2362 56.3924 30.1859 56.3924C30.1859 55.8893 30.0852 55.4113 29.884 54.9837C29.5821 54.3045 29.1042 53.8014 28.4753 53.5247C27.8213 53.248 27.1169 53.2731 26.4377 53.4995C25.7586 53.7511 25.1045 54.2039 24.6769 54.9334C24.2492 55.6377 24.1486 56.4427 24.4253 57.2225C24.6769 57.9771 25.2806 58.6563 26.1359 59.0337C26.9912 59.411 27.8967 59.3607 28.6262 59.0337C29.1042 58.8073 29.4564 58.4551 29.7331 58.0526C29.8085 58.0778 29.8588 58.1029 29.8588 58.1029L30.0601 57.2225ZM26.7648 57.4237C26.0604 57.1219 25.7837 56.3169 26.1107 55.688C26.4377 55.0591 27.1924 54.7824 27.7961 55.034C28.3998 55.2855 28.7269 56.015 28.4753 56.7194C28.2489 57.3986 27.4691 57.7256 26.7648 57.4237Z" fill="white"/>
<path d="M54.9315 24.8728C54.9315 24.8728 54.7554 24.571 54.5793 24.2943C54.4787 24.1433 54.4033 23.9924 54.3278 23.8918C54.2523 23.7912 54.202 23.7157 54.202 23.7157L53.3971 22.6089C53.3971 22.6089 53.3467 22.5334 53.2713 22.4328C53.1958 22.3322 53.07 22.2064 52.9694 22.0806C52.743 21.829 52.5166 21.5523 52.5166 21.5523C52.5166 21.5523 52.2902 21.3008 52.0638 21.0241C51.8123 20.7725 51.5859 20.5461 51.5859 20.5461C51.5859 20.5461 50.6048 19.5651 50.6048 19.5902L49.5483 18.7098C49.5483 18.7098 49.4728 18.6595 49.3722 18.584C49.2716 18.5086 49.1207 18.4079 48.9949 18.3073C48.7182 18.1061 48.4415 17.9048 48.4415 17.9048C48.4415 17.9048 48.366 17.8545 48.2654 17.7791C48.1648 17.7036 48.0138 17.603 47.8629 17.5275C47.5611 17.3514 47.2843 17.1753 47.2843 17.1753C47.2843 17.1753 46.9825 16.9993 46.7058 16.8232C46.5549 16.7225 46.4039 16.6471 46.3033 16.5968C46.1775 16.5465 46.1021 16.4962 46.1021 16.4962C46.1021 16.4962 45.8002 16.3452 45.4983 16.1943C45.3474 16.1188 45.1965 16.0434 45.0707 15.993C44.9449 15.9427 44.8694 15.8924 44.8694 15.8924L43.5865 15.3893C43.5865 15.3893 43.2847 15.2384 42.9325 15.1629C42.6055 15.0623 42.2785 14.9617 42.2785 14.9617C42.2785 14.9617 41.9514 14.8611 41.6244 14.7604C41.4735 14.7101 41.2974 14.685 41.1716 14.6598C41.0459 14.6347 40.9704 14.6095 40.9704 14.6095C40.9704 14.6095 40.6434 14.534 40.2912 14.4586C40.1151 14.4334 39.9642 14.3831 39.8384 14.358C39.7126 14.3328 39.6372 14.3328 39.6372 14.3328L38.2788 14.1567C38.2788 14.1567 37.9015 14.0813 37.3481 14.0813C36.7946 14.0561 36.04 14.0058 35.2853 14.0309C33.776 14.0561 32.317 14.3328 32.317 14.3328" stroke="white" stroke-width="0.795683" stroke-miterlimit="10"/>
<path d="M54.8564 26.4574C54.8564 26.4574 54.7055 26.1555 54.5546 25.8788C54.4036 25.5769 54.2275 25.3002 54.2275 25.3002L55.6865 24.445C55.6865 24.445 55.8878 24.7468 56.0387 25.0487C56.1896 25.3757 56.3657 25.6776 56.3657 25.6776L54.8564 26.4574Z" fill="white"/>
<path d="M57.2438 30.3566C58.0488 30.1554 58.6525 29.6271 59.0047 28.8976C59.1807 28.5455 59.2814 28.1178 59.3065 27.6902C59.3065 27.2626 59.2059 26.8098 59.0298 26.3821C58.9292 26.1557 58.8286 25.9545 58.7279 25.7784C58.6022 25.6023 58.4512 25.4262 58.3003 25.2753C57.9733 24.9734 57.6211 24.747 57.2438 24.6213C56.5143 24.3446 55.659 24.4452 54.9547 24.8477C54.2252 25.2753 53.7975 25.9042 53.5208 26.6085C53.395 26.9607 53.3196 27.3129 53.3196 27.665C53.3196 27.8411 53.3447 28.0172 53.3699 28.1681C53.395 28.3442 53.4454 28.5203 53.4957 28.6712C53.6214 28.9983 53.8227 29.275 54.0994 29.5265C54.3258 29.7781 54.6276 29.9793 54.9547 30.1302C55.6339 30.4573 56.464 30.583 57.2438 30.3566ZM56.7658 28.7467C56.0867 28.9731 55.332 28.6461 55.0804 28.0424C54.854 27.4135 55.0804 26.684 55.7345 26.357C56.3634 26.0299 57.2186 26.3318 57.4702 27.0362C57.772 27.7405 57.445 28.5203 56.7658 28.7467Z" fill="white"/>
<path d="M28.393 15.6409C28.393 16.2195 27.9403 16.6723 27.3617 16.6723C26.7831 16.6723 26.3303 16.2195 26.3303 15.6409C26.3303 15.0623 26.7831 14.6095 27.3617 14.6095C27.9151 14.6095 28.393 15.0623 28.393 15.6409Z" fill="white"/>
<path d="M20.4714 50.9587C20.4714 51.5373 20.0186 51.9901 19.44 51.9901C18.8614 51.9901 18.4086 51.5373 18.4086 50.9587C18.4086 50.3802 18.8614 49.9274 19.44 49.9274C19.9934 49.9274 20.4714 50.3802 20.4714 50.9587Z" fill="white"/>
<path d="M58.2806 35.5638C58.8502 35.5638 59.312 35.102 59.312 34.5324C59.312 33.9628 58.8502 33.5011 58.2806 33.5011C57.711 33.5011 57.2493 33.9628 57.2493 34.5324C57.2493 35.102 57.711 35.5638 58.2806 35.5638Z" fill="white"/>
<path d="M45.576 51.4367C46.1456 51.4367 46.6073 50.9749 46.6073 50.4053C46.6073 49.8357 46.1456 49.374 45.576 49.374C45.0064 49.374 44.5446 49.8357 44.5446 50.4053C44.5446 50.9749 45.0064 51.4367 45.576 51.4367Z" fill="white"/>
<path d="M49.024 24.9734C49.5936 24.9734 50.0553 24.5117 50.0553 23.9421C50.0553 23.3725 49.5936 22.9107 49.024 22.9107C48.4544 22.9107 47.9926 23.3725 47.9926 23.9421C47.9926 24.5117 48.4544 24.9734 49.024 24.9734Z" fill="white"/>
<path d="M24.9502 31.388C24.9502 31.9666 24.4974 32.4194 23.9188 32.4194C23.3402 32.4194 22.8875 31.9666 22.8875 31.388C22.8875 30.8094 23.3402 30.3566 23.9188 30.3566C24.4722 30.3566 24.9502 30.8346 24.9502 31.388Z" fill="white"/>
<path d="M38.6855 44.1417C38.6855 44.1417 39.0125 44.0159 39.3395 43.8901C39.6414 43.7392 39.9684 43.5883 39.9684 43.5883C39.9684 43.5883 40.0439 43.5631 40.1697 43.4876C40.2703 43.4122 40.4212 43.3367 40.5721 43.2361C40.7231 43.1606 40.874 43.06 40.9746 42.9594C41.0752 42.8839 41.1507 42.8336 41.1507 42.8336C41.1759 42.8588 42.2072 41.9532 42.1821 41.928C42.1821 41.928 42.4085 41.6765 42.6349 41.4249C42.8361 41.1482 43.0373 40.8715 43.0373 40.8715C43.0373 40.8715 43.0877 40.796 43.1631 40.6954C43.2386 40.5948 43.314 40.4439 43.4147 40.2929C43.5153 40.142 43.5908 39.9911 43.6411 39.8653C43.6914 39.7395 43.7417 39.6641 43.7417 39.6641C43.7668 39.6892 44.2699 38.3811 44.2448 38.3811C44.2448 38.3811 44.3203 38.0541 44.4209 37.702C44.4712 37.3498 44.5215 37.0228 44.5215 37.0228C44.5467 37.0228 44.597 35.6392 44.5718 35.6392C44.5718 35.6392 44.5718 35.5638 44.5718 35.4128C44.5718 35.2871 44.5718 35.111 44.5215 34.9349C44.4712 34.5827 44.4209 34.2557 44.4209 34.2557C44.4209 34.2557 44.3454 33.9287 44.2448 33.5765C44.2196 33.4004 44.1442 33.2495 44.0939 33.1237C44.0435 32.9979 44.0184 32.9225 44.0184 32.9225C44.0435 32.9225 43.465 31.6647 43.4147 31.6647C43.4147 31.6647 43.2386 31.3628 43.0373 31.0861C42.8361 30.8094 42.6349 30.5327 42.6349 30.5327C42.6349 30.5327 42.5845 30.4573 42.4839 30.3818C42.4085 30.2812 42.2827 30.1554 42.1569 30.0296C42.0563 29.9038 41.9054 29.7781 41.8047 29.7026C41.7041 29.6271 41.6538 29.5517 41.6538 29.5517C41.679 29.5265 40.5721 28.6964 40.547 28.7216C40.547 28.7216 40.4715 28.6712 40.3709 28.6209C40.2451 28.5455 40.1193 28.4448 39.9684 28.3945C39.6665 28.2436 39.3395 28.0927 39.3395 28.0927C39.3395 28.0927 39.0125 27.9669 38.6855 27.8411C38.5346 27.7657 38.3585 27.7405 38.2327 27.7153C38.1069 27.6902 38.0315 27.665 38.0315 27.665C38.0315 27.6399 36.6731 27.4135 36.6731 27.4386C36.6731 27.4386 36.3209 27.4135 35.9939 27.4135C35.6417 27.4386 35.3147 27.4386 35.3147 27.4386C35.3147 27.3883 33.9563 27.6399 33.9563 27.665C33.9563 27.665 33.8809 27.6902 33.7551 27.7153C33.6293 27.7405 33.4532 27.7908 33.3023 27.8411C32.9753 27.9669 32.6483 28.0927 32.6483 28.0927C32.6483 28.0927 32.3464 28.2436 32.0194 28.3945C31.8684 28.47 31.7175 28.5706 31.6169 28.6209C31.5163 28.6964 31.4408 28.7216 31.4408 28.7216C31.4156 28.6964 30.3088 29.5265 30.334 29.5517C30.334 29.5517 30.2585 29.602 30.183 29.7026C30.0824 29.8032 29.9566 29.9038 29.8309 30.0296C29.7051 30.1554 29.6045 30.2812 29.5039 30.3818C29.4032 30.4824 29.3529 30.5327 29.3529 30.5327C29.3529 30.5327 29.1517 30.8094 28.9504 31.0861C28.7492 31.3628 28.5731 31.6647 28.5731 31.6647C28.548 31.6396 27.9442 32.8973 27.9694 32.9225C27.9694 32.9225 27.9442 32.9979 27.8939 33.1237C27.8436 33.2495 27.7933 33.4004 27.743 33.5765C27.6675 33.9035 27.5669 34.2557 27.5669 34.2557C27.5669 34.2557 27.5166 34.6079 27.4663 34.9349C27.4411 35.111 27.4411 35.2871 27.416 35.4128C27.416 35.5386 27.416 35.6392 27.416 35.6392C27.3908 35.6392 27.4411 37.0228 27.4663 37.0228C27.4663 37.0228 27.5166 37.3749 27.5669 37.702C27.6424 38.029 27.743 38.3811 27.743 38.3811C27.7178 38.3811 28.2209 39.6892 28.2461 39.6641C28.2461 39.6641 28.2712 39.7395 28.3467 39.8653C28.397 39.9911 28.4725 40.142 28.5731 40.2929C28.6737 40.4439 28.7492 40.5948 28.8247 40.6954C28.9001 40.796 28.9504 40.8715 28.9504 40.8715C28.9504 40.8715 29.1517 41.1482 29.3529 41.4249C29.5793 41.6765 29.8057 41.928 29.8057 41.928C29.7806 41.9532 30.8119 42.8588 30.8371 42.8336C30.8371 42.8336 30.9125 42.8839 31.0132 42.9594C31.1138 43.0348 31.2647 43.1355 31.4156 43.2361C31.5666 43.3367 31.7175 43.4122 31.8181 43.4876C31.9188 43.5631 32.0194 43.5883 32.0194 43.5883C32.0194 43.5883 32.3212 43.7392 32.6483 43.8901C32.9753 44.0159 33.3023 44.1417 33.3023 44.1417C33.3023 44.1668 34.6355 44.4938 34.6355 44.4687C34.6355 44.4687 34.711 44.4939 34.8619 44.4939C34.9877 44.519 35.1638 44.5442 35.3399 44.5442C35.692 44.5693 36.019 44.5693 36.019 44.5693C36.019 44.5693 36.3712 44.5442 36.6982 44.5442C36.8743 44.5442 37.0504 44.519 37.1762 44.4939C37.302 44.4687 37.3774 44.4687 37.3774 44.4687C37.3523 44.4938 38.6855 44.1668 38.6855 44.1417Z" stroke="white" stroke-width="0.795683" stroke-miterlimit="10"/>
</svg>
