<svg width="126" height="119" viewBox="0 0 126 119" fill="none" xmlns="http://www.w3.org/2000/svg">
<path d="M108.194 37.3712C107.285 16.5861 90.1387 0 69.1436 0C55.1469 0 42.13 7.6282 35.2017 19.6654C15.7463 19.9453 0 35.9015 0 55.4269C0 61.0955 1.39967 66.7642 3.98905 71.803L5.24876 74.1824H29.533V65.3645H10.7774C9.51774 62.2153 8.88789 58.8561 8.88789 55.4269C8.88789 40.5904 20.995 28.4833 35.8315 28.4833C36.3214 28.4833 36.8813 28.4833 37.5811 28.5532L40.5904 28.7632L41.8501 26.0338C46.8189 15.5363 57.5964 8.81792 69.1436 8.81792C85.7997 8.81792 99.3765 22.3947 99.3765 39.0508C99.3765 39.6106 99.3765 40.1005 99.3065 40.7304L99.0966 44.8594L103.156 45.4193C111.064 46.469 117.082 53.2574 117.082 61.2355C117.082 62.7052 116.872 64.1048 116.522 65.4345H60.3957H59.9758V103.575L49.1983 94.2677L43.3197 101.056L63.7549 118.692C64.1048 119.042 64.6647 119.042 65.0846 118.692L85.5198 101.056L79.6411 94.2677L69.0037 103.575V74.1824H122.401L123.591 71.663C125.13 68.3738 125.9 64.8047 125.9 61.1655C125.97 50.0382 118.552 40.4504 108.194 37.3712Z" fill="url(#paint0_linear_608_776)"/>
<path d="M108.194 37.3712C107.285 16.5861 90.1387 0 69.1436 0C55.1469 0 42.13 7.6282 35.2017 19.6654C15.7463 19.9453 0 35.9015 0 55.4269C0 56.4766 0.0699813 57.5264 0.139965 58.5761C3.14925 59.4859 6.22853 60.3257 9.44776 61.0256C9.09785 59.206 8.88789 57.3164 8.88789 55.4269C8.88789 40.5904 20.995 28.4833 35.8315 28.4833C36.3214 28.4833 36.8813 28.4833 37.5811 28.5532L40.5904 28.7632L41.8501 26.0338C46.8189 15.5363 57.5964 8.81792 69.1436 8.81792C85.7997 8.81792 99.3765 22.3947 99.3765 39.0508C99.3765 39.6106 99.3765 40.1005 99.3065 40.7304L99.0966 44.8594L100.496 45.0693C103.645 42.8299 106.655 40.3804 109.314 37.7911C108.964 37.5811 108.614 37.4411 108.194 37.3712Z" fill="url(#paint1_linear_608_776)"/>
<defs>
<linearGradient id="paint0_linear_608_776" x1="62.9503" y1="0" x2="62.9503" y2="118.954" gradientUnits="userSpaceOnUse">
<stop stop-color="#26CB99"/>
<stop offset="1" stop-color="#238A6B"/>
</linearGradient>
<linearGradient id="paint1_linear_608_776" x1="54.6571" y1="0" x2="54.6571" y2="61.0256" gradientUnits="userSpaceOnUse">
<stop stop-color="#26CB99"/>
<stop offset="1" stop-color="#238A6B"/>
</linearGradient>
</defs>
</svg>
