<svg width="45" height="54" viewBox="0 0 45 54" fill="none" xmlns="http://www.w3.org/2000/svg">
<path d="M34.2787 49.765H10.7354C10.2036 49.765 9.78058 49.3451 9.78058 48.8172C9.78058 48.2893 10.2036 47.8694 10.7354 47.8694H34.2787C34.8105 47.8694 35.2335 48.2893 35.2335 48.8172C35.2335 49.3451 34.8105 49.765 34.2787 49.765Z" fill="url(#paint0_linear_608_1425)"/>
<path d="M34.2787 53.9998H10.7354C10.2036 53.9998 9.78058 53.5799 9.78058 53.052C9.78058 52.5242 10.2036 52.1042 10.7354 52.1042H34.2787C34.8105 52.1042 35.2335 52.5242 35.2335 53.052C35.2335 53.5799 34.8105 53.9998 34.2787 53.9998Z" fill="url(#paint1_linear_608_1425)"/>
<path d="M32.5362 49.765H12.4736C11.9418 49.765 11.5188 49.3451 11.5188 48.8172C11.5188 42.8065 16.4498 37.9116 22.5049 37.9116C28.5599 37.9116 33.491 42.8065 33.491 48.8172C33.491 49.3451 33.0559 49.765 32.5362 49.765ZM13.4888 47.8694H31.5331C31.0496 43.3464 27.1942 39.8192 22.517 39.8192C17.8276 39.8072 13.9602 43.3464 13.4888 47.8694Z" fill="url(#paint2_linear_608_1425)"/>
<path d="M22.501 27.342C19.0807 27.342 16.301 24.5826 16.301 21.1873C16.301 17.7921 19.0807 15.0327 22.501 15.0327C25.9213 15.0327 28.7011 17.7921 28.7011 21.1873C28.7011 24.5826 25.9213 27.342 22.501 27.342ZM22.501 16.9403C20.1322 16.9403 18.2105 18.8479 18.2105 21.1993C18.2105 23.5508 20.1322 25.4584 22.501 25.4584C24.8699 25.4584 26.7915 23.5508 26.7915 21.1993C26.7915 18.8479 24.8578 16.9403 22.501 16.9403Z" fill="url(#paint3_linear_608_1425)"/>
<path d="M14.7796 43.4184C14.2961 43.4184 13.8731 43.0465 13.8248 42.5546C13.2688 36.7119 15.0696 34.6844 17.1605 32.3449L17.4264 32.0569C19.2997 29.9454 18.8888 25.8063 18.8888 25.7703C18.8284 25.2545 19.2151 24.7746 19.7348 24.7266C20.2666 24.6786 20.7379 25.0505 20.7863 25.5664C20.8104 25.7703 21.2939 30.5693 18.8525 33.3167L18.5866 33.6166C16.5683 35.8721 15.2388 37.3598 15.7223 42.3746C15.7706 42.9025 15.3839 43.3584 14.8642 43.4064C14.84 43.4184 14.8038 43.4184 14.7796 43.4184Z" fill="url(#paint4_linear_608_1425)"/>
<path d="M30.2252 43.4184C30.189 43.4184 30.1648 43.4184 30.1285 43.4184C29.5968 43.3704 29.21 42.9025 29.2704 42.3866C29.7539 37.3598 28.4244 35.8721 26.4061 33.6166L26.1402 33.3167C23.6988 30.5693 24.1823 25.7703 24.2065 25.5664C24.2669 25.0505 24.7382 24.6786 25.2579 24.7266C25.7776 24.7866 26.1644 25.2545 26.1039 25.7703C26.1039 25.8063 25.6809 29.9454 27.5663 32.0569L27.8322 32.3449C29.9231 34.6844 31.736 36.6999 31.1679 42.5546C31.1317 43.0465 30.7208 43.4184 30.2252 43.4184Z" fill="url(#paint5_linear_608_1425)"/>
<path d="M35.6514 25.4101C35.1558 25.4101 34.6482 25.2541 34.2131 24.9422C33.3429 24.3063 32.9925 23.2386 33.3188 22.2188L33.6572 21.199C33.7297 20.9831 33.6451 20.7431 33.4638 20.6111L32.5936 19.9873C31.7234 19.3514 31.3729 18.2837 31.6993 17.2639C32.0377 16.2441 32.9441 15.5843 34.0318 15.5843H35.1075C35.3371 15.5843 35.5426 15.4403 35.6151 15.2123L35.9535 14.1926C36.2919 13.1728 37.1983 12.5129 38.2861 12.5129C39.3738 12.5129 40.2803 13.1728 40.6187 14.1926L40.9571 15.2123C41.0296 15.4283 41.235 15.5843 41.4647 15.5843H42.5403C43.628 15.5843 44.5345 16.2441 44.8729 17.2639C45.2113 18.2837 44.8608 19.3514 43.9785 19.9873L43.1084 20.6111C42.915 20.7431 42.8425 20.9831 42.915 21.199L43.2534 22.2188C43.5918 23.2386 43.2413 24.3063 42.359 24.9422C41.4888 25.578 40.3528 25.578 39.4826 24.9422L38.6124 24.3183C38.419 24.1863 38.1652 24.1863 37.9839 24.3183L37.1137 24.9422C36.6545 25.2421 36.1469 25.4101 35.6514 25.4101ZM38.274 22.3028C38.7816 22.3028 39.2892 22.4587 39.7122 22.7707L40.5824 23.3945C40.8725 23.5985 41.1142 23.4665 41.2109 23.3945C41.3076 23.3225 41.513 23.1306 41.4042 22.8066L41.0658 21.7869C40.7395 20.7791 41.09 19.6873 41.9602 19.0635L42.8304 18.4396C43.1204 18.2357 43.06 17.9597 43.0238 17.8398C42.9875 17.7318 42.8666 17.4678 42.5161 17.4678H41.4405C40.3769 17.4678 39.4342 16.796 39.1079 15.7882L38.7695 14.7684C38.6607 14.4325 38.3828 14.3965 38.2619 14.3965C38.141 14.3965 37.8631 14.4325 37.7543 14.7684L37.4159 15.7882C37.0896 16.796 36.1469 17.4678 35.0833 17.4678H34.0077C33.6572 17.4678 33.5363 17.7198 33.5001 17.8398C33.4638 17.9477 33.4155 18.2237 33.6934 18.4396L34.5636 19.0635C35.4217 19.6873 35.7843 20.7791 35.458 21.7869L35.1196 22.8066C35.0108 23.1426 35.2163 23.3345 35.3129 23.4065C35.4096 23.4785 35.6634 23.6105 35.9414 23.4065L36.8116 22.7827C37.2709 22.4587 37.7664 22.3028 38.274 22.3028Z" fill="url(#paint6_linear_608_1425)"/>
<path d="M4.07239 25.4101C3.57687 25.4101 3.06926 25.2541 2.63417 24.9422C1.76398 24.3063 1.41349 23.2386 1.73981 22.2188L2.07821 21.199C2.15073 20.9831 2.06613 20.7431 1.88484 20.6111L1.01466 19.9873C0.144471 19.3514 -0.206021 18.2837 0.120299 17.2639C0.458704 16.2441 1.36515 15.5843 2.45288 15.5843H3.52852C3.75815 15.5843 3.96362 15.4403 4.03613 15.2123L4.37454 14.1926C4.71294 13.1728 5.61938 12.5129 6.70712 12.5129C7.79485 12.5129 8.70129 13.1728 9.03969 14.1926L9.3781 15.2123C9.45062 15.4283 9.65608 15.5843 9.88571 15.5843H10.9614C12.037 15.5843 12.9555 16.2441 13.2939 17.2639C13.6323 18.2837 13.2818 19.3514 12.3996 19.9873L11.5294 20.6111C11.336 20.7431 11.2635 20.9831 11.336 21.199L11.6744 22.2188C12.0128 23.2386 11.6623 24.3063 10.7801 24.9422C9.90988 25.578 8.77381 25.578 7.90362 24.9422L7.03343 24.3183C6.84006 24.1863 6.58626 24.1863 6.40497 24.3183L5.53478 24.9422C5.07552 25.2421 4.58 25.4101 4.07239 25.4101ZM2.45288 17.4678C2.10239 17.4678 1.98153 17.7198 1.94527 17.8398C1.90901 17.9477 1.86067 18.2237 2.13864 18.4276L3.00883 19.0515C3.86693 19.6753 4.22951 20.7671 3.90319 21.7749L3.56478 22.7947C3.45601 23.1306 3.66147 23.3225 3.75816 23.3825C3.85484 23.4545 4.09656 23.5865 4.38662 23.3825L5.25681 22.7587C6.11491 22.1348 7.27515 22.1348 8.13325 22.7587L9.00344 23.3825C9.28141 23.5865 9.53522 23.4545 9.6319 23.3825C9.72859 23.3105 9.93405 23.1186 9.82528 22.7827L9.48687 21.7629C9.16055 20.7551 9.51105 19.6633 10.3812 19.0395L11.2514 18.4156C11.5415 18.2117 11.481 17.9357 11.4448 17.8158C11.4085 17.7078 11.2877 17.4438 10.9372 17.4438H9.86154C8.79798 17.4438 7.85528 16.772 7.52896 15.7642L7.19055 14.7444C7.08178 14.4085 6.8038 14.3725 6.68294 14.3725C6.56208 14.3725 6.28411 14.4085 6.17534 14.7444L5.83693 15.7642C5.51061 16.772 4.56791 17.4438 3.50435 17.4438H2.45288V17.4678Z" fill="url(#paint7_linear_608_1425)"/>
<path d="M19.8827 12.9091C19.3871 12.9091 18.8795 12.7532 18.4444 12.4412C17.5743 11.8054 17.2238 10.7376 17.5501 9.71784L17.8885 8.69806C17.961 8.48211 17.8764 8.24217 17.6951 8.0982L16.8249 7.47434C15.9547 6.83848 15.6043 5.77072 15.9306 4.75094C16.269 3.73117 17.1754 3.07132 18.2632 3.07132H19.3388C19.5684 3.07132 19.7739 2.92735 19.8464 2.6994L20.1848 1.67963C20.5232 0.659853 21.4297 0 22.5174 0C23.593 0 24.5116 0.659853 24.85 1.67963L25.1884 2.6994C25.2609 2.91535 25.4663 3.07132 25.696 3.07132H26.7716C27.8594 3.07132 28.7658 3.73117 29.1042 4.75094C29.4426 5.77072 29.0921 6.83848 28.2098 7.47434L27.3397 8.0982C27.1463 8.23017 27.0738 8.47011 27.1463 8.69806L27.4847 9.71784C27.8231 10.7376 27.4726 11.8054 26.5903 12.4412C25.7202 13.0771 24.5841 13.0771 23.7139 12.4412L22.8437 11.8174C22.6503 11.6854 22.4086 11.6854 22.2152 11.8174L21.3451 12.4412C20.8858 12.7532 20.3782 12.9091 19.8827 12.9091ZM18.2511 4.97889C17.9006 4.97889 17.7797 5.23084 17.7435 5.35081C17.7072 5.45878 17.6589 5.73472 17.9368 5.93868L18.807 6.56254C19.6651 7.1864 20.0277 8.27816 19.7014 9.28593L19.363 10.3057C19.2542 10.6416 19.4597 10.8336 19.5563 10.9056C19.653 10.9776 19.8947 11.1095 20.1848 10.9056L21.055 10.2817C21.9131 9.65785 23.0733 9.65785 23.9314 10.2817L24.8016 10.9056C25.0917 11.1095 25.3334 10.9776 25.4301 10.9056C25.5268 10.8336 25.7322 10.6416 25.6235 10.3057L25.2851 9.28593C24.9587 8.27816 25.3092 7.1864 26.1794 6.56254L27.0496 5.93868C27.3276 5.73472 27.2792 5.45878 27.243 5.35081C27.2067 5.24283 27.0859 4.97889 26.7354 4.97889H25.6597C24.5962 4.97889 23.6535 4.30704 23.3271 3.29927L22.9887 2.27949C22.88 1.94357 22.602 1.90758 22.4811 1.90758C22.3603 1.90758 22.0823 1.94357 21.9735 2.27949L21.6351 3.29927C21.3088 4.30704 20.3661 4.97889 19.3025 4.97889H18.2511Z" fill="url(#paint8_linear_608_1425)"/>
<path d="M36.7753 40.815C36.2435 40.815 35.8205 40.3951 35.8205 39.8672V29.7415C35.8205 29.2136 36.2435 28.7937 36.7753 28.7937C37.3071 28.7937 37.7301 29.2136 37.7301 29.7415V39.8672C37.7301 40.3951 37.3071 40.815 36.7753 40.815Z" fill="url(#paint9_linear_608_1425)"/>
<path d="M42.1646 40.8151C41.6328 40.8151 41.2098 40.3952 41.2098 39.8673V28.1099C41.2098 27.582 41.6328 27.1621 42.1646 27.1621C42.6964 27.1621 43.1194 27.582 43.1194 28.1099V39.8673C43.1315 40.3952 42.6964 40.8151 42.1646 40.8151Z" fill="url(#paint10_linear_608_1425)"/>
<path d="M2.81775 40.8151C2.28597 40.8151 1.86296 40.3952 1.86296 39.8673V28.1099C1.86296 27.582 2.28597 27.1621 2.81775 27.1621C3.34953 27.1621 3.77253 27.582 3.77253 28.1099V39.8673C3.77253 40.3952 3.33744 40.8151 2.81775 40.8151Z" fill="url(#paint11_linear_608_1425)"/>
<path d="M8.20704 40.815C7.67527 40.815 7.25226 40.3951 7.25226 39.8672V29.7415C7.25226 29.2136 7.67527 28.7937 8.20704 28.7937C8.73882 28.7937 9.16183 29.2136 9.16183 29.7415V39.8672C9.16183 40.3951 8.73882 40.815 8.20704 40.815Z" fill="url(#paint12_linear_608_1425)"/>
<defs>
<linearGradient id="paint0_linear_608_1425" x1="22.507" y1="47.8694" x2="22.507" y2="49.765" gradientUnits="userSpaceOnUse">
<stop stop-color="#26CB99"/>
<stop offset="1" stop-color="#238A6B"/>
</linearGradient>
<linearGradient id="paint1_linear_608_1425" x1="22.507" y1="52.1042" x2="22.507" y2="53.9998" gradientUnits="userSpaceOnUse">
<stop stop-color="#26CB99"/>
<stop offset="1" stop-color="#238A6B"/>
</linearGradient>
<linearGradient id="paint2_linear_608_1425" x1="22.5049" y1="37.9116" x2="22.5049" y2="49.765" gradientUnits="userSpaceOnUse">
<stop stop-color="#26CB99"/>
<stop offset="1" stop-color="#238A6B"/>
</linearGradient>
<linearGradient id="paint3_linear_608_1425" x1="22.501" y1="15.0327" x2="22.501" y2="27.342" gradientUnits="userSpaceOnUse">
<stop stop-color="#26CB99"/>
<stop offset="1" stop-color="#238A6B"/>
</linearGradient>
<linearGradient id="paint4_linear_608_1425" x1="17.2817" y1="24.7224" x2="17.2817" y2="43.4184" gradientUnits="userSpaceOnUse">
<stop stop-color="#26CB99"/>
<stop offset="1" stop-color="#238A6B"/>
</linearGradient>
<linearGradient id="paint5_linear_608_1425" x1="27.7128" y1="24.7224" x2="27.7128" y2="43.4184" gradientUnits="userSpaceOnUse">
<stop stop-color="#26CB99"/>
<stop offset="1" stop-color="#238A6B"/>
</linearGradient>
<linearGradient id="paint6_linear_608_1425" x1="38.2895" y1="12.5129" x2="38.2895" y2="25.4191" gradientUnits="userSpaceOnUse">
<stop stop-color="#26CB99"/>
<stop offset="1" stop-color="#238A6B"/>
</linearGradient>
<linearGradient id="paint7_linear_608_1425" x1="6.71052" y1="12.5129" x2="6.71052" y2="25.4191" gradientUnits="userSpaceOnUse">
<stop stop-color="#26CB99"/>
<stop offset="1" stop-color="#238A6B"/>
</linearGradient>
<linearGradient id="paint8_linear_608_1425" x1="22.5208" y1="0" x2="22.5208" y2="12.9181" gradientUnits="userSpaceOnUse">
<stop stop-color="#26CB99"/>
<stop offset="1" stop-color="#238A6B"/>
</linearGradient>
<linearGradient id="paint9_linear_608_1425" x1="36.7753" y1="28.7937" x2="36.7753" y2="40.815" gradientUnits="userSpaceOnUse">
<stop stop-color="#26CB99"/>
<stop offset="1" stop-color="#238A6B"/>
</linearGradient>
<linearGradient id="paint10_linear_608_1425" x1="42.1647" y1="27.1621" x2="42.1647" y2="40.8151" gradientUnits="userSpaceOnUse">
<stop stop-color="#26CB99"/>
<stop offset="1" stop-color="#238A6B"/>
</linearGradient>
<linearGradient id="paint11_linear_608_1425" x1="2.81775" y1="27.1621" x2="2.81775" y2="40.8151" gradientUnits="userSpaceOnUse">
<stop stop-color="#26CB99"/>
<stop offset="1" stop-color="#238A6B"/>
</linearGradient>
<linearGradient id="paint12_linear_608_1425" x1="8.20704" y1="28.7937" x2="8.20704" y2="40.815" gradientUnits="userSpaceOnUse">
<stop stop-color="#26CB99"/>
<stop offset="1" stop-color="#238A6B"/>
</linearGradient>
</defs>
</svg>
