<svg width="30" height="30" viewBox="0 0 30 30" fill="none" xmlns="http://www.w3.org/2000/svg">
<path d="M16.0225 29.125H2.55228C1.69473 29.125 1 28.4298 1 27.5726V2.55227C1 1.69483 1.69484 1 2.55228 1H27.5728C28.4301 1 29.125 1.69483 29.125 2.55227V27.5726C29.125 28.4299 28.4299 29.125 27.5728 29.125H20.4058V18.2334H24.0616L24.609 13.9888H20.4058V11.2789C20.4058 10.05 20.7471 9.21251 22.5093 9.21251L24.757 9.21152V5.41509C24.3683 5.36336 23.0341 5.24779 21.4818 5.24779C18.2411 5.24779 16.0225 7.22589 16.0225 10.8585V13.9888H12.3573V18.2334H16.0225V29.125V29.125Z" stroke="#26CB99" stroke-width="1.17188"/>
</svg>
