<svg width="59" height="59" viewBox="0 0 59 59" fill="none" xmlns="http://www.w3.org/2000/svg">
<path d="M51.9389 40.9752H6.86639C6.50806 40.9752 6.14972 40.6169 6.14972 40.2585V12.4952C6.14972 12.1369 6.50806 11.7786 6.86639 11.7786H51.9389C52.2972 11.7786 52.6556 12.1369 52.6556 12.4952V40.3676C52.6711 40.7415 52.3128 40.9752 51.9389 40.9752ZM7.47401 39.6665H51.2222V13.2119H7.47401V39.6665Z" fill="url(#paint0_linear_608_1445)"/>
<path d="M55.0903 13.2115H3.73916C1.68262 13.2115 0 11.5445 0 9.64371C0 7.61833 1.68262 6.07593 3.73916 6.07593H55.1994C57.2559 6.07593 58.9386 7.74297 58.9386 9.64371C58.8139 11.5445 57.1313 13.2115 55.0903 13.2115ZM3.73916 7.26C2.41488 7.26 1.44893 8.33501 1.44893 9.51907C1.44893 10.8278 2.53952 11.7782 3.73916 11.7782H55.1994C56.5237 11.7782 57.4896 10.7031 57.4896 9.51907C57.4896 8.21037 56.399 7.26 55.1994 7.26H3.73916Z" fill="url(#paint1_linear_608_1445)"/>
<path d="M29.4146 49.3102C27.3581 49.3102 25.6755 47.6431 25.6755 45.6178V40.3829C25.6755 40.0246 26.0338 39.6663 26.3922 39.6663H32.5462C32.9045 39.6663 33.2629 40.0246 33.2629 40.3829V45.6178C33.1538 47.6431 31.4556 49.3102 29.4146 49.3102ZM26.9998 40.975V45.5087C26.9998 46.8174 28.0904 47.8924 29.4146 47.8924C30.7389 47.8924 31.8295 46.8174 31.8295 45.5087V40.975H26.9998Z" fill="url(#paint2_linear_608_1445)"/>
<path d="M41.9325 37.2828H36.7444C36.386 37.2828 36.0277 36.9245 36.0277 36.5661V17.3873C36.0277 17.029 36.386 16.6707 36.7444 16.6707H41.9325C42.2908 16.6707 42.6491 17.029 42.6491 17.3873V36.5661C42.6647 37.0491 42.3064 37.2828 41.9325 37.2828ZM37.4766 35.9741H41.3404V18.104H37.4766V35.9741Z" fill="url(#paint3_linear_608_1445)"/>
<path d="M36.7729 37.2823H31.5848C31.2264 37.2823 30.8681 36.924 30.8681 36.5657V24.8964C30.8681 24.538 31.2264 24.1797 31.5848 24.1797H36.7729C37.1312 24.1797 37.4895 24.538 37.4895 24.8964V36.5657C37.4895 37.0486 37.1312 37.2823 36.7729 37.2823ZM32.3014 35.9736H36.1653V25.613H32.3014V35.9736Z" fill="url(#paint4_linear_608_1445)"/>
<path d="M31.5802 37.2825H26.3922C26.0338 37.2825 25.6755 36.9242 25.6755 36.5658V22.2635C25.6755 21.9052 26.0338 21.5469 26.3922 21.5469H31.5802C31.9386 21.5469 32.2969 21.9052 32.2969 22.2635V36.6749C32.1879 37.0488 31.9386 37.2825 31.5802 37.2825ZM26.9998 35.9738H30.8636V22.8712H26.9998V35.9738Z" fill="url(#paint5_linear_608_1445)"/>
<path d="M26.3845 37.2824H21.1964C20.838 37.2824 20.4797 36.924 20.4797 36.5657V19.7706C20.4797 19.4123 20.838 19.054 21.1964 19.054H26.3845C26.7428 19.054 27.1011 19.4123 27.1011 19.7706V36.5657C26.9921 37.0487 26.7584 37.2824 26.3845 37.2824ZM21.804 35.9737H25.6678V20.4873H21.804V35.9737Z" fill="url(#paint6_linear_608_1445)"/>
<path d="M21.2138 37.2826H16.0258C15.6674 37.2826 15.3091 36.9243 15.3091 36.5659V24.6473C15.3091 24.289 15.6674 23.9307 16.0258 23.9307H21.2138C21.5722 23.9307 21.9305 24.289 21.9305 24.6473V36.675C21.8059 37.0489 21.5722 37.2826 21.2138 37.2826ZM16.6334 35.9739H20.4816V25.255H16.6178V35.9739H16.6334Z" fill="url(#paint7_linear_608_1445)"/>
<path d="M45.1984 37.2827H13.618C13.2597 37.2827 12.9014 36.9244 12.9014 36.566C12.9014 36.2077 13.2597 35.8494 13.618 35.8494H45.1984C45.5567 35.8494 45.9151 36.2077 45.9151 36.566C45.9306 36.9244 45.5567 37.2827 45.1984 37.2827Z" fill="url(#paint8_linear_608_1445)"/>
<path d="M9.28801 58.9696C9.16337 58.9696 8.92967 58.845 8.80503 58.7359C8.57134 58.5022 8.57134 58.0192 8.80503 57.7855L25.8026 39.8999C26.0519 39.6662 26.5193 39.6662 26.7686 39.8999C27.0023 40.1336 27.0023 40.6166 26.7686 40.8503L9.77098 58.7203C9.64635 58.845 9.52171 58.9696 9.28801 58.9696Z" fill="url(#paint9_linear_608_1445)"/>
<path d="M49.5392 58.9696C49.3055 58.9696 49.1809 58.845 49.0562 58.7359L32.0586 40.8503C31.8249 40.6166 31.8249 40.1336 32.0586 39.8999C32.2923 39.6662 32.7753 39.6662 33.0246 39.8999L50.0222 57.77C50.2559 58.0037 50.2559 58.4866 50.0222 58.7203C49.8976 58.845 49.6483 58.9696 49.5392 58.9696Z" fill="url(#paint10_linear_608_1445)"/>
<path d="M29.4128 58.9696C29.0544 58.9696 28.6961 58.6113 28.6961 58.2529V48.609C28.6961 48.2507 29.0544 47.8923 29.4128 47.8923C29.7711 47.8923 30.1294 48.2507 30.1294 48.609V58.2529C30.1294 58.6113 29.7711 58.9696 29.4128 58.9696Z" fill="url(#paint11_linear_608_1445)"/>
<path d="M31.4546 7.26021H27.3571C26.9987 7.26021 26.6404 6.90187 26.6404 6.54354V2.61741C26.6404 1.18407 27.8401 0 29.289 0C30.7379 0 31.9376 1.18407 31.9376 2.61741V6.66818C32.0622 6.90188 31.8285 7.26021 31.4546 7.26021ZM28.0893 5.9515H30.7379V2.61741C30.7379 1.90074 30.1303 1.30871 29.4136 1.30871C28.6969 1.30871 28.0893 1.90074 28.0893 2.61741V5.9515Z" fill="url(#paint12_linear_608_1445)"/>
<defs>
<linearGradient id="paint0_linear_608_1445" x1="29.4029" y1="11.7786" x2="29.4029" y2="40.9752" gradientUnits="userSpaceOnUse">
<stop stop-color="#26CB99"/>
<stop offset="1" stop-color="#238A6B"/>
</linearGradient>
<linearGradient id="paint1_linear_608_1445" x1="29.4693" y1="6.07593" x2="29.4693" y2="13.2115" gradientUnits="userSpaceOnUse">
<stop stop-color="#26CB99"/>
<stop offset="1" stop-color="#238A6B"/>
</linearGradient>
<linearGradient id="paint2_linear_608_1445" x1="29.4692" y1="39.6663" x2="29.4692" y2="49.3102" gradientUnits="userSpaceOnUse">
<stop stop-color="#26CB99"/>
<stop offset="1" stop-color="#238A6B"/>
</linearGradient>
<linearGradient id="paint3_linear_608_1445" x1="39.3387" y1="16.6707" x2="39.3387" y2="37.2828" gradientUnits="userSpaceOnUse">
<stop stop-color="#26CB99"/>
<stop offset="1" stop-color="#238A6B"/>
</linearGradient>
<linearGradient id="paint4_linear_608_1445" x1="34.1788" y1="24.1797" x2="34.1788" y2="37.2823" gradientUnits="userSpaceOnUse">
<stop stop-color="#26CB99"/>
<stop offset="1" stop-color="#238A6B"/>
</linearGradient>
<linearGradient id="paint5_linear_608_1445" x1="28.9862" y1="21.5469" x2="28.9862" y2="37.2825" gradientUnits="userSpaceOnUse">
<stop stop-color="#26CB99"/>
<stop offset="1" stop-color="#238A6B"/>
</linearGradient>
<linearGradient id="paint6_linear_608_1445" x1="23.7904" y1="19.054" x2="23.7904" y2="37.2824" gradientUnits="userSpaceOnUse">
<stop stop-color="#26CB99"/>
<stop offset="1" stop-color="#238A6B"/>
</linearGradient>
<linearGradient id="paint7_linear_608_1445" x1="18.6198" y1="23.9307" x2="18.6198" y2="37.2826" gradientUnits="userSpaceOnUse">
<stop stop-color="#26CB99"/>
<stop offset="1" stop-color="#238A6B"/>
</linearGradient>
<linearGradient id="paint8_linear_608_1445" x1="29.4084" y1="35.8494" x2="29.4084" y2="37.2827" gradientUnits="userSpaceOnUse">
<stop stop-color="#26CB99"/>
<stop offset="1" stop-color="#238A6B"/>
</linearGradient>
<linearGradient id="paint9_linear_608_1445" x1="17.7868" y1="39.7246" x2="17.7868" y2="58.9696" gradientUnits="userSpaceOnUse">
<stop stop-color="#26CB99"/>
<stop offset="1" stop-color="#238A6B"/>
</linearGradient>
<linearGradient id="paint10_linear_608_1445" x1="41.0404" y1="39.7246" x2="41.0404" y2="58.9696" gradientUnits="userSpaceOnUse">
<stop stop-color="#26CB99"/>
<stop offset="1" stop-color="#238A6B"/>
</linearGradient>
<linearGradient id="paint11_linear_608_1445" x1="29.4128" y1="47.8923" x2="29.4128" y2="58.9696" gradientUnits="userSpaceOnUse">
<stop stop-color="#26CB99"/>
<stop offset="1" stop-color="#238A6B"/>
</linearGradient>
<linearGradient id="paint12_linear_608_1445" x1="29.3059" y1="0" x2="29.3059" y2="7.26021" gradientUnits="userSpaceOnUse">
<stop stop-color="#26CB99"/>
<stop offset="1" stop-color="#238A6B"/>
</linearGradient>
</defs>
</svg>
