<svg width="79" height="83" viewBox="0 0 79 83" fill="none" xmlns="http://www.w3.org/2000/svg">
<path d="M78.3694 37.3134C78.3694 30.4728 73.4327 24.744 66.764 23.6806C66.8488 23.0581 66.8924 22.4283 66.8924 21.8009C66.8924 14.1875 60.6985 7.99366 53.0852 7.99366C51.9491 7.99366 50.8252 8.13174 49.7303 8.40546C47.5792 3.35007 42.5554 0 37.0203 0C34.0021 0 31.1317 0.956818 28.7239 2.76871C26.5172 4.43043 24.8336 6.75828 23.9471 9.35985C20.9192 9.95332 18.1577 11.5593 16.1327 13.9162C13.9865 16.4161 12.8044 19.6087 12.802 22.9079C12.802 23.1186 12.8068 23.3294 12.8165 23.5401C9.46401 23.7751 6.34891 25.2091 3.97019 27.6217C1.40737 30.2209 0 33.6606 0 37.311C0 44.8226 6.034 50.9487 13.5069 51.1086C13.4197 51.4574 13.3736 51.8207 13.3736 52.1962V57.4139C13.3736 59.9161 15.4084 61.9533 17.9131 61.9533H23.5425V68.5275H17.9155C15.4132 68.5275 13.3761 70.5647 13.3761 73.0669V78.2822C13.3761 80.7844 15.4108 82.8216 17.9155 82.8216H60.4563C62.9562 82.8216 64.9957 80.7844 64.9957 78.2822V73.0669C64.9957 70.5647 62.9586 68.5275 60.4563 68.5275H54.8293V61.9533H60.4563C62.9562 61.9533 64.9957 59.9161 64.9957 57.4139V52.1962C64.9957 51.8207 64.9497 51.4574 64.8625 51.1086C72.3354 50.9511 78.3694 44.8251 78.3694 37.3134ZM24.9959 61.9533H28.3581V68.5275H24.9959V61.9533ZM29.8115 68.5275V61.9533H48.5579V68.5275H29.8115ZM63.5423 73.0669V78.2822C63.5423 79.9851 62.1568 81.3707 60.4563 81.3707H17.9155C16.2126 81.3707 14.8295 79.9851 14.8295 78.2822V73.0669C14.8295 71.3665 16.2126 69.9809 17.9155 69.9809H60.4563C62.1568 69.9809 63.5423 71.364 63.5423 73.0669ZM53.3734 68.5275H50.0113V61.9533H53.3759L53.3734 68.5275ZM63.5423 57.4139C63.5423 59.1144 62.1568 60.4999 60.4563 60.4999H17.9155C16.2126 60.4999 14.8295 59.1144 14.8295 57.4139V52.1962C14.8295 50.4933 16.2126 49.1102 17.9155 49.1102H60.4563C62.1568 49.1102 63.5423 50.4933 63.5423 52.1962V57.4139ZM50.0113 47.6592V41.085H53.3759V47.6592H50.0113ZM29.8115 47.6592V41.085H48.5579V47.6592H29.8115ZM17.9155 39.6316C16.2126 39.6316 14.8295 38.246 14.8295 36.5456V31.3279C14.8295 29.625 16.2126 28.2419 17.9155 28.2419H60.4563C62.1568 28.2419 63.5423 29.6274 63.5423 31.3279V36.5456C63.5423 38.246 62.1568 39.6316 60.4563 39.6316H17.9155ZM28.3581 41.085V47.6592H24.9959V41.085H28.3581ZM64.5621 49.6649H64.2206C63.4043 48.4561 62.0211 47.6592 60.4563 47.6592H54.8293V41.085H60.4563C62.9562 41.085 64.9957 39.0478 64.9957 36.5456V31.3279C64.9957 28.8256 62.9586 26.7885 60.4563 26.7885H17.9155C15.4132 26.7885 13.3761 28.8256 13.3761 31.3279V36.5456C13.3761 39.0478 15.4108 41.085 17.9155 41.085H23.545V47.6592H17.9179C16.3531 47.6592 14.9699 48.4561 14.1536 49.6649H13.8121C7.00051 49.6649 1.45824 44.1226 1.45824 37.311C1.45824 30.606 6.91088 25.0662 13.6134 24.9596C13.8169 24.9572 14.0083 24.8676 14.1439 24.7174C14.2796 24.5648 14.345 24.3637 14.3256 24.1627C14.2844 23.746 14.2626 23.3245 14.2602 22.9079C14.2602 16.8158 18.6204 11.6877 24.6253 10.7139C24.8966 10.6703 25.1219 10.4741 25.2043 10.2077C26.7957 4.9706 31.5459 1.45097 37.0252 1.45097C42.1775 1.45097 46.8356 4.69688 48.6184 9.52699C48.7516 9.88792 49.1416 10.0817 49.5098 9.97028C50.6677 9.62146 51.874 9.44221 53.09 9.44221C59.9016 9.44221 65.4439 14.9845 65.4439 21.7961C65.4439 22.5882 65.3688 23.3851 65.2162 24.1602C65.1774 24.3613 65.2234 24.5672 65.347 24.7319C65.4681 24.8966 65.6522 25.0008 65.8557 25.0226C72.1634 25.6766 76.9208 30.9573 76.9208 37.3086C76.916 44.125 71.3737 49.6649 64.5621 49.6649ZM21.6604 31.2044C20.1537 31.2044 18.9256 32.43 18.9256 33.9367C18.9256 35.4434 20.1513 36.6691 21.6604 36.6691C23.1671 36.6691 24.3928 35.4434 24.3928 33.9367C24.3928 32.43 23.1671 31.2044 21.6604 31.2044ZM21.6604 35.2181C20.9555 35.2181 20.379 34.6441 20.379 33.9392C20.379 33.2343 20.9555 32.6577 21.6604 32.6577C22.3653 32.6577 22.9394 33.2318 22.9394 33.9392C22.9394 34.6441 22.3677 35.2181 21.6604 35.2181ZM30.4219 31.2044C28.9153 31.2044 27.6896 32.43 27.6896 33.9367C27.6896 35.4434 28.9153 36.6691 30.4219 36.6691C31.9286 36.6691 33.1567 35.4434 33.1543 33.9367C33.1567 32.43 31.931 31.2044 30.4219 31.2044ZM30.4219 35.2181C29.717 35.2181 29.143 34.6441 29.143 33.9392C29.143 33.2343 29.717 32.6577 30.4219 32.6577C31.1268 32.6577 31.7034 33.2318 31.7034 33.9392C31.7034 34.6441 31.1293 35.2181 30.4219 35.2181ZM39.1859 31.2044C37.6792 31.2044 36.4511 32.43 36.4511 33.9367C36.4511 35.4434 37.6768 36.6691 39.1859 36.6691C40.6926 36.6691 41.9183 35.4434 41.9183 33.9367C41.9183 32.43 40.6926 31.2044 39.1859 31.2044ZM39.1859 35.2181C38.481 35.2181 37.9045 34.6441 37.9045 33.9392C37.9045 33.2343 38.481 32.6577 39.1859 32.6577C39.8908 32.6577 40.4649 33.2318 40.4649 33.9392C40.4649 34.6441 39.8908 35.2181 39.1859 35.2181ZM47.9474 31.2044C46.4408 31.2044 45.2151 32.43 45.2151 33.9367C45.2151 35.4434 46.4408 36.6691 47.9474 36.6691C49.4541 36.6691 50.6822 35.4434 50.6798 33.9367C50.6798 32.43 49.4541 31.2044 47.9474 31.2044ZM47.9474 35.2181C47.2425 35.2181 46.6685 34.6441 46.6685 33.9392C46.6685 33.2343 47.2425 32.6577 47.9474 32.6577C48.6523 32.6577 49.2289 33.2318 49.2289 33.9392C49.2264 34.6441 48.6523 35.2181 47.9474 35.2181ZM56.709 31.2044C55.2023 31.2044 53.9742 32.43 53.9742 33.9367C53.9742 35.4434 55.1999 36.6691 56.709 36.6691C58.2157 36.6691 59.4414 35.4434 59.4414 33.9367C59.4414 32.43 58.2157 31.2044 56.709 31.2044ZM56.709 35.2181C56.0017 35.2181 55.4276 34.6441 55.4276 33.9392C55.4276 33.2343 56.0017 32.6577 56.709 32.6577C57.4139 32.6577 57.988 33.2318 57.988 33.9392C57.988 34.6441 57.4163 35.2181 56.709 35.2181ZM21.6604 52.0727C20.1537 52.0727 18.9256 53.2984 18.9256 54.805C18.9256 56.3117 20.1513 57.5374 21.6604 57.5374C23.1671 57.5374 24.3928 56.3117 24.3928 54.805C24.3928 53.2984 23.1671 52.0727 21.6604 52.0727ZM21.6604 56.0864C20.9555 56.0864 20.379 55.5124 20.379 54.8075C20.379 54.1026 20.9555 53.5285 21.6604 53.5285C22.3653 53.5285 22.9394 54.1026 22.9394 54.8075C22.9394 55.5124 22.3677 56.0864 21.6604 56.0864ZM30.4219 52.0727C28.9153 52.0727 27.6896 53.2984 27.6896 54.805C27.6896 56.3117 28.9153 57.5374 30.4219 57.5374C31.9286 57.5374 33.1567 56.3117 33.1543 54.805C33.1567 53.2984 31.931 52.0727 30.4219 52.0727ZM30.4219 56.0864C29.717 56.0864 29.143 55.5124 29.143 54.8075C29.143 54.1026 29.717 53.5285 30.4219 53.5285C31.1268 53.5285 31.7034 54.1026 31.7034 54.8075C31.7034 55.5124 31.1293 56.0864 30.4219 56.0864ZM39.1859 52.0727C37.6792 52.0727 36.4511 53.2984 36.4511 54.805C36.4511 56.3117 37.6768 57.5374 39.1859 57.5374C40.6926 57.5374 41.9183 56.3117 41.9183 54.805C41.9183 53.2984 40.6926 52.0727 39.1859 52.0727ZM39.1859 56.0864C38.481 56.0864 37.9045 55.5124 37.9045 54.8075C37.9045 54.1026 38.481 53.5285 39.1859 53.5285C39.8908 53.5285 40.4649 54.1026 40.4649 54.8075C40.4649 55.5124 39.8908 56.0864 39.1859 56.0864ZM47.9474 52.0727C46.4408 52.0727 45.2151 53.2984 45.2151 54.805C45.2151 56.3117 46.4408 57.5374 47.9474 57.5374C49.4541 57.5374 50.6822 56.3117 50.6798 54.805C50.6798 53.2984 49.4541 52.0727 47.9474 52.0727ZM47.9474 56.0864C47.2425 56.0864 46.6685 55.5124 46.6685 54.8075C46.6685 54.1026 47.2425 53.5285 47.9474 53.5285C48.6523 53.5285 49.2289 54.1026 49.2289 54.8075C49.2264 55.5124 48.6523 56.0864 47.9474 56.0864ZM56.709 52.0727C55.2023 52.0727 53.9742 53.2984 53.9742 54.805C53.9742 56.3117 55.1999 57.5374 56.709 57.5374C58.2157 57.5374 59.4414 56.3117 59.4414 54.805C59.4414 53.2984 58.2157 52.0727 56.709 52.0727ZM56.709 56.0864C56.0017 56.0864 55.4276 55.5124 55.4276 54.8075C55.4276 54.1026 56.0017 53.5285 56.709 53.5285C57.4139 53.5285 57.988 54.1026 57.988 54.8075C57.988 55.5124 57.4163 56.0864 56.709 56.0864ZM21.6604 78.4081C23.1671 78.4081 24.3928 77.1824 24.3928 75.6758C24.3928 74.1691 23.1671 72.9434 21.6604 72.9434C20.1537 72.9434 18.9256 74.1691 18.9256 75.6758C18.928 77.1824 20.1537 78.4081 21.6604 78.4081ZM21.6604 74.3944C22.3653 74.3944 22.9394 74.9685 22.9394 75.6758C22.9394 76.3831 22.3653 76.9548 21.6604 76.9548C20.9555 76.9548 20.379 76.3807 20.379 75.6758C20.3814 74.9685 20.9555 74.3944 21.6604 74.3944ZM30.4219 78.4081C31.9286 78.4081 33.1567 77.1824 33.1543 75.6758C33.1543 74.1691 31.9286 72.9434 30.4195 72.9434C28.9128 72.9434 27.6871 74.1691 27.6871 75.6758C27.692 77.1824 28.9177 78.4081 30.4219 78.4081ZM30.4219 74.3944C31.1268 74.3944 31.7034 74.9685 31.7034 75.6758C31.7034 76.3831 31.1293 76.9548 30.4219 76.9548C29.717 76.9548 29.143 76.3807 29.143 75.6758C29.143 74.9685 29.717 74.3944 30.4219 74.3944ZM39.1859 78.4081C40.6926 78.4081 41.9183 77.1824 41.9183 75.6758C41.9183 74.1691 40.6926 72.9434 39.1859 72.9434C37.6792 72.9434 36.4511 74.1691 36.4511 75.6758C36.4511 77.1824 37.6792 78.4081 39.1859 78.4081ZM39.1859 74.3944C39.8908 74.3944 40.4649 74.9685 40.4649 75.6758C40.4649 76.3831 39.8908 76.9548 39.1859 76.9548C38.481 76.9548 37.9045 76.3807 37.9045 75.6758C37.9045 74.9685 38.481 74.3944 39.1859 74.3944ZM47.9474 78.4081C49.4541 78.4081 50.6822 77.1824 50.6798 75.6758C50.6798 74.1691 49.4541 72.9434 47.945 72.9434C46.4383 72.9434 45.2126 74.1691 45.2126 75.6758C45.2151 77.1824 46.4408 78.4081 47.9474 78.4081ZM47.9474 74.3944C48.6523 74.3944 49.2289 74.9685 49.2289 75.6758C49.2289 76.3831 48.6548 76.9548 47.9474 76.9548C47.2401 76.9548 46.6685 76.3807 46.6685 75.6758C46.6685 74.9685 47.2425 74.3944 47.9474 74.3944ZM56.709 78.4081C58.2157 78.4081 59.4414 77.1824 59.4414 75.6758C59.4414 74.1691 58.2157 72.9434 56.709 72.9434C55.2023 72.9434 53.9742 74.1691 53.9742 75.6758C53.9766 77.1824 55.2023 78.4081 56.709 78.4081ZM56.709 74.3944C57.4139 74.3944 57.988 74.9685 57.988 75.6758C57.988 76.3831 57.4139 76.9548 56.709 76.9548C56.0017 76.9548 55.4276 76.3807 55.4276 75.6758C55.43 74.9685 56.0017 74.3944 56.709 74.3944Z" fill="white"/>
</svg>
