<svg width="110" height="132" viewBox="0 0 110 132" fill="none" xmlns="http://www.w3.org/2000/svg">
<path d="M77.8751 40.6882H31.89C28.3663 40.6882 25.606 37.7903 25.606 34.3602C25.606 30.8118 28.4837 28.0323 31.89 28.0323H77.8751C81.3401 28.0323 84.1591 30.9301 84.1591 34.3602C84.2766 37.7903 81.3988 40.6882 77.8751 40.6882ZM31.89 33.1183C31.3027 33.1183 30.7742 33.6505 30.7742 34.2419C30.7742 34.8333 31.3027 35.3656 31.89 35.3656H77.8751C78.4623 35.3656 78.9909 34.8333 78.9909 34.2419C78.9909 33.6505 78.4623 33.1183 77.8751 33.1183H31.89Z" fill="url(#paint0_linear_608_802)"/>
<path d="M77.1116 33.1183H32.6535C31.244 33.1183 30.0107 31.9946 30.0107 30.457V28.8602C30.0107 17.6828 37.528 7.74731 48.2755 4.73118C49.039 4.49462 49.8612 4.67205 50.4485 5.08603C51.1532 5.55914 51.5056 6.26882 51.5056 7.03764L52.504 24.6613C52.5627 26.0807 51.5056 27.3226 50.0374 27.3817C48.6279 27.4409 47.3946 26.3763 47.3358 24.8979L46.5136 10.7634C39.9947 13.8387 35.5312 20.3441 35.1789 27.6183H74.3513C73.9989 20.285 69.5355 13.7796 63.0166 10.7634L62.1943 24.8979C62.1356 26.3172 60.9023 27.4409 59.4928 27.3817C58.0833 27.3226 56.9674 26.0807 57.0262 24.6613L58.0246 7.03764C58.0833 6.26882 58.4944 5.5 59.0817 5.08603C59.7864 4.61291 60.4912 4.49462 61.2547 4.73118C72.0021 7.74731 79.5195 17.6828 79.5195 28.8602V30.457C79.7544 31.9946 78.5798 33.1183 77.1116 33.1183Z" fill="url(#paint1_linear_608_802)"/>
<path d="M59.8452 27.5591C59.7864 27.5591 59.7864 27.5591 59.669 27.5591C58.2595 27.5 57.1436 26.2581 57.2023 24.8387L58.3182 5.26345H51.5056L52.6215 24.8387C52.6802 26.2581 51.6231 27.5 50.1548 27.5591C48.7453 27.6183 47.512 26.4946 47.4533 25.0753L46.1612 2.77958C46.1025 2.0699 46.3962 1.36022 46.866 0.827962C47.3358 0.295704 48.0406 0 48.7453 0H61.0785C61.7832 0 62.488 0.295704 62.9578 0.827962C63.4864 1.36022 63.7213 2.01076 63.6626 2.77958L62.3705 25.0753C62.3118 26.4355 61.1959 27.5591 59.8452 27.5591Z" fill="url(#paint2_linear_608_802)"/>
<path d="M54.9119 72.2097C48.9215 72.2097 43.2248 69.8441 38.9375 65.5269C34.5916 61.2097 32.2424 55.4731 32.2424 49.2634V39.2097C32.2424 38.7366 32.2424 38.2043 32.3011 37.7903C32.3598 36.371 33.6519 35.3065 35.0614 35.3656C36.4709 35.4247 37.528 36.7258 37.4693 38.1452C37.4693 38.5 37.4106 38.914 37.4106 39.2688V49.3226C37.4106 54.1129 39.2312 58.4892 42.5787 61.8602C45.8676 65.172 50.2136 67.0054 54.9706 67.0054H55.0294C64.661 66.9462 72.472 59.0806 72.472 49.3817V39.0323C72.472 38.7366 72.472 38.5 72.472 38.2043C72.4132 36.785 73.5291 35.543 74.9386 35.4839C76.3481 35.4247 77.5814 36.5484 77.6401 37.9678C77.6401 38.3226 77.6401 38.7366 77.6401 39.0914V49.4409C77.6401 61.9785 67.48 72.2688 55.0294 72.2688C54.9706 72.2097 54.9706 72.2097 54.9119 72.2097Z" fill="url(#paint3_linear_608_802)"/>
<path d="M63.5451 95.8064C62.9578 95.8064 62.2531 95.5699 61.842 95.0968L39.8185 75.3441C38.7613 74.3387 38.6439 72.6828 39.5836 71.6183C40.582 70.5538 42.2264 70.4355 43.2835 71.3817L63.3102 89.3011L75.3497 74.7527C76.2306 73.629 77.8751 73.4516 79.0496 74.457C80.1655 75.3441 80.3417 77 79.3433 78.1828L65.5419 94.8602C65.0721 95.3925 64.426 95.7473 63.7213 95.7473C63.6626 95.8064 63.6038 95.8064 63.5451 95.8064Z" fill="url(#paint4_linear_608_802)"/>
<path d="M46.3374 95.8064C46.2787 95.8064 46.1612 95.8064 46.1025 95.8064C45.3978 95.7473 44.7517 95.4516 44.2819 94.9193L30.7154 78.5376C29.8345 77.414 29.9519 75.8172 31.0091 74.8118C32.1249 73.9247 33.7106 74.043 34.709 75.1075L46.5723 89.4785L53.2088 83.5645C53.2088 83.5645 53.2675 83.5645 53.2675 83.5054L67.5974 71.5C68.7133 70.6129 70.299 70.7312 71.2974 71.7957C72.1783 72.9194 72.0609 74.5161 70.945 75.5215L56.6151 87.5269L48.0406 95.1559C47.512 95.5699 46.9247 95.8064 46.3374 95.8064Z" fill="url(#paint5_linear_608_802)"/>
<path d="M49.039 132C48.9802 132 48.804 132 48.7453 132C47.3358 131.823 46.2787 130.581 46.5136 129.102L50.0961 97.8172L47.0422 91.6075C46.3374 90.3064 46.866 88.7097 48.2168 88.1183C49.5088 87.4086 51.0945 88.0591 51.6818 89.3011L55.0881 96.1613C55.323 96.6344 55.3817 97.1667 55.323 97.5806L51.5643 129.634C51.4469 131.054 50.331 132 49.039 132Z" fill="url(#paint6_linear_608_802)"/>
<path d="M60.8436 132C59.5515 132 58.4357 130.995 58.3182 129.634L54.5595 97.5806C54.5008 97.0484 54.5595 96.5753 54.7944 96.1613L58.2007 89.3011C58.9055 88 60.3737 87.4677 61.6658 88.1183C62.9578 88.8279 63.4864 90.3064 62.8404 91.6075L59.7864 97.8172L63.3689 129.102C63.5451 130.522 62.5467 131.823 61.1372 132C60.961 132 60.9023 132 60.8436 132Z" fill="url(#paint7_linear_608_802)"/>
<path d="M57.0849 99.9462H52.7389C51.3294 99.9462 50.0961 98.8226 50.0961 97.2849C50.0961 95.7473 51.212 94.6236 52.7389 94.6236H57.0849C58.4944 94.6236 59.7277 95.7473 59.7277 97.2849C59.7277 98.8226 58.4944 99.9462 57.0849 99.9462Z" fill="url(#paint8_linear_608_802)"/>
<path d="M41.4629 76.0538C40.0534 76.0538 38.8201 74.9301 38.8201 73.3925V64.4032C38.8201 62.9839 39.9359 61.7419 41.4629 61.7419C42.9899 61.7419 44.1057 62.8656 44.1057 64.4032V73.4516C44.1057 74.9301 42.8724 76.0538 41.4629 76.0538Z" fill="url(#paint9_linear_608_802)"/>
<path d="M107.24 132H2.64282C1.23332 132 0 130.876 0 129.339V100.952C0 92.0807 5.57929 84.0968 13.7427 80.9624L40.5232 70.9086C41.874 70.3763 43.401 71.086 43.8121 72.4462C44.3406 73.8064 43.6359 75.3441 42.2851 75.7581L15.622 85.9892C9.39669 88.3548 5.28564 94.3871 5.28564 101.011V126.737H104.714V101.011C104.714 94.328 100.486 88.2957 94.378 85.9892L68.4784 75.9355C67.1276 75.4032 66.4228 73.8656 66.9514 72.5054C67.48 71.1452 69.0069 70.4355 70.3577 70.9677L96.2573 81.0215C104.421 84.0968 110 92.1398 110 101.011V129.457C109.765 130.876 108.649 132 107.24 132Z" fill="url(#paint10_linear_608_802)"/>
<path d="M69.2418 76.0538C67.8323 76.0538 66.599 74.9301 66.599 73.3925V63.457C66.599 62.0376 67.7149 60.7957 69.2418 60.7957C70.6513 60.7957 71.8847 61.9194 71.8847 63.457V73.4516C71.8847 74.9301 70.6513 76.0538 69.2418 76.0538Z" fill="url(#paint11_linear_608_802)"/>
<path d="M21.7886 132C20.3791 132 19.1458 130.876 19.1458 129.339V106.511C19.1458 105.091 20.2616 103.849 21.7886 103.849C23.3155 103.849 24.4314 104.973 24.4314 106.511V129.398C24.4314 130.876 23.1981 132 21.7886 132Z" fill="url(#paint12_linear_608_802)"/>
<path d="M88.0352 132C86.6257 132 85.3924 130.876 85.3924 129.339V106.511C85.3924 105.091 86.5083 103.849 88.0352 103.849C89.4447 103.849 90.678 104.973 90.678 106.511V129.398C90.6193 130.876 89.5035 132 88.0352 132Z" fill="url(#paint13_linear_608_802)"/>
<defs>
<linearGradient id="paint0_linear_608_802" x1="55" y1="0" x2="55" y2="132" gradientUnits="userSpaceOnUse">
<stop stop-color="#26CB99"/>
<stop offset="1" stop-color="#238A6B"/>
</linearGradient>
<linearGradient id="paint1_linear_608_802" x1="55" y1="0" x2="55" y2="132" gradientUnits="userSpaceOnUse">
<stop stop-color="#26CB99"/>
<stop offset="1" stop-color="#238A6B"/>
</linearGradient>
<linearGradient id="paint2_linear_608_802" x1="55" y1="0" x2="55" y2="132" gradientUnits="userSpaceOnUse">
<stop stop-color="#26CB99"/>
<stop offset="1" stop-color="#238A6B"/>
</linearGradient>
<linearGradient id="paint3_linear_608_802" x1="55" y1="0" x2="55" y2="132" gradientUnits="userSpaceOnUse">
<stop stop-color="#26CB99"/>
<stop offset="1" stop-color="#238A6B"/>
</linearGradient>
<linearGradient id="paint4_linear_608_802" x1="55" y1="0" x2="55" y2="132" gradientUnits="userSpaceOnUse">
<stop stop-color="#26CB99"/>
<stop offset="1" stop-color="#238A6B"/>
</linearGradient>
<linearGradient id="paint5_linear_608_802" x1="55" y1="0" x2="55" y2="132" gradientUnits="userSpaceOnUse">
<stop stop-color="#26CB99"/>
<stop offset="1" stop-color="#238A6B"/>
</linearGradient>
<linearGradient id="paint6_linear_608_802" x1="55" y1="0" x2="55" y2="132" gradientUnits="userSpaceOnUse">
<stop stop-color="#26CB99"/>
<stop offset="1" stop-color="#238A6B"/>
</linearGradient>
<linearGradient id="paint7_linear_608_802" x1="55" y1="0" x2="55" y2="132" gradientUnits="userSpaceOnUse">
<stop stop-color="#26CB99"/>
<stop offset="1" stop-color="#238A6B"/>
</linearGradient>
<linearGradient id="paint8_linear_608_802" x1="55" y1="0" x2="55" y2="132" gradientUnits="userSpaceOnUse">
<stop stop-color="#26CB99"/>
<stop offset="1" stop-color="#238A6B"/>
</linearGradient>
<linearGradient id="paint9_linear_608_802" x1="55" y1="0" x2="55" y2="132" gradientUnits="userSpaceOnUse">
<stop stop-color="#26CB99"/>
<stop offset="1" stop-color="#238A6B"/>
</linearGradient>
<linearGradient id="paint10_linear_608_802" x1="55" y1="0" x2="55" y2="132" gradientUnits="userSpaceOnUse">
<stop stop-color="#26CB99"/>
<stop offset="1" stop-color="#238A6B"/>
</linearGradient>
<linearGradient id="paint11_linear_608_802" x1="55" y1="0" x2="55" y2="132" gradientUnits="userSpaceOnUse">
<stop stop-color="#26CB99"/>
<stop offset="1" stop-color="#238A6B"/>
</linearGradient>
<linearGradient id="paint12_linear_608_802" x1="55" y1="0" x2="55" y2="132" gradientUnits="userSpaceOnUse">
<stop stop-color="#26CB99"/>
<stop offset="1" stop-color="#238A6B"/>
</linearGradient>
<linearGradient id="paint13_linear_608_802" x1="55" y1="0" x2="55" y2="132" gradientUnits="userSpaceOnUse">
<stop stop-color="#26CB99"/>
<stop offset="1" stop-color="#238A6B"/>
</linearGradient>
</defs>
</svg>
