<svg width="138" height="134" viewBox="0 0 138 134" fill="none" xmlns="http://www.w3.org/2000/svg">
<path d="M82.7734 117.411C72.5559 120.723 61.5713 120.839 51.2861 117.744C41.0008 114.65 31.9042 108.491 25.2104 100.091C18.5167 91.6915 14.5443 81.4497 13.8236 70.7332C13.1028 60.0166 15.668 49.3352 21.1766 40.1146C26.6853 30.8941 34.8753 23.5731 44.6535 19.129C54.4317 14.6848 65.3329 13.329 75.9018 15.2424C86.4708 17.1558 96.2047 22.2474 103.804 29.8376C111.404 37.4278 116.507 47.1554 118.434 57.722L118.286 57.7489C116.365 47.2123 111.276 37.5124 103.698 29.9437C96.1203 22.3751 86.4141 17.2979 75.8751 15.39C65.3362 13.482 54.466 14.834 44.7156 19.2655C34.9652 23.697 26.7984 30.9972 21.3054 40.1916C15.8124 49.3859 13.2545 60.037 13.9732 70.7231C14.692 81.4092 18.653 91.6219 25.3278 99.9979C32.0025 108.374 41.0733 114.515 51.3293 117.601C61.5853 120.687 72.5387 120.571 82.7272 117.269L82.7734 117.411Z" stroke="url(#paint0_linear_608_748)" stroke-width="6" stroke-linejoin="round"/>
<circle cx="64.8138" cy="65.608" r="18.117" transform="rotate(6.56875 64.8138 65.608)" stroke="url(#paint1_linear_608_748)" stroke-width="6"/>
<path d="M128.648 117.153C129.959 118.166 131.843 117.926 132.857 116.616C133.871 115.305 133.63 113.421 132.32 112.407L128.648 117.153ZM79.2799 78.9577L128.648 117.153L132.32 112.407L82.9513 74.2122L79.2799 78.9577Z" fill="url(#paint2_linear_608_748)"/>
<defs>
<linearGradient id="paint0_linear_608_748" x1="116.718" y1="50.9143" x2="16.2762" y2="83.4668" gradientUnits="userSpaceOnUse">
<stop stop-color="#26CB99"/>
<stop offset="1" stop-color="#238A6B"/>
</linearGradient>
<linearGradient id="paint1_linear_608_748" x1="64.8138" y1="44.4909" x2="64.8138" y2="86.725" gradientUnits="userSpaceOnUse">
<stop stop-color="#26CB99"/>
<stop offset="1" stop-color="#238A6B"/>
</linearGradient>
<linearGradient id="paint2_linear_608_748" x1="104.269" y1="97.66" x2="103.657" y2="98.4509" gradientUnits="userSpaceOnUse">
<stop stop-color="#26CB99"/>
<stop offset="1" stop-color="#238A6B"/>
</linearGradient>
</defs>
</svg>
