<svg width="29" height="23" viewBox="0 0 29 23" fill="none" xmlns="http://www.w3.org/2000/svg">
<path d="M3.11633 22.2918C2.40614 22.2918 1.81363 22.0544 1.33879 21.5796C0.863958 21.1047 0.626028 20.5117 0.625 19.8005V3.19983C0.625 2.48964 0.862931 1.89712 1.33879 1.42229C1.81465 0.947454 2.40665 0.709524 3.11479 0.708496H25.8852C26.5944 0.708496 27.1864 0.946426 27.6612 1.42229C28.136 1.89815 28.374 2.49066 28.375 3.19983V19.802C28.375 20.5112 28.1371 21.1037 27.6612 21.5796C27.1853 22.0554 26.5933 22.2929 25.8852 22.2918H3.11633ZM14.5 11.679L2.16667 3.61454V19.802C2.16667 20.0785 2.25557 20.3056 2.43337 20.4835C2.61118 20.6613 2.83883 20.7502 3.11633 20.7502H25.8852C26.1617 20.7502 26.3888 20.6613 26.5666 20.4835C26.7444 20.3056 26.8333 20.078 26.8333 19.8005V3.613L14.5 11.679ZM14.5 9.9585L26.3585 2.25016H2.6415L14.5 9.9585ZM2.16667 3.61454V2.25016V19.802C2.16667 20.0785 2.25557 20.3056 2.43337 20.4835C2.61118 20.6613 2.83883 20.7502 3.11633 20.7502H2.16667V3.61454Z" fill="#26CB99"/>
</svg>
