<svg width="22" height="28" viewBox="0 0 22 28" fill="none" xmlns="http://www.w3.org/2000/svg">
<path fill-rule="evenodd" clip-rule="evenodd" d="M11 15.5C12.1935 15.5 13.3381 15.0259 14.182 14.182C15.0259 13.3381 15.5 12.1935 15.5 11C15.5 9.80653 15.0259 8.66193 14.182 7.81802C13.3381 6.97411 12.1935 6.5 11 6.5C9.80653 6.5 8.66193 6.97411 7.81802 7.81802C6.97411 8.66193 6.5 9.80653 6.5 11C6.5 12.1935 6.97411 13.3381 7.81802 14.182C8.66193 15.0259 9.80653 15.5 11 15.5ZM11 8C11.7956 8 12.5587 8.31607 13.1213 8.87868C13.6839 9.44129 14 10.2044 14 11C14 11.7956 13.6839 12.5587 13.1213 13.1213C12.5587 13.6839 11.7956 14 11 14C10.2044 14 9.44129 13.6839 8.87868 13.1213C8.31607 12.5587 8 11.7956 8 11C8 10.2044 8.31607 9.44129 8.87868 8.87868C9.44129 8.31607 10.2044 8 11 8Z" fill="#26CB99"/>
<path fill-rule="evenodd" clip-rule="evenodd" d="M0.5 11.1845C0.5 17.1875 6.8345 27.5 11 27.5C15.1655 27.5 21.5 17.1875 21.5 11.1845C21.5 5.2865 16.802 0.5 11 0.5C5.198 0.5 0.5 5.2865 0.5 11.1845ZM20 11.1845C20 16.4645 14.144 26 11 26C7.856 26 2 16.4645 2 11.1845C2 6.11 6.032 2 11 2C15.968 2 20 6.11 20 11.1845Z" fill="#26CB99"/>
</svg>
