<svg width="132" height="133" viewBox="0 0 132 133" fill="none" xmlns="http://www.w3.org/2000/svg">
<path d="M121.157 85.0344L85.0344 121.157C74.5183 131.674 57.5262 131.674 47.0101 121.157L10.8871 85.0344C0.370977 74.5183 0.370977 57.5262 10.8871 47.0101L47.0101 10.8871C57.5262 0.370977 74.5183 0.370977 85.0344 10.8871L121.157 47.0101C131.614 57.5262 131.614 74.5777 121.157 85.0344Z" stroke="url(#paint0_linear_608_784)" stroke-width="6" stroke-miterlimit="10"/>
<path d="M99.4971 43.6677L99.4979 43.6731C100.077 47.6678 98.8032 51.7756 95.8534 54.7258C94.0531 56.4968 91.9588 57.7066 89.5098 58.1892C87.0585 58.6723 84.2262 58.4317 80.9445 57.2596L80.7383 57.186L80.5835 57.3408L56.9965 80.9278L56.8421 81.0822L56.9151 81.288C58.0578 84.511 58.3134 87.3444 57.8445 89.8118C57.376 92.2769 56.1801 94.3992 54.3824 96.1969C51.434 99.1453 47.3254 100.363 43.384 99.8416L43.3829 99.8414C41.8239 99.6403 41.1737 97.7293 42.2762 96.6268L48.5145 90.3884L48.6159 90.2871V90.1438V83.846V83.5H48.2699H41.9721H41.8288L41.7274 83.6013L35.4891 89.8397C34.3866 90.9422 32.4756 90.292 32.2744 88.733L32.2745 88.733L32.2737 88.7277C31.6951 84.7349 33.0264 80.6261 35.919 77.7335C37.6885 75.9639 39.7822 74.7538 42.2393 74.271C44.6984 73.7878 47.5456 74.0286 50.8271 75.2005L51.0333 75.2741L51.1881 75.1193L74.775 51.5324L74.9295 51.378L74.8565 51.1721C73.7138 47.9492 73.4581 45.1157 73.9271 42.6483C74.3956 40.1833 75.5915 38.061 77.3892 36.2633C80.3376 33.3149 84.4462 32.0969 88.3876 32.6186L88.3887 32.6187C89.9477 32.8199 90.5979 34.7309 89.4954 35.8334L83.2571 42.0717L83.1557 42.173V42.3164V48.6141V48.9601H83.5017H89.7995H89.9438L90.0453 48.8576L96.2825 42.561C96.2828 42.5608 96.2831 42.5605 96.2833 42.5602C97.3859 41.4589 99.296 42.1091 99.4971 43.6677Z" fill="url(#paint1_linear_608_784)" stroke="url(#paint2_linear_608_784)" stroke-width="0.692"/>
<path d="M80.817 75L80.9682 75.1513L81.171 75.0836C81.4057 75.0054 81.6387 74.9241 81.8733 74.8423C83.2625 74.3575 84.7065 73.8537 86.8841 73.8537C94.0602 73.8537 99.906 79.6995 99.906 86.8756C99.906 94.0517 94.0602 99.8975 86.8841 99.8975C79.708 99.8975 73.8622 94.0517 73.8622 86.8756C73.8622 84.4672 74.4277 82.9483 74.9918 81.4329C75.024 81.3464 75.0562 81.26 75.0883 81.1733L75.1654 80.9653L75.0085 80.8085L69.7278 75.5277L75.5362 69.7193L80.817 75ZM79.8244 86.8756C79.8244 90.8117 83.0114 93.9353 86.8841 93.9353C90.7568 93.9353 93.9438 90.8117 93.9438 86.8756C93.9438 82.9395 90.7568 79.816 86.8841 79.816C83.0094 79.816 79.8244 83.0009 79.8244 86.8756Z" fill="url(#paint3_linear_608_784)" stroke="url(#paint4_linear_608_784)" stroke-width="0.692"/>
<path d="M56.9884 50.9291L56.9114 51.1371L57.0682 51.2939L62.349 56.5747L56.5405 62.3831L51.2598 57.1024L51.1086 56.9512L50.9057 57.0188C50.671 57.097 50.438 57.1783 50.2035 57.2601C48.8142 57.7449 47.3702 58.2487 45.1926 58.2487C38.0165 58.2487 32.1707 52.4029 32.1707 45.2268C32.1707 38.0507 38.0165 32.2049 45.1926 32.2049C52.3688 32.2049 58.2146 38.0507 58.2146 45.2268C58.2146 47.6352 57.6491 49.1542 57.0849 50.6695C57.0527 50.756 57.0205 50.8425 56.9884 50.9291ZM38.133 45.2268C38.133 49.1629 41.32 52.2865 45.1926 52.2865C49.0673 52.2865 52.2523 49.1015 52.2523 45.2268C52.2523 41.2907 49.0653 38.1671 45.1926 38.1671C41.318 38.1671 38.133 41.3521 38.133 45.2268Z" fill="url(#paint5_linear_608_784)" stroke="url(#paint6_linear_608_784)" stroke-width="0.692"/>
<defs>
<linearGradient id="paint0_linear_608_784" x1="66" y1="3" x2="66" y2="129.045" gradientUnits="userSpaceOnUse">
<stop stop-color="#26CB99"/>
<stop offset="1" stop-color="#238A6B"/>
</linearGradient>
<linearGradient id="paint1_linear_608_784" x1="65.8876" y1="32.1553" x2="65.8876" y2="100.305" gradientUnits="userSpaceOnUse">
<stop stop-color="#26CB99"/>
<stop offset="1" stop-color="#238A6B"/>
</linearGradient>
<linearGradient id="paint2_linear_608_784" x1="65.8876" y1="32.1553" x2="65.8876" y2="100.305" gradientUnits="userSpaceOnUse">
<stop stop-color="#26CB99"/>
<stop offset="1" stop-color="#238A6B"/>
</linearGradient>
<linearGradient id="paint3_linear_608_784" x1="84.7452" y1="69.23" x2="84.7452" y2="100.244" gradientUnits="userSpaceOnUse">
<stop stop-color="#26CB99"/>
<stop offset="1" stop-color="#238A6B"/>
</linearGradient>
<linearGradient id="paint4_linear_608_784" x1="84.7452" y1="69.23" x2="84.7452" y2="100.244" gradientUnits="userSpaceOnUse">
<stop stop-color="#26CB99"/>
<stop offset="1" stop-color="#238A6B"/>
</linearGradient>
<linearGradient id="paint5_linear_608_784" x1="47.3315" y1="31.8589" x2="47.3315" y2="62.8724" gradientUnits="userSpaceOnUse">
<stop stop-color="#26CB99"/>
<stop offset="1" stop-color="#238A6B"/>
</linearGradient>
<linearGradient id="paint6_linear_608_784" x1="47.3315" y1="31.8589" x2="47.3315" y2="62.8724" gradientUnits="userSpaceOnUse">
<stop stop-color="#26CB99"/>
<stop offset="1" stop-color="#238A6B"/>
</linearGradient>
</defs>
</svg>
