<svg width="48" height="64" viewBox="0 0 48 64" fill="none" xmlns="http://www.w3.org/2000/svg">
<path d="M9.52098 59.5901C8.98025 59.5901 8.55539 59.1653 8.55539 58.6245V41.2439C8.55539 40.7032 8.98025 40.2783 9.52098 40.2783C10.0617 40.2783 10.4866 40.7032 10.4866 41.2439V58.6245C10.4866 59.1653 10.0617 59.5901 9.52098 59.5901Z" fill="url(#paint0_linear_608_819)"/>
<path d="M16.2768 47.0365C16.1502 47.0381 16.0246 47.0131 15.9082 46.9632C15.7918 46.9133 15.6871 46.8396 15.6009 46.7468L9.51766 40.6636L3.43445 46.7468C3.04821 47.1331 2.44955 47.1331 2.06331 46.7468C1.67708 46.3606 1.67708 45.7619 2.06331 45.3757L8.82244 38.6166C9.20867 38.2303 9.80734 38.2303 10.1936 38.6166L16.9527 45.3757C17.3389 45.7619 17.3389 46.3606 16.9527 46.7468C16.7596 46.94 16.5085 47.0365 16.2768 47.0365Z" fill="url(#paint1_linear_608_819)"/>
<path d="M36.8193 3.86228C36.2786 3.86228 35.8537 4.28714 35.8537 4.82787V22.2085C35.8537 22.7492 36.2786 23.1741 36.8193 23.1741C37.3601 23.1741 37.7849 22.7492 37.7849 22.2085V4.82787C37.7849 4.28714 37.3601 3.86228 36.8193 3.86228Z" fill="url(#paint2_linear_608_819)"/>
<path d="M43.5856 16.4156C43.4589 16.4141 43.3334 16.4391 43.217 16.4889C43.1006 16.5388 42.9959 16.6125 42.9097 16.7053L36.8264 22.7885L30.7432 16.7053C30.357 16.3191 29.7583 16.3191 29.3721 16.7053C28.9859 17.0915 28.9859 17.6902 29.3721 18.0764L36.1312 24.8356C36.5175 25.2218 37.1161 25.2218 37.5024 24.8356L44.2615 18.0764C44.6477 17.6902 44.6477 17.0915 44.2615 16.7053C44.0684 16.5122 43.8173 16.4156 43.5856 16.4156Z" fill="url(#paint3_linear_608_819)"/>
<rect x="0.666717" y="3.97604" width="20.1854" height="20.1854" stroke="url(#paint4_linear_608_819)" stroke-width="1.33343"/>
<rect x="27.1479" y="38.7378" width="20.1854" height="20.1854" stroke="url(#paint5_linear_608_819)" stroke-width="1.33343"/>
<defs>
<linearGradient id="paint0_linear_608_819" x1="9.52098" y1="40.2783" x2="9.52098" y2="59.5901" gradientUnits="userSpaceOnUse">
<stop stop-color="#26CB99"/>
<stop offset="1" stop-color="#238A6B"/>
</linearGradient>
<linearGradient id="paint1_linear_608_819" x1="9.50801" y1="38.3269" x2="9.50801" y2="47.0366" gradientUnits="userSpaceOnUse">
<stop stop-color="#26CB99"/>
<stop offset="1" stop-color="#238A6B"/>
</linearGradient>
<linearGradient id="paint2_linear_608_819" x1="36.8193" y1="23.1741" x2="36.8193" y2="3.86228" gradientUnits="userSpaceOnUse">
<stop stop-color="#26CB99"/>
<stop offset="1" stop-color="#238A6B"/>
</linearGradient>
<linearGradient id="paint3_linear_608_819" x1="36.8168" y1="25.1252" x2="36.8168" y2="16.4156" gradientUnits="userSpaceOnUse">
<stop stop-color="#26CB99"/>
<stop offset="1" stop-color="#238A6B"/>
</linearGradient>
<linearGradient id="paint4_linear_608_819" x1="10.7594" y1="3.30933" x2="10.7594" y2="24.8282" gradientUnits="userSpaceOnUse">
<stop stop-color="#26CB99"/>
<stop offset="1" stop-color="#238A6B"/>
</linearGradient>
<linearGradient id="paint5_linear_608_819" x1="37.2406" y1="38.071" x2="37.2406" y2="59.5899" gradientUnits="userSpaceOnUse">
<stop stop-color="#26CB99"/>
<stop offset="1" stop-color="#238A6B"/>
</linearGradient>
</defs>
</svg>
