<svg width="62" height="66" viewBox="0 0 62 66" fill="none" xmlns="http://www.w3.org/2000/svg">
<path d="M30.5561 65.8998C13.7041 65.8998 0 52.1957 0 35.3437C0 34.9338 0.190335 34.5531 0.51244 34.3042C0.834545 34.0553 1.25914 33.9821 1.65445 34.0846C20.5708 39.2968 40.556 39.2968 59.4577 34.0846C59.853 33.9675 60.263 34.0553 60.5997 34.3042C60.9218 34.5531 61.1122 34.9338 61.1122 35.3437C61.1122 52.1957 47.408 65.8998 30.5561 65.8998ZM2.66469 37.0567C3.5578 51.6686 15.7246 63.2937 30.5561 63.2937C45.3876 63.2937 57.569 51.6686 58.4475 37.0567C40.1607 41.8005 20.9515 41.8005 2.66469 37.0567Z" fill="url(#paint0_linear_608_1264)"/>
<path d="M30.554 52.1957C21.5204 52.1957 12.4868 51.0977 3.70213 48.9161C2.99936 48.7404 2.57476 48.0377 2.75046 47.3349C2.92615 46.6321 3.62893 46.2075 4.3317 46.3832C21.4911 50.6584 39.6315 50.6584 56.7909 46.3832C57.4937 46.2075 58.1965 46.6321 58.3722 47.3349C58.5479 48.0377 58.1233 48.7404 57.4205 48.9161C48.6212 51.0977 39.5876 52.1957 30.554 52.1957Z" fill="url(#paint1_linear_608_1264)"/>
<path d="M30.5542 65.8998C28.7387 65.8998 26.8939 65.7388 25.0784 65.402C24.8588 65.3581 24.6392 65.2556 24.4635 65.1092C19.178 60.6437 15.7667 50.5266 15.7667 39.3115C15.7667 39.0919 15.7667 38.8723 15.7667 38.6526V38.4477C15.7667 38.0816 15.9277 37.7302 16.2205 37.4813C16.4987 37.2324 16.8647 37.13 17.2308 37.1739C26.074 38.272 35.0198 38.272 43.863 37.1739C44.2291 37.13 44.5951 37.2471 44.8733 37.4813C45.1514 37.7302 45.3125 38.067 45.3271 38.4477V38.6526C45.3271 38.8723 45.3271 39.0919 45.3271 39.3115C45.3271 50.5266 41.9158 60.6583 36.6303 65.1092C36.4546 65.2556 36.2496 65.3581 36.0154 65.402C34.2145 65.7388 32.3697 65.8998 30.5542 65.8998ZM25.8837 62.8984C29.0023 63.4255 32.0915 63.4255 35.2247 62.8984C39.7049 58.8721 42.6185 49.9556 42.7357 39.9264C34.6537 40.8195 26.4693 40.8195 18.3728 39.9264C18.4899 49.9556 21.4035 58.8721 25.8837 62.8984Z" fill="url(#paint2_linear_608_1264)"/>
<path d="M30.557 32.0641C27.2628 32.0641 24.5688 29.3848 24.5688 26.0759C24.5688 22.7816 27.2481 20.0876 30.557 20.0876C33.8659 20.0876 36.5452 22.767 36.5452 26.0759C36.5452 29.3701 33.8513 32.0641 30.557 32.0641ZM30.557 22.6938C28.6976 22.6938 27.1749 24.2018 27.1749 26.0759C27.1749 27.9353 28.6829 29.458 30.557 29.458C32.4311 29.458 33.9391 27.9499 33.9391 26.0759C33.9391 24.2164 32.4164 22.6938 30.557 22.6938Z" fill="url(#paint3_linear_608_1264)"/>
<path d="M10.9652 25.4171C7.67096 25.4171 4.97699 22.7377 4.97699 19.4288C4.97699 16.1346 7.65632 13.4406 10.9652 13.4406C14.2595 13.4406 16.9535 16.1199 16.9535 19.4288C16.9535 22.7377 14.2595 25.4171 10.9652 25.4171ZM10.9652 16.0614C9.10579 16.0614 7.58311 17.5694 7.58311 19.4435C7.58311 21.3029 9.09115 22.8256 10.9652 22.8256C12.8246 22.8256 14.3473 21.3176 14.3473 19.4435C14.3473 17.5694 12.8246 16.0614 10.9652 16.0614Z" fill="url(#paint4_linear_608_1264)"/>
<path d="M50.1489 25.4171C46.8546 25.4171 44.1606 22.7377 44.1606 19.4288C44.1606 16.1346 46.84 13.4406 50.1489 13.4406C53.4578 13.4406 56.1371 16.1199 56.1371 19.4288C56.1371 22.7377 53.4431 25.4171 50.1489 25.4171ZM50.1489 16.0614C48.2894 16.0614 46.7668 17.5694 46.7668 19.4435C46.7668 21.3029 48.2748 22.8256 50.1489 22.8256C52.0083 22.8256 53.531 21.3176 53.531 19.4435C53.531 17.5694 52.0083 16.0614 50.1489 16.0614Z" fill="url(#paint5_linear_608_1264)"/>
<path d="M30.557 11.9765C27.2628 11.9765 24.5688 9.29713 24.5688 5.98823C24.5688 2.69397 27.2481 0 30.557 0C33.8659 0 36.5452 2.67933 36.5452 5.98823C36.5452 9.29713 33.8513 11.9765 30.557 11.9765ZM30.557 2.62077C28.6976 2.62077 27.1749 4.1288 27.1749 6.00287C27.1749 7.8623 28.6829 9.38498 30.557 9.38498C32.4311 9.38498 33.9391 7.87694 33.9391 6.00287C33.9391 4.1288 32.4164 2.62077 30.557 2.62077Z" fill="url(#paint6_linear_608_1264)"/>
<path d="M10.9677 38.8576C10.2503 38.8576 9.66467 38.272 9.66467 37.5546V24.114C9.66467 23.3966 10.2503 22.8109 10.9677 22.8109C11.6852 22.8109 12.2708 23.3966 12.2708 24.114V37.5546C12.2708 38.272 11.6852 38.8576 10.9677 38.8576Z" fill="url(#paint7_linear_608_1264)"/>
<path d="M50.146 38.8576C49.4286 38.8576 48.843 38.272 48.843 37.5546V24.114C48.843 23.3966 49.4286 22.8109 50.146 22.8109C50.8634 22.8109 51.4491 23.3966 51.4491 24.114V37.5546C51.4491 38.272 50.8634 38.8576 50.146 38.8576Z" fill="url(#paint8_linear_608_1264)"/>
<path d="M30.5542 40.6145C29.8367 40.6145 29.2511 40.0289 29.2511 39.3114V30.761C29.2511 30.0436 29.8367 29.4579 30.5542 29.4579C31.2716 29.4579 31.8572 30.0436 31.8572 30.761V39.3114C31.8572 40.0289 31.2716 40.6145 30.5542 40.6145Z" fill="url(#paint9_linear_608_1264)"/>
<path d="M14.215 17.3791C13.7757 17.3791 13.3658 17.1595 13.1169 16.7788C12.7362 16.1639 12.9119 15.3586 13.5268 14.9779L25.7961 7.21813C26.411 6.83746 27.2163 7.01315 27.597 7.62808C27.9776 8.24301 27.8019 9.04827 27.187 9.42894L14.9177 17.1888C14.6981 17.3059 14.4492 17.3791 14.215 17.3791Z" fill="url(#paint10_linear_608_1264)"/>
<path d="M46.8957 17.3791C46.6615 17.3791 46.4126 17.3205 46.2076 17.1741L33.9383 9.41429C33.3234 9.03362 33.1477 8.22836 33.5284 7.61343C33.909 6.9985 34.7143 6.82281 35.3292 7.20348L47.5985 14.9633C48.2134 15.344 48.3891 16.1492 48.0085 16.7641C47.7449 17.1595 47.3203 17.3791 46.8957 17.3791Z" fill="url(#paint11_linear_608_1264)"/>
<path d="M30.5542 18.0379C29.8367 18.0379 29.2511 17.4523 29.2511 16.7349V10.6734C29.2511 9.95601 29.8367 9.37036 30.5542 9.37036C31.2716 9.37036 31.8572 9.95601 31.8572 10.6734V16.7349C31.8572 17.4669 31.2716 18.0379 30.5542 18.0379Z" fill="url(#paint12_linear_608_1264)"/>
<path d="M30.5542 65.8999C29.8367 65.8999 29.2511 65.3142 29.2511 64.5968V46.6614C29.2511 45.944 29.8367 45.3583 30.5542 45.3583C31.2716 45.3583 31.8572 45.944 31.8572 46.6614V64.5968C31.8572 65.3142 31.2716 65.8999 30.5542 65.8999Z" fill="url(#paint13_linear_608_1264)"/>
<defs>
<linearGradient id="paint0_linear_608_1264" x1="30.5561" y1="34.0333" x2="30.5561" y2="65.8998" gradientUnits="userSpaceOnUse">
<stop stop-color="#26CB99"/>
<stop offset="1" stop-color="#238A6B"/>
</linearGradient>
<linearGradient id="paint1_linear_608_1264" x1="30.5613" y1="46.3436" x2="30.5613" y2="52.1957" gradientUnits="userSpaceOnUse">
<stop stop-color="#26CB99"/>
<stop offset="1" stop-color="#238A6B"/>
</linearGradient>
<linearGradient id="paint2_linear_608_1264" x1="30.5469" y1="37.164" x2="30.5469" y2="65.8998" gradientUnits="userSpaceOnUse">
<stop stop-color="#26CB99"/>
<stop offset="1" stop-color="#238A6B"/>
</linearGradient>
<linearGradient id="paint3_linear_608_1264" x1="30.557" y1="20.0876" x2="30.557" y2="32.0641" gradientUnits="userSpaceOnUse">
<stop stop-color="#26CB99"/>
<stop offset="1" stop-color="#238A6B"/>
</linearGradient>
<linearGradient id="paint4_linear_608_1264" x1="10.9652" y1="13.4406" x2="10.9652" y2="25.4171" gradientUnits="userSpaceOnUse">
<stop stop-color="#26CB99"/>
<stop offset="1" stop-color="#238A6B"/>
</linearGradient>
<linearGradient id="paint5_linear_608_1264" x1="50.1489" y1="13.4406" x2="50.1489" y2="25.4171" gradientUnits="userSpaceOnUse">
<stop stop-color="#26CB99"/>
<stop offset="1" stop-color="#238A6B"/>
</linearGradient>
<linearGradient id="paint6_linear_608_1264" x1="30.557" y1="0" x2="30.557" y2="11.9765" gradientUnits="userSpaceOnUse">
<stop stop-color="#26CB99"/>
<stop offset="1" stop-color="#238A6B"/>
</linearGradient>
<linearGradient id="paint7_linear_608_1264" x1="10.9677" y1="22.8109" x2="10.9677" y2="38.8576" gradientUnits="userSpaceOnUse">
<stop stop-color="#26CB99"/>
<stop offset="1" stop-color="#238A6B"/>
</linearGradient>
<linearGradient id="paint8_linear_608_1264" x1="50.146" y1="22.8109" x2="50.146" y2="38.8576" gradientUnits="userSpaceOnUse">
<stop stop-color="#26CB99"/>
<stop offset="1" stop-color="#238A6B"/>
</linearGradient>
<linearGradient id="paint9_linear_608_1264" x1="30.5542" y1="29.4579" x2="30.5542" y2="40.6145" gradientUnits="userSpaceOnUse">
<stop stop-color="#26CB99"/>
<stop offset="1" stop-color="#238A6B"/>
</linearGradient>
<linearGradient id="paint10_linear_608_1264" x1="20.3569" y1="7.01782" x2="20.3569" y2="17.3791" gradientUnits="userSpaceOnUse">
<stop stop-color="#26CB99"/>
<stop offset="1" stop-color="#238A6B"/>
</linearGradient>
<linearGradient id="paint11_linear_608_1264" x1="40.7684" y1="7.00317" x2="40.7684" y2="17.3791" gradientUnits="userSpaceOnUse">
<stop stop-color="#26CB99"/>
<stop offset="1" stop-color="#238A6B"/>
</linearGradient>
<linearGradient id="paint12_linear_608_1264" x1="30.5542" y1="9.37036" x2="30.5542" y2="18.0379" gradientUnits="userSpaceOnUse">
<stop stop-color="#26CB99"/>
<stop offset="1" stop-color="#238A6B"/>
</linearGradient>
<linearGradient id="paint13_linear_608_1264" x1="30.5542" y1="45.3583" x2="30.5542" y2="65.8999" gradientUnits="userSpaceOnUse">
<stop stop-color="#26CB99"/>
<stop offset="1" stop-color="#238A6B"/>
</linearGradient>
</defs>
</svg>
