<svg width="66" height="66" viewBox="0 0 66 66" fill="none" xmlns="http://www.w3.org/2000/svg">
<path fill-rule="evenodd" clip-rule="evenodd" d="M52.75 59.8884L60.5683 51.7902C60.8482 51.5103 60.9682 51.1504 60.9682 50.7505C60.9682 50.3506 60.8082 50.0106 60.5483 49.7507L55.0295 44.4519C55.8293 42.9322 56.4692 41.3126 56.9291 39.6529L64.5874 39.493C65.3872 39.493 66.0271 38.8131 65.9871 38.0333L65.7671 26.7758C65.7671 26.3759 65.6072 26.036 65.3472 25.776C65.0673 25.4961 64.7074 25.3561 64.3075 25.3761L56.6492 25.5361C56.1293 23.9164 55.4694 22.3368 54.6096 20.8371L59.9484 15.3184C60.2284 15.0384 60.3483 14.6785 60.3483 14.2786C60.3483 13.8787 60.1884 13.5388 59.9284 13.2788L51.8102 5.44057C51.5303 5.16063 51.1704 5.02066 50.7705 5.04065C50.3706 5.04065 50.0306 5.20062 49.7707 5.46056L44.4719 10.9593C42.9522 10.1595 41.3326 9.51966 39.6729 9.05976L39.493 1.40147C39.493 0.601644 38.8131 -0.0382133 38.0333 0.00177777L26.7558 0.221728C26.3559 0.221728 26.016 0.381693 25.756 0.641635C25.4761 0.921572 25.3561 1.28149 25.3561 1.6814L25.5161 9.3397C23.8765 9.85958 22.2768 10.5594 20.7971 11.3792L15.2784 6.08042C14.6985 5.54054 13.8187 5.54054 13.2388 6.12041L5.40057 14.2386C5.12064 14.5185 4.98067 14.8785 5.00066 15.2784C5.00066 15.6783 5.16063 16.0182 5.42057 16.2781L10.9193 21.577C10.1195 23.0966 9.47967 24.7163 9.01977 26.3759L1.40147 26.5359C0.601644 26.5359 -0.0382133 27.2157 0.00177777 27.9955L0.221728 39.253C0.221728 39.6129 0.381694 39.9929 0.641636 40.2528C0.901578 40.5127 1.28149 40.6727 1.6814 40.6527L9.3397 40.4928C9.85958 42.1324 10.5194 43.732 11.3792 45.2117L6.08042 50.7305C5.80049 51.0104 5.68051 51.3703 5.68051 51.7702C5.68051 52.1702 5.84048 52.5101 6.10042 52.77L14.1786 60.5883C14.7585 61.1282 15.6783 61.1282 16.2182 60.5483L21.517 55.0295C23.0366 55.8293 24.6563 56.4692 26.3159 56.9291L26.4759 64.5874C26.4759 65.3872 27.1157 65.9871 27.9156 65.9871H27.9555L39.213 65.7671C39.613 65.7671 39.9529 65.6072 40.2128 65.3472C40.4928 65.0673 40.6127 64.7074 40.6127 64.3074L40.4528 56.6492C42.0924 56.1293 43.692 55.4294 45.1717 54.6096L50.6905 59.9484C50.9704 60.2284 51.3303 60.3483 51.7303 60.3483C52.1102 60.3083 52.4901 60.1484 52.75 59.8884ZM46.4114 51.7702C45.9315 51.3103 45.1917 51.2304 44.6518 51.5903C42.8122 52.75 40.8127 53.6298 38.6732 54.1897C38.0333 54.3697 37.6134 54.9495 37.6134 55.5894L37.7334 62.9078L29.3352 63.0677L29.2153 55.7494C29.2153 55.0695 28.7354 54.5296 28.0955 54.3697C25.956 53.8898 23.9164 53.0899 22.0169 51.9502C21.7969 51.8302 21.537 51.7702 21.277 51.7702C20.9171 51.7702 20.5172 51.9302 20.2373 52.1901L15.1384 57.469L9.09975 51.6503L14.1786 46.3914C14.6385 45.9115 14.7185 45.1717 14.3586 44.6318C13.1988 42.7922 12.319 40.7927 11.7592 38.6532C11.5792 38.0133 10.9993 37.5534 10.3595 37.5934L3.0411 37.7134L2.88114 29.3152L10.1795 29.1953C10.8594 29.1953 11.3992 28.7354 11.5592 28.0755C12.0391 25.936 12.8389 23.8965 13.9787 21.9969C14.3186 21.417 14.2186 20.6772 13.7387 20.2373L8.45989 15.1384L14.2786 9.09975L19.5574 14.1986C20.0373 14.6585 20.7372 14.7385 21.317 14.3786C23.1566 13.2188 25.1562 12.339 27.2957 11.7792C27.9356 11.5992 28.3555 11.0193 28.3555 10.3795L28.2355 3.0611L36.6536 2.90113L36.7736 10.2195C36.7736 10.8994 37.2535 11.4392 37.8933 11.5992C40.0329 12.0791 42.0724 12.8789 43.972 14.0187C44.5519 14.3586 45.2917 14.2586 45.7316 13.7787L50.8305 8.49988L56.8691 14.3186L51.7902 19.5974C51.3303 20.0773 51.2504 20.7771 51.6103 21.357C52.79 23.2166 53.6498 25.2362 54.2297 27.3357C54.4097 27.9755 54.9895 28.3955 55.6294 28.3955L62.9478 28.2755L63.1077 36.6736L55.7694 36.7936C55.0895 36.7936 54.5496 37.2735 54.3897 37.9133C53.9098 40.0529 53.11 42.0924 52.0102 43.992C51.6703 44.5718 51.7902 45.2717 52.2501 45.7316L57.529 50.8305L51.7103 56.8691L46.4114 51.7702ZM32.9944 13.5588C22.2568 13.5588 13.5388 22.2768 13.5388 33.0144C13.5388 43.752 22.2568 52.4701 32.9944 52.4701C43.732 52.4701 52.4501 43.752 52.4501 33.0144C52.4501 22.2768 43.732 13.5588 32.9944 13.5588ZM40.3128 37.0735C40.4128 35.7338 40.4728 34.3941 40.4728 33.0144C40.4728 31.6347 40.4128 30.295 40.3128 28.9553C46.3914 29.8951 49.6107 31.8547 49.6107 33.0144C49.6107 34.1742 46.3515 36.1537 40.3128 37.0735ZM32.9944 49.6107C31.8347 49.6107 29.8751 46.3714 28.9353 40.3128C30.275 40.4128 31.6147 40.4728 32.9944 40.4728C34.3741 40.4728 35.7138 40.4128 37.0535 40.3128C36.1337 46.3714 34.1542 49.6107 32.9944 49.6107ZM32.9944 37.5934C31.4148 37.5934 29.9351 37.5334 28.5954 37.4134C28.4754 36.0338 28.4154 34.5741 28.4154 33.0144C28.4154 31.4348 28.4754 29.9551 28.5954 28.6154C29.9751 28.4954 31.4348 28.4354 32.9944 28.4354C34.5541 28.4354 36.0537 28.4954 37.3934 28.6154C37.5134 29.9951 37.5734 31.4548 37.5734 33.0144C37.5734 34.5741 37.5134 36.0737 37.3934 37.4134C36.0338 37.5334 34.5741 37.5934 32.9944 37.5934ZM16.3981 33.0144C16.3981 31.8547 19.6374 29.8951 25.6961 28.9553C25.5961 30.295 25.5361 31.6347 25.5361 33.0144C25.5361 34.3941 25.5961 35.7338 25.6961 37.0735C19.6374 36.1137 16.3981 34.1742 16.3981 33.0144ZM32.9944 16.4181C34.1542 16.4181 36.1137 19.6574 37.0535 25.7161C35.7138 25.6161 34.3741 25.5561 32.9944 25.5561C31.6147 25.5561 30.275 25.6161 28.9353 25.7161C29.8751 19.6574 31.8347 16.4181 32.9944 16.4181ZM49.0109 28.5954C46.7514 27.3757 43.5521 26.5159 40.0129 26.036C39.533 22.4968 38.6732 19.3175 37.4534 17.038C43.0322 18.5776 47.4512 22.9767 49.0109 28.5954ZM28.5754 17.018C27.3557 19.2775 26.4959 22.4768 26.016 26.016C22.4768 26.4959 19.2975 27.3557 17.018 28.5754C18.5576 22.9767 22.9967 18.5776 28.5754 17.018ZM17.018 37.4734C19.2775 38.6932 22.4768 39.553 26.016 40.0329C26.4959 43.5721 27.3557 46.7714 28.5754 49.0309C22.9967 47.4312 18.5576 43.0522 17.018 37.4734ZM37.4534 48.9909C38.6732 46.7314 39.533 43.5321 40.0129 39.9929C43.5521 39.513 46.7514 38.6532 49.0109 37.4334C47.4512 43.0522 43.0322 47.4312 37.4534 48.9909Z" fill="url(#paint0_linear_608_1279)"/>
<defs>
<linearGradient id="paint0_linear_608_1279" x1="32.9944" y1="0" x2="32.9944" y2="65.9871" gradientUnits="userSpaceOnUse">
<stop stop-color="#26CB99"/>
<stop offset="1" stop-color="#238A6B"/>
</linearGradient>
</defs>
</svg>
