<svg width="150" height="135" viewBox="0 0 150 135" fill="none" xmlns="http://www.w3.org/2000/svg">
<rect width="135" height="135" fill="black"/>
<path d="M45.1818 106V99.5C45.1818 90.8805 48.5341 82.614 54.5011 76.519C60.4682 70.4241 68.5613 67 77 67M77 67C85.4387 67 93.5318 70.4241 99.4989 76.519C105.466 82.614 108.818 90.8805 108.818 99.5V106M77 67C82.0632 67 86.9191 64.9455 90.4993 61.2886C94.0796 57.6316 96.0909 52.6717 96.0909 47.5C96.0909 42.3283 94.0796 37.3684 90.4993 33.7114C86.9191 30.0545 82.0632 28 77 28C71.9368 28 67.0809 30.0545 63.5007 33.7114C59.9204 37.3684 57.9091 42.3283 57.9091 47.5C57.9091 52.6717 59.9204 57.6316 63.5007 61.2886C67.0809 64.9455 71.9368 67 77 67ZM7 106V99.5C7 94.3283 9.01136 89.3684 12.5916 85.7114C16.1718 82.0545 21.0277 80 26.0909 80M26.0909 80C29.4664 80 32.7036 78.6304 35.0904 76.1924C37.4773 73.7544 38.8182 70.4478 38.8182 67C38.8182 63.5522 37.4773 60.2456 35.0904 57.8076C32.7036 55.3696 29.4664 54 26.0909 54C22.7154 54 19.4782 55.3696 17.0914 57.8076C14.7045 60.2456 13.3636 63.5522 13.3636 67C13.3636 70.4478 14.7045 73.7544 17.0914 76.1924C19.4782 78.6304 22.7154 80 26.0909 80ZM147 106V99.5C147 94.3283 144.989 89.3684 141.408 85.7114C137.828 82.0545 132.972 80 127.909 80M127.909 80C131.285 80 134.522 78.6304 136.909 76.1924C139.295 73.7544 140.636 70.4478 140.636 67C140.636 63.5522 139.295 60.2456 136.909 57.8076C134.522 55.3696 131.285 54 127.909 54C124.534 54 121.296 55.3696 118.91 57.8076C116.523 60.2456 115.182 63.5522 115.182 67C115.182 70.4478 116.523 73.7544 118.91 76.1924C121.296 78.6304 124.534 80 127.909 80Z" stroke="url(#paint0_linear_608_766)" stroke-width="6" stroke-linecap="round" stroke-linejoin="round"/>
<defs>
<linearGradient id="paint0_linear_608_766" x1="77" y1="28" x2="77" y2="106" gradientUnits="userSpaceOnUse">
<stop stop-color="#26CB99"/>
<stop offset="1" stop-color="#238A6B"/>
</linearGradient>
</defs>
</svg>
