<svg width="28" height="28" viewBox="0 0 28 28" fill="none" xmlns="http://www.w3.org/2000/svg">
<path d="M26.9096 19.433L20.0849 16.3791C19.8203 16.2646 19.5314 16.2178 19.2442 16.2431C18.957 16.2683 18.6806 16.3647 18.4401 16.5236C18.4209 16.5358 18.4025 16.5493 18.3852 16.5641L14.8008 19.6195C14.721 19.6681 14.6305 19.6963 14.5372 19.7016C14.4439 19.7069 14.3508 19.6891 14.266 19.6498C11.9188 18.5167 9.48927 16.1059 8.35615 13.7862C8.31607 13.7021 8.29746 13.6093 8.302 13.5162C8.30654 13.4232 8.33408 13.3327 8.38216 13.2529L11.4462 9.60922C11.4607 9.59188 11.4737 9.57309 11.4867 9.5543C11.6451 9.31409 11.7412 9.03825 11.7665 8.75163C11.7917 8.46501 11.7452 8.17661 11.6312 7.91243L8.5715 1.09922C8.42379 0.754148 8.16811 0.466309 7.84287 0.278929C7.51762 0.0915487 7.14037 0.0147418 6.76775 0.0600424C4.94893 0.299849 3.27959 1.19355 2.07154 2.57422C0.863487 3.95488 0.199338 5.7281 0.203141 7.56266C0.203141 18.7205 9.2797 27.797 20.4375 27.797C22.2721 27.8008 24.0453 27.1367 25.426 25.9286C26.8066 24.7206 27.7003 23.0513 27.9401 21.2324C27.9851 20.8615 27.9091 20.486 27.7234 20.1618C27.5377 19.8375 27.2523 19.5819 26.9096 19.433ZM26.7969 21.0879C26.5928 22.6282 25.8347 24.0415 24.6643 25.0635C23.4939 26.0855 21.9913 26.6462 20.4375 26.6408C9.91853 26.6408 1.35939 18.0816 1.35939 7.56266C1.35401 6.00887 1.91472 4.50631 2.9367 3.33591C3.95868 2.1655 5.37195 1.40738 6.91228 1.20328C6.93539 1.2019 6.95855 1.2019 6.98166 1.20328C7.09571 1.20426 7.20693 1.23894 7.30131 1.30298C7.3957 1.36702 7.46903 1.45755 7.51209 1.56317L10.5631 8.37637C10.5987 8.45964 10.6143 8.55011 10.6085 8.64049C10.6027 8.73086 10.5758 8.81862 10.5299 8.89668L7.46728 12.5389C7.45283 12.5577 7.43838 12.575 7.42537 12.5952C7.2622 12.8448 7.16611 13.1321 7.14636 13.4296C7.12662 13.7271 7.18388 14.0246 7.31263 14.2935C8.56861 16.8647 11.1586 19.4359 13.7587 20.6919C14.0295 20.8198 14.3287 20.8754 14.6273 20.8534C14.9259 20.8314 15.2137 20.7324 15.4628 20.5661L15.5162 20.5257L19.1049 17.4732C19.1817 17.4263 19.2685 17.3983 19.3582 17.3915C19.4479 17.3847 19.538 17.3993 19.6209 17.4341L26.4442 20.4924C26.5594 20.5404 26.6559 20.6242 26.7195 20.7316C26.7831 20.8389 26.8102 20.9639 26.7969 21.0879Z" fill="#26CB99"/>
</svg>
