<svg width="58" height="52" viewBox="0 0 58 52" fill="none" xmlns="http://www.w3.org/2000/svg">
<path d="M39.253 51.3H0.68731C0.343656 51.3 0 50.9563 0 50.6127V0.68731C0 0.343656 0.343656 0 0.68731 0H31.5017C31.6162 0 31.8453 0.114554 31.9599 0.229105L39.7112 7.78951C39.8257 7.90406 39.8257 8.13316 39.8257 8.24771V12.4861C39.8257 12.8298 39.4821 13.1734 39.1384 13.1734H36.4656V24.514H39.1384C39.4821 24.514 39.8257 24.8577 39.8257 25.2013V50.7272C39.8257 50.9563 39.5966 51.3 39.253 51.3ZM1.26007 50.0399H38.5657V25.755H35.8928C35.5492 25.755 35.2055 25.4113 35.2055 25.0677V12.467C35.2055 12.1234 35.5492 11.7797 35.8928 11.7797H38.5657V8.45772L31.2726 1.24097H1.26007V50.0399Z" fill="url(#paint0_linear_608_1480)"/>
<path d="M39.2476 8.91601H31.4962C31.1526 8.91601 30.8089 8.57236 30.8089 8.2287V0.668302C30.8089 0.439199 30.9235 0.210096 31.1526 0.0955443C31.3817 -0.0190073 31.7253 0.0955454 31.8399 0.210097L39.5912 7.7705C39.8203 7.9996 39.8203 8.22871 39.7058 8.45781C39.7058 8.68691 39.4767 8.91601 39.2476 8.91601ZM32.1835 7.56049H37.6247L32.1835 2.17657V7.56049Z" fill="url(#paint1_linear_608_1480)"/>
<path d="M12.3719 18.6525C8.43894 18.6525 5.30786 15.5596 5.30786 11.6649C5.30786 7.77014 8.43894 4.67725 12.3719 4.67725C16.3048 4.67725 19.4359 7.77014 19.4359 11.6649C19.4359 15.5596 16.3048 18.6525 12.3719 18.6525ZM12.3719 6.07096C9.12624 6.07096 6.58702 8.59109 6.58702 11.7985C6.58702 14.8914 9.12624 17.5261 12.3719 17.5261C15.6175 17.5261 18.1567 15.006 18.1567 11.7985C18.1758 8.572 15.6175 6.07096 12.3719 6.07096Z" fill="url(#paint2_linear_608_1480)"/>
<path d="M15.8437 27.2444C15.6146 27.2444 15.3855 27.1298 15.2709 27.0153L12.4835 23.006L9.46696 27.0153C9.35241 27.2444 9.00875 27.3589 8.77965 27.2444C8.55054 27.1298 8.32144 26.9007 8.32144 26.6716V17.0493C8.32144 16.8202 8.43599 16.5911 8.6651 16.4765C8.8942 16.362 9.1233 16.362 9.3524 16.4765C10.2879 17.0493 11.3189 17.3929 12.4835 17.3929C13.5335 17.3929 14.679 17.0493 15.6146 16.4765C15.8437 16.362 16.0728 16.362 16.3019 16.4765C16.531 16.5911 16.6455 16.8202 16.6455 17.0493V26.5571C16.6455 26.7862 16.4164 27.1298 16.1873 27.1298C15.9582 27.1298 15.8437 27.2444 15.8437 27.2444ZM9.6006 18.1948V24.6097L11.9107 21.4023C12.0253 21.2877 12.2544 21.1732 12.4835 21.1732C12.7126 21.1732 12.9417 21.2877 13.0562 21.4023L15.1373 24.4951V18.1948C14.2018 18.5385 13.2853 18.7676 12.3498 18.7676C11.4525 18.653 10.517 18.5385 9.6006 18.1948Z" fill="url(#paint3_linear_608_1480)"/>
<path d="M12.3649 14.6436C10.7421 14.6436 9.46297 13.3835 9.46297 11.7798C9.46297 10.1761 10.7421 8.91602 12.3649 8.91602C13.9878 8.91602 15.2669 10.1761 15.2669 11.7798C15.3815 13.269 13.9878 14.6436 12.3649 14.6436ZM12.3649 10.0615C11.4294 10.0615 10.7421 10.7488 10.7421 11.6653C10.7421 12.5817 11.4294 13.269 12.3649 13.269C13.3004 13.269 13.9878 12.5817 13.9878 11.6653C13.9878 10.8634 13.3004 10.0615 12.3649 10.0615Z" fill="url(#paint4_linear_608_1480)"/>
<path d="M52.6651 25.7551H35.8642C35.5205 25.7551 35.1769 25.4114 35.1769 25.0678V12.4671C35.1769 12.1234 35.5205 11.7798 35.8642 11.7798H52.6651C53.0087 11.7798 53.3524 12.1234 53.3524 12.4671V25.0678C53.2569 25.526 53.0278 25.7551 52.6651 25.7551ZM36.456 24.495H51.9778V13.1544H36.456V24.495Z" fill="url(#paint5_linear_608_1480)"/>
<path d="M56.968 25.7548H52.6914C52.3477 25.7548 52.0041 25.4112 52.0041 25.0675V12.4669C52.0041 12.1232 52.3477 11.7795 52.6914 11.7795H56.968C57.3116 11.7795 57.6553 12.1232 57.6553 12.4669V25.0675C57.6553 25.5257 57.3116 25.7548 56.968 25.7548ZM53.2641 24.4948H56.2806V13.1542H53.2641V24.4948Z" fill="url(#paint6_linear_608_1480)"/>
<path d="M35.8883 25.7551H31.6117C31.2681 25.7551 30.9244 25.4114 30.9244 25.0678V12.4671C30.9244 12.1234 31.2681 11.7798 31.6117 11.7798H35.8883C36.232 11.7798 36.5756 12.1234 36.5756 12.4671V25.0678C36.4611 25.526 36.232 25.7551 35.8883 25.7551ZM32.1845 24.495H35.1819V13.1544H32.1654V24.495H32.1845Z" fill="url(#paint7_linear_608_1480)"/>
<path d="M44.2331 51.3C43.8894 51.3 43.5457 50.9564 43.5457 50.6127V18.7674C43.5457 18.4237 43.8894 18.0801 44.2331 18.0801C44.5767 18.0801 44.9204 18.4237 44.9204 18.7674V50.5936C44.9204 50.9564 44.5767 51.3 44.2331 51.3Z" fill="url(#paint8_linear_608_1480)"/>
<path d="M35.7756 36.5231H4.14026C3.79661 36.5231 3.45296 36.1794 3.45296 35.8357C3.45296 35.4921 3.79661 35.1484 4.14026 35.1484H35.7565C36.1001 35.1484 36.4438 35.4921 36.4438 35.8357C36.4629 36.1794 36.1192 36.5231 35.7756 36.5231Z" fill="url(#paint9_linear_608_1480)"/>
<path d="M35.7756 41.4483H4.14026C3.79661 41.4483 3.45296 41.1047 3.45296 40.761C3.45296 40.4174 3.79661 40.0737 4.14026 40.0737H35.7565C36.1001 40.0737 36.4438 40.4174 36.4438 40.761C36.4629 41.2192 36.1192 41.4483 35.7756 41.4483Z" fill="url(#paint10_linear_608_1480)"/>
<path d="M35.7756 46.4889H4.14026C3.79661 46.4889 3.45296 46.1452 3.45296 45.8016C3.45296 45.4579 3.79661 45.1143 4.14026 45.1143H35.7565C36.1001 45.1143 36.4438 45.4579 36.4438 45.8016C36.4629 46.1452 36.1192 46.4889 35.7756 46.4889Z" fill="url(#paint11_linear_608_1480)"/>
<defs>
<linearGradient id="paint0_linear_608_1480" x1="19.9129" y1="0" x2="19.9129" y2="51.3" gradientUnits="userSpaceOnUse">
<stop stop-color="#26CB99"/>
<stop offset="1" stop-color="#238A6B"/>
</linearGradient>
<linearGradient id="paint1_linear_608_1480" x1="35.295" y1="0.0480957" x2="35.295" y2="8.91601" gradientUnits="userSpaceOnUse">
<stop stop-color="#26CB99"/>
<stop offset="1" stop-color="#238A6B"/>
</linearGradient>
<linearGradient id="paint2_linear_608_1480" x1="12.3719" y1="4.67725" x2="12.3719" y2="18.6525" gradientUnits="userSpaceOnUse">
<stop stop-color="#26CB99"/>
<stop offset="1" stop-color="#238A6B"/>
</linearGradient>
<linearGradient id="paint3_linear_608_1480" x1="12.4835" y1="16.3906" x2="12.4835" y2="27.2893" gradientUnits="userSpaceOnUse">
<stop stop-color="#26CB99"/>
<stop offset="1" stop-color="#238A6B"/>
</linearGradient>
<linearGradient id="paint4_linear_608_1480" x1="12.3682" y1="8.91602" x2="12.3682" y2="14.6436" gradientUnits="userSpaceOnUse">
<stop stop-color="#26CB99"/>
<stop offset="1" stop-color="#238A6B"/>
</linearGradient>
<linearGradient id="paint5_linear_608_1480" x1="44.2646" y1="11.7798" x2="44.2646" y2="25.7551" gradientUnits="userSpaceOnUse">
<stop stop-color="#26CB99"/>
<stop offset="1" stop-color="#238A6B"/>
</linearGradient>
<linearGradient id="paint6_linear_608_1480" x1="54.8297" y1="11.7795" x2="54.8297" y2="25.7548" gradientUnits="userSpaceOnUse">
<stop stop-color="#26CB99"/>
<stop offset="1" stop-color="#238A6B"/>
</linearGradient>
<linearGradient id="paint7_linear_608_1480" x1="33.75" y1="11.7798" x2="33.75" y2="25.7551" gradientUnits="userSpaceOnUse">
<stop stop-color="#26CB99"/>
<stop offset="1" stop-color="#238A6B"/>
</linearGradient>
<linearGradient id="paint8_linear_608_1480" x1="44.2331" y1="18.0801" x2="44.2331" y2="51.3" gradientUnits="userSpaceOnUse">
<stop stop-color="#26CB99"/>
<stop offset="1" stop-color="#238A6B"/>
</linearGradient>
<linearGradient id="paint9_linear_608_1480" x1="19.9488" y1="35.1484" x2="19.9488" y2="36.5231" gradientUnits="userSpaceOnUse">
<stop stop-color="#26CB99"/>
<stop offset="1" stop-color="#238A6B"/>
</linearGradient>
<linearGradient id="paint10_linear_608_1480" x1="19.9488" y1="40.0737" x2="19.9488" y2="41.4483" gradientUnits="userSpaceOnUse">
<stop stop-color="#26CB99"/>
<stop offset="1" stop-color="#238A6B"/>
</linearGradient>
<linearGradient id="paint11_linear_608_1480" x1="19.9488" y1="45.1143" x2="19.9488" y2="46.4889" gradientUnits="userSpaceOnUse">
<stop stop-color="#26CB99"/>
<stop offset="1" stop-color="#238A6B"/>
</linearGradient>
</defs>
</svg>
