<svg width="136" height="94" viewBox="0 0 136 94" fill="none" xmlns="http://www.w3.org/2000/svg">
<path d="M123.444 92.9187H109.522C108.707 92.9187 107.893 92.1043 107.893 91.2899V23.2677C107.893 22.4533 108.707 21.6389 109.522 21.6389H123.444C124.258 21.6389 125.073 22.4533 125.073 23.2677V91.2899C124.801 92.3758 124.258 92.9187 123.444 92.9187ZM111.15 89.9326H121.815V24.8577H111.15V89.9326Z" fill="url(#paint0_linear_608_944)"/>
<path d="M109.512 92.9203H95.5896C94.7752 92.9203 93.9608 92.1059 93.9608 91.2915V42.6986C93.9608 41.8842 94.7752 41.0698 95.5896 41.0698H109.512C110.326 41.0698 111.141 41.8842 111.141 42.6986V91.5629C111.141 92.3773 110.326 92.9203 109.512 92.9203ZM97.2184 89.9341H107.883V44.056H97.2184V89.9341Z" fill="url(#paint1_linear_608_944)"/>
<path d="M95.5567 92.9201H81.6342C80.8198 92.9201 80.0054 92.1057 80.0054 91.2913V53.4796C80.0054 52.6652 80.8198 51.8508 81.6342 51.8508H95.5567C96.3711 51.8508 97.1855 52.6652 97.1855 53.4796V91.5628C97.2243 92.3772 96.3711 92.9201 95.5567 92.9201ZM83.263 89.9339H93.9278V54.837H83.263V89.9339Z" fill="url(#paint2_linear_608_944)"/>
<path d="M81.9061 92.9203H67.9837C67.1693 92.9203 66.3549 92.1059 66.3549 91.2915V42.6986C66.3549 41.8842 67.1693 41.0698 67.9837 41.0698H81.9061C82.7205 41.0698 83.5349 41.8842 83.5349 42.6986V91.5629C83.2635 92.3773 82.7205 92.9203 81.9061 92.9203ZM69.6125 89.9341H80.2773V44.056H69.6125V89.9341Z" fill="url(#paint3_linear_608_944)"/>
<path d="M67.9818 92.9194H54.0594C53.245 92.9194 52.4305 92.105 52.4305 91.2906V31.6063C52.4305 30.7919 53.245 29.9775 54.0594 29.9775H67.9818C68.7962 29.9775 69.6106 30.7919 69.6106 31.6063V91.5621C69.6106 92.3765 68.7962 92.9194 67.9818 92.9194ZM55.6882 89.9332H66.353V32.9637H55.6882V89.9332Z" fill="url(#paint4_linear_608_944)"/>
<path d="M54.0576 92.9197H40.1352C39.3208 92.9197 38.5063 92.1053 38.5063 91.2909V50.8034C38.5063 49.989 39.3208 49.1746 40.1352 49.1746H54.0576C54.872 49.1746 55.6864 49.989 55.6864 50.8034V91.5624C55.6864 92.3768 54.872 92.9197 54.0576 92.9197ZM41.764 89.9336H52.4288V52.1219H41.764V89.9336Z" fill="url(#paint5_linear_608_944)"/>
<path d="M40.4069 92.9191H26.4845C25.6701 92.9191 24.8557 92.1047 24.8557 91.2903V39.7113C24.8557 38.8969 25.6701 38.0825 26.4845 38.0825H40.4069C41.2213 38.0825 42.0357 38.8969 42.0357 39.7113V91.2903C41.7642 92.3762 41.2213 92.9191 40.4069 92.9191ZM28.1133 89.933H38.7393V41.3401H28.0745V89.933H28.1133Z" fill="url(#paint6_linear_608_944)"/>
<path d="M26.4828 92.9199H12.5603C11.7459 92.9199 10.9315 92.1055 10.9315 91.2911V66.7426C10.9315 65.9282 11.7459 65.1138 12.5603 65.1138H26.4828C27.2972 65.1138 28.1116 65.9282 28.1116 66.7426V91.3299C28.1116 92.377 27.2972 92.9199 26.4828 92.9199ZM14.1891 89.9337H24.854V68.6041H14.1891V89.9337Z" fill="url(#paint7_linear_608_944)"/>
<path d="M134.338 93.1915H1.62881C0.814404 93.1915 0 92.3771 0 91.5627C0 90.7482 0.814404 89.9338 1.62881 89.9338H134.377C135.191 89.9338 136.006 90.7482 136.006 91.5627C136.006 92.3771 135.191 93.1915 134.338 93.1915Z" fill="url(#paint8_linear_608_944)"/>
<path d="M4.33976 46.7309C3.79682 46.7309 3.52535 46.4594 3.25388 46.1879C2.71095 45.645 2.71094 44.5591 3.52535 44.0162L33.8522 19.4289C34.3952 18.886 35.2096 18.886 35.7525 19.4289L45.8744 26.7198L64.1791 8.64773C64.7221 8.10479 65.5365 8.10479 66.0794 8.37626L92.5669 26.7198L116.611 0.542456C117.154 -0.000480279 118.24 -0.000480279 118.783 0.542456C119.326 1.08539 119.326 2.17126 118.783 2.7142L93.9243 29.9774C93.3814 30.5203 92.5669 30.5203 92.024 30.2488L65.5365 11.9053L46.9603 29.9774C46.4173 30.5203 45.6029 30.5203 45.06 30.2488L34.9381 22.6865L5.42563 46.4594C4.88269 46.7309 4.61122 46.7309 4.33976 46.7309Z" fill="url(#paint9_linear_608_944)"/>
<path d="M117.707 3.25762H106.771C105.957 3.25762 105.142 2.44322 105.142 1.62881C105.142 0.81441 105.957 0 106.771 0H117.707C118.522 0 119.336 0.81441 119.336 1.62881C119.336 2.482 118.793 3.25762 117.707 3.25762Z" fill="url(#paint10_linear_608_944)"/>
<path d="M117.695 14.0774C116.88 14.0774 116.066 13.263 116.066 12.4486V1.66738C116.066 0.852978 116.88 0.0385742 117.695 0.0385742C118.509 0.0385742 119.324 0.852978 119.324 1.66738V12.4486C119.324 13.263 118.781 14.0774 117.695 14.0774Z" fill="url(#paint11_linear_608_944)"/>
<path d="M12.5212 74.8087C11.7068 74.8087 10.8924 73.9943 10.8924 73.1799V1.66738C10.8924 0.852978 11.7068 0.0385742 12.5212 0.0385742C13.3356 0.0385742 14.15 0.852978 14.15 1.66738V73.4901C14.1888 74.2658 13.3356 74.8087 12.5212 74.8087Z" fill="url(#paint12_linear_608_944)"/>
<defs>
<linearGradient id="paint0_linear_608_944" x1="116.483" y1="21.6389" x2="116.483" y2="92.9187" gradientUnits="userSpaceOnUse">
<stop stop-color="#26CB99"/>
<stop offset="1" stop-color="#238A6B"/>
</linearGradient>
<linearGradient id="paint1_linear_608_944" x1="102.551" y1="41.0698" x2="102.551" y2="92.9203" gradientUnits="userSpaceOnUse">
<stop stop-color="#26CB99"/>
<stop offset="1" stop-color="#238A6B"/>
</linearGradient>
<linearGradient id="paint2_linear_608_944" x1="88.5961" y1="51.8508" x2="88.5961" y2="92.9201" gradientUnits="userSpaceOnUse">
<stop stop-color="#26CB99"/>
<stop offset="1" stop-color="#238A6B"/>
</linearGradient>
<linearGradient id="paint3_linear_608_944" x1="74.9449" y1="41.0698" x2="74.9449" y2="92.9203" gradientUnits="userSpaceOnUse">
<stop stop-color="#26CB99"/>
<stop offset="1" stop-color="#238A6B"/>
</linearGradient>
<linearGradient id="paint4_linear_608_944" x1="61.0206" y1="29.9775" x2="61.0206" y2="92.9194" gradientUnits="userSpaceOnUse">
<stop stop-color="#26CB99"/>
<stop offset="1" stop-color="#238A6B"/>
</linearGradient>
<linearGradient id="paint5_linear_608_944" x1="47.0964" y1="49.1746" x2="47.0964" y2="92.9197" gradientUnits="userSpaceOnUse">
<stop stop-color="#26CB99"/>
<stop offset="1" stop-color="#238A6B"/>
</linearGradient>
<linearGradient id="paint6_linear_608_944" x1="33.4457" y1="38.0825" x2="33.4457" y2="92.9191" gradientUnits="userSpaceOnUse">
<stop stop-color="#26CB99"/>
<stop offset="1" stop-color="#238A6B"/>
</linearGradient>
<linearGradient id="paint7_linear_608_944" x1="19.5216" y1="65.1138" x2="19.5216" y2="92.9199" gradientUnits="userSpaceOnUse">
<stop stop-color="#26CB99"/>
<stop offset="1" stop-color="#238A6B"/>
</linearGradient>
<linearGradient id="paint8_linear_608_944" x1="68.0028" y1="89.9338" x2="68.0028" y2="93.1915" gradientUnits="userSpaceOnUse">
<stop stop-color="#26CB99"/>
<stop offset="1" stop-color="#238A6B"/>
</linearGradient>
<linearGradient id="paint9_linear_608_944" x1="61.0329" y1="0.135254" x2="61.0329" y2="46.7309" gradientUnits="userSpaceOnUse">
<stop stop-color="#26CB99"/>
<stop offset="1" stop-color="#238A6B"/>
</linearGradient>
<linearGradient id="paint10_linear_608_944" x1="112.239" y1="0" x2="112.239" y2="3.25762" gradientUnits="userSpaceOnUse">
<stop stop-color="#26CB99"/>
<stop offset="1" stop-color="#238A6B"/>
</linearGradient>
<linearGradient id="paint11_linear_608_944" x1="117.695" y1="0.0385742" x2="117.695" y2="14.0774" gradientUnits="userSpaceOnUse">
<stop stop-color="#26CB99"/>
<stop offset="1" stop-color="#238A6B"/>
</linearGradient>
<linearGradient id="paint12_linear_608_944" x1="12.5218" y1="0.0385742" x2="12.5218" y2="74.8087" gradientUnits="userSpaceOnUse">
<stop stop-color="#26CB99"/>
<stop offset="1" stop-color="#238A6B"/>
</linearGradient>
</defs>
</svg>
