<svg width="61" height="63" viewBox="0 0 61 63" fill="none" xmlns="http://www.w3.org/2000/svg">
<path d="M60.8463 41.8408C54.8345 29.6364 55.2366 30.4607 55.1361 30.3602C54.9351 30.0586 54.6134 29.8375 54.3118 29.8375L43.1127 27.7866C42.3888 27.6861 41.7656 28.0882 41.5645 28.812C41.3634 29.5359 41.8661 30.139 42.61 30.3602L46.973 31.1846L35.4522 33.3359C35.6533 32.6121 35.6533 31.9084 35.4522 31.1846C38.0459 30.3602 38.6692 27.1835 36.7994 25.4342C37.2216 23.0818 38.1465 20.8098 39.5941 19.0807C41.3634 17.0299 42.2883 14.3558 42.2883 11.6012C42.2883 5.2477 37.2015 0.120637 31.0892 0H30.9887C24.7558 0 19.669 5.22759 19.669 11.6012C19.669 14.3759 20.5938 17.0299 22.3632 19.0807C23.8108 20.8299 24.7558 23.0818 25.1579 25.4342C23.1875 27.1835 23.8108 30.4607 26.505 31.2851C26.304 32.0089 26.2034 32.8333 26.505 33.537L14.3609 31.2851L21.0965 30.0586C21.8203 29.9581 22.2425 29.2343 22.142 28.5105C22.0415 27.7866 21.3177 27.3845 20.5938 27.485C6.17776 29.8375 7.00211 29.7369 6.90158 29.7369C6.57988 29.8375 6.27829 30.0385 6.07723 30.3602L0.166031 41.7403C-0.256197 42.4641 0.166032 43.389 0.990382 43.59L5.655 44.716V57.4431C5.655 58.0664 6.07723 58.5691 6.70051 58.6696C32.1347 62.6707 30.3654 62.4697 30.7675 62.4697C32.2152 62.2686 52.8641 58.8707 54.1107 58.6696C54.734 58.5691 55.1562 58.0463 55.1562 57.4431V44.716L59.8208 43.59C60.8463 43.389 61.2484 42.5646 60.8463 41.8408ZM29.8024 31.1645H32.0945C32.6173 31.1645 33.0194 31.5666 33.0194 32.0893C33.0194 32.6121 32.5972 33.0142 32.0945 33.0142H29.8024C29.2797 33.0142 28.8776 32.6121 28.8776 32.0893C28.8776 31.5666 29.2797 31.1645 29.8024 31.1645ZM27.631 28.611C27.1082 28.611 26.7061 28.2089 26.7061 27.6861C26.7061 27.485 26.8066 27.284 26.9071 27.1633H35.211C35.3115 27.2639 35.412 27.4649 35.412 27.6861C35.412 28.2089 34.9898 28.611 34.4872 28.611C32.9189 28.611 29.903 28.611 27.631 28.611ZM24.9368 4.90589C26.6056 3.15666 28.777 2.23178 31.0691 2.23178H31.1696C35.9348 2.23178 39.8957 6.33342 39.8957 11.2594C39.8957 13.4108 39.1719 15.5621 37.7242 17.1103C36.0554 19.0606 34.9295 21.6141 34.4067 24.1876H32.3358V18.0352H33.3813C34.1051 18.0352 34.7284 17.4119 34.7284 16.7082C34.7284 15.9844 34.1051 15.3812 33.3813 15.3812H32.4564C32.4564 15.2806 32.4564 15.2806 32.4564 15.1801C32.557 14.1547 33.5019 13.4309 34.5274 13.4309C35.2512 13.4309 35.8745 12.8076 35.8745 12.1039C35.8745 11.3801 35.2512 10.7769 34.5274 10.7769C33.1803 10.7769 32.0342 11.2996 31.2099 12.2044C30.3855 11.3801 29.1389 10.7769 27.8923 10.7769C27.1685 10.7769 26.5452 11.4002 26.5452 12.1039C26.5452 12.8277 27.1685 13.4309 27.8923 13.4309C28.9379 13.4309 29.7622 14.1547 29.9633 15.1801C29.9633 15.2806 29.9633 15.2806 29.9633 15.3812H29.0384C28.3146 15.3812 27.6913 16.0045 27.6913 16.7082C27.6913 17.432 28.3146 18.0352 29.0384 18.0352H29.9633V24.1876H27.832C27.3093 21.5135 26.1632 19.0606 24.6151 17.1103C21.4986 13.6319 21.6192 8.40435 24.9368 4.90589ZM7.90688 32.411L28.4553 36.2111L22.0214 45.9626C21.0965 45.7615 6.13754 42.1625 3.14173 41.5593L7.90688 32.411ZM8.32911 45.3192C23.3685 48.9181 22.4436 48.5965 22.5441 48.697C23.0669 48.697 23.469 48.4959 23.7907 48.0737L29.4003 39.5487V59.5543L8.32911 56.2971V45.3192ZM52.7435 56.2971L31.994 59.6749V39.7699L37.2819 48.0737C37.5835 48.4758 38.0057 48.697 38.5285 48.697C38.629 48.697 49.2249 46.1234 52.7435 45.3192V56.2971ZM38.9306 45.9424L32.6977 36.191L53.2461 32.3909L57.7097 41.5191C56.061 41.9413 38.9306 45.9424 38.9306 45.9424Z" fill="url(#paint0_linear_608_1281)"/>
<path d="M51.3974 20.3072C51.8196 20.3072 52.2217 20.1061 52.5434 19.6839C55.2376 15.3812 55.3381 10.1536 52.5434 5.8308C52.1212 5.20751 51.3974 5.00645 50.7741 5.42868C50.1508 5.8308 49.9497 6.55462 50.3518 7.17791C52.6439 10.6563 52.5233 14.8786 50.3518 18.2564C49.8291 18.8596 50.3518 20.3072 51.3974 20.3072Z" fill="url(#paint1_linear_608_1281)"/>
<path d="M47.7589 17.6331C48.1811 17.6331 48.6838 17.432 48.9049 17.0098C50.3526 14.3357 50.5737 11.2594 48.9049 8.50491C48.6033 7.88162 47.7589 7.68056 47.1356 7.98215C46.5123 8.28374 46.3112 9.10808 46.6128 9.73137C47.7589 11.7822 47.6583 13.9336 46.6128 15.7833C46.1102 16.6077 46.7335 17.6331 47.7589 17.6331Z" fill="url(#paint2_linear_608_1281)"/>
<path d="M10.9249 20.3071C11.9704 20.3071 12.5937 19.1812 12.0709 18.3569C9.77885 14.8785 9.89949 10.6562 12.0709 7.27839C12.4932 6.6551 12.272 5.85085 11.6487 5.52915C11.0254 5.12703 10.2011 5.32809 9.87938 5.93128C7.18516 10.234 7.08463 15.4616 9.87938 19.7844C10.1005 19.9854 10.5027 20.3071 10.9249 20.3071Z" fill="url(#paint3_linear_608_1281)"/>
<path d="M15.1865 17.5325C15.8098 17.231 16.0108 16.4066 15.7092 15.7833C14.5632 13.7325 14.6637 11.5811 15.7092 9.73137C16.0108 9.10808 15.8098 8.30384 15.1865 7.98215C14.5632 7.68056 13.7388 7.88162 13.4171 8.50491C11.9695 11.179 11.7483 14.2552 13.4171 17.0098C13.7187 17.432 14.5632 17.8341 15.1865 17.5325Z" fill="url(#paint4_linear_608_1281)"/>
<defs>
<linearGradient id="paint0_linear_608_1281" x1="30.5" y1="0" x2="30.5" y2="62.4713" gradientUnits="userSpaceOnUse">
<stop stop-color="#26CB99"/>
<stop offset="1" stop-color="#238A6B"/>
</linearGradient>
<linearGradient id="paint1_linear_608_1281" x1="52.3727" y1="5.20563" x2="52.3727" y2="20.3072" gradientUnits="userSpaceOnUse">
<stop stop-color="#26CB99"/>
<stop offset="1" stop-color="#238A6B"/>
</linearGradient>
<linearGradient id="paint2_linear_608_1281" x1="48.2553" y1="7.84418" x2="48.2553" y2="17.6331" gradientUnits="userSpaceOnUse">
<stop stop-color="#26CB99"/>
<stop offset="1" stop-color="#238A6B"/>
</linearGradient>
<linearGradient id="paint3_linear_608_1281" x1="10.0545" y1="5.31995" x2="10.0545" y2="20.3071" gradientUnits="userSpaceOnUse">
<stop stop-color="#26CB99"/>
<stop offset="1" stop-color="#238A6B"/>
</linearGradient>
<linearGradient id="paint4_linear_608_1281" x1="14.0471" y1="7.84418" x2="14.0471" y2="17.6376" gradientUnits="userSpaceOnUse">
<stop stop-color="#26CB99"/>
<stop offset="1" stop-color="#238A6B"/>
</linearGradient>
</defs>
</svg>
