<svg width="81" height="59" viewBox="0 0 81 59" fill="none" xmlns="http://www.w3.org/2000/svg">
<path d="M20.8701 44.2944V40.8571L16.6699 36.6658H1V58.4565H20.8701V45.3534" stroke="white" stroke-width="1.10303" stroke-miterlimit="10"/>
<path d="M7.71222 42.0058H17.6383" stroke="white" stroke-width="1.10303" stroke-miterlimit="10"/>
<path d="M4.23154 42.0058H6.75344" stroke="white" stroke-width="1.10303" stroke-miterlimit="10"/>
<path d="M4.23154 47.5612H17.6398" stroke="white" stroke-width="1.10303" stroke-miterlimit="10"/>
<path d="M13.4563 53.1165H17.6386" stroke="white" stroke-width="1.10303" stroke-miterlimit="10"/>
<path d="M4.23154 53.1165H12.3986" stroke="white" stroke-width="1.10303" stroke-miterlimit="10"/>
<path d="M50.2853 44.2944V40.8571L46.0852 36.6658H30.4153V58.4565H50.2853V45.3534" stroke="white" stroke-width="1.10303" stroke-miterlimit="10"/>
<path d="M37.1275 42.0058H47.0536" stroke="white" stroke-width="1.10303" stroke-miterlimit="10"/>
<path d="M33.6468 42.0058H36.1687" stroke="white" stroke-width="1.10303" stroke-miterlimit="10"/>
<path d="M33.6468 47.5612H47.0551" stroke="white" stroke-width="1.10303" stroke-miterlimit="10"/>
<path d="M42.8716 53.1165H47.0538" stroke="white" stroke-width="1.10303" stroke-miterlimit="10"/>
<path d="M33.6468 53.1165H41.8138" stroke="white" stroke-width="1.10303" stroke-miterlimit="10"/>
<path d="M79.7044 44.2944V40.8571L75.5042 36.6658H59.8343V58.4565H79.7044V45.3534" stroke="white" stroke-width="1.10303" stroke-miterlimit="10"/>
<path d="M66.5466 42.0058H76.4726" stroke="white" stroke-width="1.10303" stroke-miterlimit="10"/>
<path d="M63.0659 42.0058H65.5878" stroke="white" stroke-width="1.10303" stroke-miterlimit="10"/>
<path d="M63.0659 47.5612H76.4741" stroke="white" stroke-width="1.10303" stroke-miterlimit="10"/>
<path d="M72.2907 53.1165H76.4729" stroke="white" stroke-width="1.10303" stroke-miterlimit="10"/>
<path d="M63.0659 53.1165H71.2329" stroke="white" stroke-width="1.10303" stroke-miterlimit="10"/>
<path d="M53.557 1H70.7167V22.324H9.97559V1H45.1835" stroke="white" stroke-width="1.10303" stroke-miterlimit="10"/>
<path d="M46.5286 1H51.9314" stroke="white" stroke-width="1.10303" stroke-miterlimit="10"/>
<path d="M25.4561 8.03617H45.2006" stroke="white" stroke-width="1.10303" stroke-miterlimit="10"/>
<path d="M19.1034 8.03617H24.5152" stroke="white" stroke-width="1.10303" stroke-miterlimit="10"/>
<path d="M14.238 8.03617H17.4869" stroke="white" stroke-width="1.10303" stroke-miterlimit="10"/>
<path d="M14.238 15.2878H45.2009" stroke="white" stroke-width="1.10303" stroke-miterlimit="10"/>
<path d="M49.8419 6.32203V17.002" stroke="white" stroke-width="1.10303" stroke-miterlimit="10"/>
<path d="M54.0949 6.42974V17.1007" stroke="white" stroke-width="1.10303" stroke-miterlimit="10"/>
<path d="M64.3924 8.53707C64.6397 7.36336 63.8886 6.21147 62.7149 5.96425C61.5412 5.71703 60.3893 6.46811 60.1421 7.64182C59.8948 8.81553 60.6459 9.96742 61.8196 10.2146C62.9933 10.4619 64.1452 9.71078 64.3924 8.53707Z" stroke="white" stroke-width="1.10303" stroke-miterlimit="10"/>
<path d="M40.3474 22.324V36.6657" stroke="white" stroke-width="1.10303" stroke-miterlimit="10"/>
<path d="M10.9288 36.1452V29.4949H69.7673V36.1452" stroke="white" stroke-width="1.10303" stroke-miterlimit="10"/>
</svg>
