<svg width="132" height="124" viewBox="0 0 132 124" fill="none" xmlns="http://www.w3.org/2000/svg">
<mask id="path-1-inside-1_608_923" fill="white">
<rect width="131.803" height="98.2941" rx="3.0678"/>
</mask>
<rect width="131.803" height="98.2941" rx="3.0678" stroke="url(#paint0_linear_608_923)" stroke-width="7.36271" mask="url(#path-1-inside-1_608_923)"/>
<mask id="path-2-inside-2_608_923" fill="white">
<rect x="11.6162" y="8.48853" width="108.57" height="81.316" rx="3.0678"/>
</mask>
<rect x="11.6162" y="8.48853" width="108.57" height="81.316" rx="3.0678" stroke="url(#paint1_linear_608_923)" stroke-width="7.36271" mask="url(#path-2-inside-2_608_923)"/>
<line x1="52.3377" y1="31.1746" x2="35.188" y2="44.2951" stroke="url(#paint2_linear_608_923)" stroke-width="3.68136" stroke-linecap="round"/>
<line x1="54.5605" y1="53.8816" x2="34.623" y2="45.5899" stroke="url(#paint3_linear_608_923)" stroke-width="3.68136" stroke-linecap="round"/>
<line x1="1.84068" y1="-1.84068" x2="23.4337" y2="-1.84068" transform="matrix(0.794222 0.607628 0.607628 -0.794222 79.3373 28.5942)" stroke="url(#paint4_linear_608_923)" stroke-width="3.68136" stroke-linecap="round"/>
<line x1="1.84068" y1="-1.84068" x2="23.4337" y2="-1.84068" transform="matrix(0.923332 -0.384003 -0.384003 -0.923332 75.0515 52.8889)" stroke="url(#paint5_linear_608_923)" stroke-width="3.68136" stroke-linecap="round"/>
<path d="M69.7073 28.5945L62.9906 52.9805" stroke="url(#paint6_linear_608_923)" stroke-width="3.68136" stroke-linecap="round"/>
<path d="M26.8006 61.657H101.415" stroke="url(#paint7_linear_608_923)" stroke-width="3.68136" stroke-linecap="round"/>
<path d="M26.8006 68.8057H101.415" stroke="url(#paint8_linear_608_923)" stroke-width="3.68136" stroke-linecap="round"/>
<path d="M26.8006 75.9548H101.415" stroke="url(#paint9_linear_608_923)" stroke-width="3.68136" stroke-linecap="round"/>
<line x1="65.8139" y1="97.7072" x2="56.1688" y2="112.917" stroke="url(#paint10_linear_608_923)" stroke-width="3.68136" stroke-linecap="round"/>
<line x1="1.84068" y1="-1.84068" x2="19.8506" y2="-1.84068" transform="matrix(0.535542 0.844509 0.844509 -0.535542 67.039 95.167)" stroke="url(#paint11_linear_608_923)" stroke-width="3.68136" stroke-linecap="round"/>
<rect x="48.7514" y="115.326" width="34.2959" height="6.14805" stroke="url(#paint12_linear_608_923)" stroke-width="3.68136"/>
<defs>
<linearGradient id="paint0_linear_608_923" x1="65.9017" y1="0" x2="65.9017" y2="98.2941" gradientUnits="userSpaceOnUse">
<stop stop-color="#26CB99"/>
<stop offset="1" stop-color="#238A6B"/>
</linearGradient>
<linearGradient id="paint1_linear_608_923" x1="65.9013" y1="8.48853" x2="65.9013" y2="89.8046" gradientUnits="userSpaceOnUse">
<stop stop-color="#26CB99"/>
<stop offset="1" stop-color="#238A6B"/>
</linearGradient>
<linearGradient id="paint2_linear_608_923" x1="42.6444" y1="36.2729" x2="42.0368" y2="35.4787" gradientUnits="userSpaceOnUse">
<stop stop-color="#26CB99"/>
<stop offset="1" stop-color="#238A6B"/>
</linearGradient>
<linearGradient id="paint3_linear_608_923" x1="45.2986" y1="48.0362" x2="45.6826" y2="47.1129" gradientUnits="userSpaceOnUse">
<stop stop-color="#26CB99"/>
<stop offset="1" stop-color="#238A6B"/>
</linearGradient>
<linearGradient id="paint4_linear_608_923" x1="12.6372" y1="0" x2="12.6372" y2="1" gradientUnits="userSpaceOnUse">
<stop stop-color="#26CB99"/>
<stop offset="1" stop-color="#238A6B"/>
</linearGradient>
<linearGradient id="paint5_linear_608_923" x1="12.6372" y1="0" x2="12.6372" y2="1" gradientUnits="userSpaceOnUse">
<stop stop-color="#26CB99"/>
<stop offset="1" stop-color="#238A6B"/>
</linearGradient>
<linearGradient id="paint6_linear_608_923" x1="66.349" y1="40.7875" x2="65.3849" y2="40.5219" gradientUnits="userSpaceOnUse">
<stop stop-color="#26CB99"/>
<stop offset="1" stop-color="#238A6B"/>
</linearGradient>
<linearGradient id="paint7_linear_608_923" x1="64.1077" y1="61.657" x2="64.1077" y2="62.657" gradientUnits="userSpaceOnUse">
<stop stop-color="#26CB99"/>
<stop offset="1" stop-color="#238A6B"/>
</linearGradient>
<linearGradient id="paint8_linear_608_923" x1="64.1077" y1="68.8057" x2="64.1077" y2="69.8057" gradientUnits="userSpaceOnUse">
<stop stop-color="#26CB99"/>
<stop offset="1" stop-color="#238A6B"/>
</linearGradient>
<linearGradient id="paint9_linear_608_923" x1="64.1077" y1="75.9548" x2="64.1077" y2="76.9548" gradientUnits="userSpaceOnUse">
<stop stop-color="#26CB99"/>
<stop offset="1" stop-color="#238A6B"/>
</linearGradient>
<linearGradient id="paint10_linear_608_923" x1="59.4369" y1="104.326" x2="58.5924" y2="103.791" gradientUnits="userSpaceOnUse">
<stop stop-color="#26CB99"/>
<stop offset="1" stop-color="#238A6B"/>
</linearGradient>
<linearGradient id="paint11_linear_608_923" x1="10.8456" y1="0" x2="10.8456" y2="1" gradientUnits="userSpaceOnUse">
<stop stop-color="#26CB99"/>
<stop offset="1" stop-color="#238A6B"/>
</linearGradient>
<linearGradient id="paint12_linear_608_923" x1="65.8994" y1="113.485" x2="65.8994" y2="123.315" gradientUnits="userSpaceOnUse">
<stop stop-color="#26CB99"/>
<stop offset="1" stop-color="#238A6B"/>
</linearGradient>
</defs>
</svg>
