<svg width="62" height="61" viewBox="0 0 62 61" fill="none" xmlns="http://www.w3.org/2000/svg">
<path d="M21.9733 28.0389C22.7026 28.0389 23.3167 27.4248 23.3167 26.7147C23.3167 26.0046 22.7026 25.3905 21.9733 25.3905C19.8047 25.3905 18.0582 23.6633 18.0582 21.5138C18.0582 19.3643 19.8047 17.6371 21.9733 17.6371C22.7026 17.6371 23.3167 17.023 23.3167 16.3129C23.3167 15.6028 22.7026 14.9886 21.9733 14.9886C18.4613 14.9886 15.4674 17.8482 15.4674 21.4178C15.4674 24.9875 18.3461 28.0389 21.9733 28.0389Z" fill="url(#paint0_linear_608_1290)"/>
<path d="M21.5512 20.8037C21.0331 20.2855 20.2078 20.2855 19.6897 20.8037C19.1715 21.3219 19.1715 22.1279 19.6897 22.6461L21.0331 23.9703C21.5512 24.4885 22.3765 24.4885 22.8947 23.9703L26.8097 20.0936C27.3279 19.5755 27.3279 18.7694 26.8097 18.2512C26.2916 17.7331 25.4663 17.7331 24.9482 18.2512L21.9543 21.2067L21.5512 20.8037Z" fill="url(#paint1_linear_608_1290)"/>
<path d="M29.7076 21.7249H34.8702C35.5995 21.7249 36.2136 21.1108 36.2136 20.4007C36.2136 19.6906 35.5995 19.0765 34.8702 19.0765H29.7076C28.9784 19.0765 28.3642 19.6906 28.3642 20.4007C28.3642 21.1108 28.9784 21.7249 29.7076 21.7249Z" fill="url(#paint2_linear_608_1290)"/>
<path d="M38.6703 21.7249H40.0137C40.743 21.7249 41.3571 21.1108 41.3571 20.4007C41.3571 19.6906 40.743 19.0765 40.0137 19.0765H38.6703C37.941 19.0765 37.3269 19.6906 37.3269 20.4007C37.442 21.1108 37.941 21.7249 38.6703 21.7249Z" fill="url(#paint3_linear_608_1290)"/>
<path d="M29.7076 25.4865H45.1761C45.9054 25.4865 46.5195 24.8723 46.5195 24.1622C46.5195 23.4521 45.9054 22.838 45.1761 22.838H29.7076C28.9784 22.838 28.3642 23.4521 28.3642 24.1622C28.3642 24.8723 28.9784 25.4865 29.7076 25.4865Z" fill="url(#paint4_linear_608_1290)"/>
<path d="M21.9733 42.1064C22.7026 42.1064 23.3167 41.4923 23.3167 40.7822C23.3167 40.0721 22.7026 39.4579 21.9733 39.4579C19.8047 39.4579 18.0582 37.7307 18.0582 35.5812C18.0582 33.4318 19.8047 31.7045 21.9733 31.7045C22.7026 31.7045 23.3167 31.0904 23.3167 30.3803C23.3167 29.6702 22.7026 29.0561 21.9733 29.0561C18.4613 29.0561 15.4674 31.9156 15.4674 35.4853C15.4674 39.0549 18.3461 42.1064 21.9733 42.1064Z" fill="url(#paint5_linear_608_1290)"/>
<path d="M24.8507 32.2227L21.8568 35.1782L21.4346 34.7752C20.9164 34.257 20.0912 34.257 19.573 34.7752C19.0548 35.2934 19.0548 36.0994 19.573 36.6176L20.9164 37.9418C21.4346 38.46 22.2598 38.46 22.778 37.9418L26.6931 34.0651C27.2113 33.547 27.2113 32.7409 26.6931 32.2227C26.1941 31.7046 25.3689 31.7046 24.8507 32.2227Z" fill="url(#paint6_linear_608_1290)"/>
<path d="M29.7076 35.6964H34.8702C35.5995 35.6964 36.2136 35.0823 36.2136 34.3722C36.2136 33.6621 35.5995 33.048 34.8702 33.048H29.7076C28.9784 33.048 28.3642 33.6621 28.3642 34.3722C28.3642 35.0823 28.9784 35.6964 29.7076 35.6964Z" fill="url(#paint7_linear_608_1290)"/>
<path d="M38.6703 33.1439C37.941 33.1439 37.3269 33.7581 37.3269 34.4681C37.3269 35.1782 37.941 35.7924 38.6703 35.7924H40.0137C40.743 35.7924 41.3571 35.1782 41.3571 34.4681C41.3571 33.7581 40.743 33.1439 40.0137 33.1439H38.6703Z" fill="url(#paint8_linear_608_1290)"/>
<path d="M29.7076 39.554H40.0135C40.7428 39.554 41.3569 38.9398 41.3569 38.2297C41.3569 37.5196 40.7428 36.9055 40.0135 36.9055H29.7076C28.9784 36.9055 28.3642 37.5196 28.3642 38.2297C28.3642 38.959 28.9784 39.554 29.7076 39.554Z" fill="url(#paint9_linear_608_1290)"/>
<path d="M3.91509 49.7639C1.74644 49.7639 0 51.4912 0 53.6406C0 55.7901 1.74644 57.5173 3.91509 57.5173C6.08374 57.5173 7.83018 55.7901 7.83018 53.6406C7.83018 51.4912 5.98778 49.7639 3.91509 49.7639ZM3.91509 54.8497C3.18581 54.8497 2.57168 54.2356 2.57168 53.5255C2.57168 52.8154 3.18581 52.2012 3.91509 52.2012C4.64437 52.2012 5.2585 52.8154 5.2585 53.5255C5.16254 54.2356 4.52922 54.8497 3.91509 54.8497Z" fill="url(#paint10_linear_608_1290)"/>
<path d="M5.77553 14.0675C4.02909 14.0675 2.57053 15.4877 2.57053 17.2341C2.57053 18.9614 4.0099 20.4007 5.77553 20.4007C7.52196 20.4007 8.98053 18.9806 8.98053 17.2341C8.96134 15.5069 7.52196 14.0675 5.77553 14.0675ZM5.77553 17.8483C5.46846 17.8483 5.16139 17.5412 5.16139 17.2341C5.16139 16.9271 5.46846 16.62 5.77553 16.62C6.08259 16.62 6.38966 16.9271 6.38966 17.2341C6.50481 17.5412 6.17855 17.8483 5.77553 17.8483Z" fill="url(#paint11_linear_608_1290)"/>
<path d="M57.3437 11.5342C59.8194 11.5342 61.8729 9.49985 61.8729 7.04333C61.8729 4.5868 59.8194 2.55249 57.3437 2.55249C54.868 2.55249 52.8145 4.5868 52.8145 7.04333C52.7953 9.48066 54.868 11.5342 57.3437 11.5342ZM57.3437 5.10498C58.3801 5.10498 59.3013 5.91102 59.3013 7.04333C59.3013 8.15644 58.476 8.98168 57.3437 8.98168C56.2114 8.98168 55.3862 8.17563 55.3862 7.04333C55.367 5.93021 56.3074 5.10498 57.3437 5.10498Z" fill="url(#paint12_linear_608_1290)"/>
<path d="M51.5682 37.0206V12.4554C51.5682 9.80691 49.3995 7.65745 46.7127 7.65745H43.6229C43.0087 5.41203 41.0512 3.78074 38.6714 3.78074H35.8886C35.3705 1.63128 33.317 0 30.9372 0C28.5574 0 26.5039 1.63128 25.9858 3.8767H23.203C20.8232 3.8767 18.7697 5.50799 18.2515 7.75341H15.1617C12.4749 7.75341 10.3062 9.90287 10.3062 12.5513V55.2718C10.3062 57.9203 12.4749 60.0698 15.1617 60.0698H46.7127C47.2309 60.0698 47.6339 59.9738 48.0561 59.8586C55.2722 61.1829 61.7781 55.6749 61.7781 48.5356C61.8741 42.5094 57.3449 37.6348 51.5682 37.0206ZM23.203 6.42919H27.1181C27.8474 6.42919 28.4615 5.81506 28.4615 5.10497C28.4615 3.68479 29.5938 2.55248 31.0332 2.55248C32.4725 2.55248 33.6048 3.6656 33.6048 5.10497C33.6048 5.81506 34.219 6.42919 34.9482 6.42919H38.8633C40.3027 6.42919 41.435 7.5423 41.435 8.98167C41.435 10.4019 40.3027 11.5342 38.8633 11.5342H23.3949C21.9555 11.5342 20.8232 10.421 20.8232 8.98167C20.8232 7.56149 21.7636 6.42919 23.203 6.42919ZM15.1617 57.4021C13.9334 57.4021 12.8971 56.385 12.8971 55.1567V12.4554C12.8971 11.2271 13.9334 10.2099 15.1617 10.2099H18.2515C18.7697 12.3594 20.7273 13.8755 22.9919 13.9907C23.203 13.9907 38.7674 13.9907 39.0744 13.9907C39.2856 13.9907 39.3815 13.9907 39.5926 13.8947C41.6461 13.5877 43.2006 12.0523 43.7188 10.1332H46.8087C48.0369 10.1332 49.0733 11.1503 49.0733 12.3786V36.9439C43.2006 37.558 38.7674 42.5478 38.7674 48.3629C38.7674 51.7214 40.3219 55.0991 43.1047 57.2294H15.1617V57.4021ZM50.3207 57.4021C45.2733 57.4021 41.2431 53.3335 41.2431 48.4396C41.2431 43.5458 45.2733 39.4771 50.3207 39.4771C55.3681 39.4771 59.3984 43.4498 59.3984 48.4396C59.3984 53.4295 55.2722 57.4021 50.3207 57.4021Z" fill="url(#paint13_linear_608_1290)"/>
<path d="M32.2779 44.6589H18.0377C17.3084 44.6589 16.6943 45.273 16.6943 45.9831C16.6943 46.6932 17.3084 47.3073 18.0377 47.3073H32.2779C33.0072 47.3073 33.6213 46.6932 33.6213 45.9831C33.5062 45.1771 32.892 44.6589 32.2779 44.6589Z" fill="url(#paint14_linear_608_1290)"/>
<path d="M32.2779 48.4396H18.0377C17.3084 48.4396 16.6943 49.0538 16.6943 49.7639C16.6943 50.474 17.3084 51.0881 18.0377 51.0881H32.2779C33.0072 51.0881 33.6213 50.474 33.6213 49.7639C33.5062 49.0346 32.892 48.4396 32.2779 48.4396Z" fill="url(#paint15_linear_608_1290)"/>
<path d="M55.0597 46.3861L50.4153 47.9215L45.771 44.87C45.1568 44.467 44.3316 44.6589 44.0245 45.1771C43.6023 45.7912 43.8134 46.5973 44.3316 46.9043L49.4941 50.2629C49.8012 50.474 50.2234 50.5699 50.6264 50.3588L55.789 48.6316C56.5183 48.4205 56.8253 47.7104 56.6142 47.0003C56.4031 46.5013 55.693 46.1942 55.0597 46.3861Z" fill="url(#paint16_linear_608_1290)"/>
<defs>
<linearGradient id="paint0_linear_608_1290" x1="19.3921" y1="14.9886" x2="19.3921" y2="28.0389" gradientUnits="userSpaceOnUse">
<stop stop-color="#26CB99"/>
<stop offset="1" stop-color="#238A6B"/>
</linearGradient>
<linearGradient id="paint1_linear_608_1290" x1="23.2497" y1="17.8626" x2="23.2497" y2="24.359" gradientUnits="userSpaceOnUse">
<stop stop-color="#26CB99"/>
<stop offset="1" stop-color="#238A6B"/>
</linearGradient>
<linearGradient id="paint2_linear_608_1290" x1="32.2889" y1="19.0765" x2="32.2889" y2="21.7249" gradientUnits="userSpaceOnUse">
<stop stop-color="#26CB99"/>
<stop offset="1" stop-color="#238A6B"/>
</linearGradient>
<linearGradient id="paint3_linear_608_1290" x1="39.342" y1="19.0765" x2="39.342" y2="21.7249" gradientUnits="userSpaceOnUse">
<stop stop-color="#26CB99"/>
<stop offset="1" stop-color="#238A6B"/>
</linearGradient>
<linearGradient id="paint4_linear_608_1290" x1="37.4419" y1="22.838" x2="37.4419" y2="25.4865" gradientUnits="userSpaceOnUse">
<stop stop-color="#26CB99"/>
<stop offset="1" stop-color="#238A6B"/>
</linearGradient>
<linearGradient id="paint5_linear_608_1290" x1="19.3921" y1="29.0561" x2="19.3921" y2="42.1064" gradientUnits="userSpaceOnUse">
<stop stop-color="#26CB99"/>
<stop offset="1" stop-color="#238A6B"/>
</linearGradient>
<linearGradient id="paint6_linear_608_1290" x1="23.1331" y1="31.8341" x2="23.1331" y2="38.3305" gradientUnits="userSpaceOnUse">
<stop stop-color="#26CB99"/>
<stop offset="1" stop-color="#238A6B"/>
</linearGradient>
<linearGradient id="paint7_linear_608_1290" x1="32.2889" y1="33.048" x2="32.2889" y2="35.6964" gradientUnits="userSpaceOnUse">
<stop stop-color="#26CB99"/>
<stop offset="1" stop-color="#238A6B"/>
</linearGradient>
<linearGradient id="paint8_linear_608_1290" x1="39.342" y1="33.1439" x2="39.342" y2="35.7924" gradientUnits="userSpaceOnUse">
<stop stop-color="#26CB99"/>
<stop offset="1" stop-color="#238A6B"/>
</linearGradient>
<linearGradient id="paint9_linear_608_1290" x1="34.8606" y1="36.9055" x2="34.8606" y2="39.554" gradientUnits="userSpaceOnUse">
<stop stop-color="#26CB99"/>
<stop offset="1" stop-color="#238A6B"/>
</linearGradient>
<linearGradient id="paint10_linear_608_1290" x1="3.91509" y1="49.7639" x2="3.91509" y2="57.5173" gradientUnits="userSpaceOnUse">
<stop stop-color="#26CB99"/>
<stop offset="1" stop-color="#238A6B"/>
</linearGradient>
<linearGradient id="paint11_linear_608_1290" x1="5.77553" y1="14.0675" x2="5.77553" y2="20.4007" gradientUnits="userSpaceOnUse">
<stop stop-color="#26CB99"/>
<stop offset="1" stop-color="#238A6B"/>
</linearGradient>
<linearGradient id="paint12_linear_608_1290" x1="57.3436" y1="2.55249" x2="57.3436" y2="11.5342" gradientUnits="userSpaceOnUse">
<stop stop-color="#26CB99"/>
<stop offset="1" stop-color="#238A6B"/>
</linearGradient>
<linearGradient id="paint13_linear_608_1290" x1="36.0429" y1="0" x2="36.0429" y2="60.0698" gradientUnits="userSpaceOnUse">
<stop stop-color="#26CB99"/>
<stop offset="1" stop-color="#238A6B"/>
</linearGradient>
<linearGradient id="paint14_linear_608_1290" x1="25.1578" y1="44.6589" x2="25.1578" y2="47.3073" gradientUnits="userSpaceOnUse">
<stop stop-color="#26CB99"/>
<stop offset="1" stop-color="#238A6B"/>
</linearGradient>
<linearGradient id="paint15_linear_608_1290" x1="25.1578" y1="48.4396" x2="25.1578" y2="51.0881" gradientUnits="userSpaceOnUse">
<stop stop-color="#26CB99"/>
<stop offset="1" stop-color="#238A6B"/>
</linearGradient>
<linearGradient id="paint16_linear_608_1290" x1="50.2395" y1="44.6534" x2="50.2395" y2="50.4771" gradientUnits="userSpaceOnUse">
<stop stop-color="#26CB99"/>
<stop offset="1" stop-color="#238A6B"/>
</linearGradient>
</defs>
</svg>
