<svg width="30" height="26" viewBox="0 0 30 26" fill="none" xmlns="http://www.w3.org/2000/svg">
<path d="M29.125 4.11833C28.0916 4.58894 26.9789 4.9072 25.8118 5.0494C27.0037 4.31809 27.9183 3.15848 28.3491 1.77712C27.2332 2.45426 26 2.94688 24.6826 3.21096C23.6327 2.06152 22.1321 1.34375 20.4714 1.34375C17.287 1.34375 14.7034 3.99306 14.7034 7.26026C14.7034 7.7241 14.753 8.1744 14.852 8.60777C10.0564 8.36061 5.80553 6.00755 2.95787 2.42379C2.46097 3.30068 2.17703 4.31809 2.17703 5.40151C2.17703 7.45324 3.19559 9.26459 4.74406 10.326C3.79979 10.2972 2.90835 10.0281 2.12916 9.58793V9.66072C2.12916 12.5284 4.1184 14.9204 6.75971 15.4621C6.27602 15.6009 5.76591 15.6703 5.2393 15.6703C4.86787 15.6703 4.50469 15.6348 4.15306 15.5654C4.88768 17.9151 7.01724 19.6265 9.54299 19.6722C7.56861 21.2601 5.07917 22.2064 2.37678 22.2064C1.91125 22.2064 1.45067 22.1793 1 22.1252C3.55382 23.8011 6.58802 24.7812 9.84509 24.7812C20.4599 24.7812 26.2625 15.7668 26.2625 7.94756C26.2625 7.69024 26.2575 7.43293 26.2476 7.18069C27.3751 6.34612 28.3541 5.30502 29.125 4.11833" stroke="#26CB99" stroke-width="1.17188"/>
</svg>
