<svg width="79" height="79" viewBox="0 0 79 79" fill="none" xmlns="http://www.w3.org/2000/svg">
<path d="M53.0114 46.7403C52.8419 46.7403 52.6723 46.6838 52.5593 46.5708L43.8012 39.6208C43.4622 39.3665 43.4057 38.8862 43.6882 38.5754C43.9425 38.2364 44.4227 38.1799 44.7335 38.4624L53.4916 45.4124C53.8307 45.6667 53.8872 46.147 53.6047 46.4578C53.4634 46.6555 53.2374 46.7403 53.0114 46.7403ZM56.4299 46.26C56.2886 46.26 56.1191 46.2317 55.9778 46.1187C55.6388 45.8927 55.554 45.4124 55.7801 45.0734L59.0856 40.3553C59.3116 40.0163 59.7919 39.9315 60.1309 40.1576C60.4699 40.3836 60.5547 40.8639 60.3286 41.2029L57.0231 45.921C56.9101 46.147 56.6841 46.26 56.4299 46.26Z" fill="white" stroke="white" stroke-width="0.28252" stroke-miterlimit="10"/>
<path d="M36.7098 37.6997C34.1389 37.6997 32.0482 35.6091 32.0482 33.0381C32.0482 30.4672 34.1389 28.3766 36.7098 28.3766C39.2807 28.3766 41.3714 30.4672 41.3714 33.0381C41.3714 35.6091 39.2807 37.6997 36.7098 37.6997ZM36.7098 29.8739C34.9582 29.8739 33.5456 31.2865 33.5456 33.0381C33.5456 34.7898 34.9582 36.2024 36.7098 36.2024C38.4614 36.2024 39.874 34.7898 39.874 33.0381C39.8458 31.2865 38.4332 29.8739 36.7098 29.8739Z" fill="white" stroke="white" stroke-width="0.28252" stroke-miterlimit="10"/>
<path d="M16.6858 45.5537C16.4315 45.5537 16.1772 45.4124 16.036 45.1864C15.8382 44.8191 15.9512 44.3671 16.2902 44.1411L21.1213 41.3158C21.4886 41.1181 21.9406 41.2311 22.1667 41.5701C22.3927 41.9091 22.2514 42.3894 21.9124 42.6154L17.0813 45.4406C16.94 45.5537 16.827 45.5537 16.6858 45.5537ZM26.235 39.9598C25.9807 39.9598 25.7264 39.8185 25.5852 39.5925C25.3874 39.2252 25.5004 38.7732 25.8394 38.5471L32.9589 34.3658C33.3262 34.1681 33.7782 34.2811 34.0043 34.6201C34.2303 34.9591 34.089 35.4394 33.75 35.6654L26.6305 39.8467C26.4892 39.9315 26.348 39.9598 26.235 39.9598ZM61.6348 38.8579C61.4935 38.8579 61.324 38.8297 61.1827 38.7167C60.8437 38.4906 60.7589 38.0104 60.985 37.6713L64.799 32.2187C65.025 31.8797 65.5053 31.7949 65.8443 32.0209C66.1833 32.2469 66.2681 32.7272 66.0421 33.0663L62.2281 38.5189C62.115 38.7449 61.8608 38.8579 61.6348 38.8579ZM41.8018 37.8691C41.6323 37.8691 41.4628 37.8126 41.3498 37.6996L39.3156 36.061C38.9766 35.8067 38.9201 35.3264 39.2026 35.0156C39.4569 34.6766 39.9372 34.6201 40.248 34.9026L42.2821 36.5413C42.6211 36.7955 42.6776 37.2758 42.3951 37.5866C42.2821 37.7561 42.0278 37.8691 41.8018 37.8691Z" fill="white" stroke="white" stroke-width="0.28252" stroke-miterlimit="10"/>
<path d="M13.3248 51.4863C10.7538 51.4863 8.66319 49.3956 8.66319 46.8247C8.66319 44.2538 10.7538 42.1631 13.3248 42.1631C15.8957 42.1631 17.9864 44.2538 17.9864 46.8247C17.9864 49.3956 15.8957 51.4863 13.3248 51.4863ZM13.3248 43.6605C11.5732 43.6605 10.1606 45.0731 10.1606 46.8247C10.1606 48.5763 11.5732 49.9889 13.3248 49.9889C15.0764 49.9889 16.489 48.5763 16.489 46.8247C16.489 45.0731 15.0482 43.6605 13.3248 43.6605Z" fill="white" stroke="white" stroke-width="0.28252" stroke-miterlimit="10"/>
<path d="M54.9968 50.8366C53.1886 50.8366 51.7195 49.3675 51.7195 47.5593C51.7195 45.7512 53.1886 44.2821 54.9968 44.2821C56.8049 44.2821 58.274 45.7512 58.274 47.5593C58.274 49.3675 56.8049 50.8366 54.9968 50.8366ZM54.9968 45.7795C54.0079 45.7795 53.2451 46.5705 53.2451 47.5311C53.2451 48.5199 54.0362 49.2827 54.9968 49.2827C55.9856 49.2827 56.7484 48.4916 56.7484 47.5311C56.7766 46.5705 55.9856 45.7795 54.9968 45.7795Z" fill="white" stroke="white" stroke-width="0.28252" stroke-miterlimit="10"/>
<path d="M66.8833 33.8574C65.0751 33.8574 63.606 32.3883 63.606 30.5802C63.606 28.7721 65.0751 27.3029 66.8833 27.3029C68.6914 27.3029 70.1605 28.7721 70.1605 30.5802C70.1605 32.3883 68.6631 33.8574 66.8833 33.8574ZM66.8833 28.8003C65.8944 28.8003 65.1316 29.5914 65.1316 30.5519C65.1316 31.5408 65.9227 32.3036 66.8833 32.3036C67.8721 32.3036 68.6349 31.5125 68.6349 30.5519C68.6349 29.5914 67.8438 28.8003 66.8833 28.8003Z" fill="white" stroke="white" stroke-width="0.28252" stroke-miterlimit="10"/>
<path d="M39.3945 77.7891C60.5992 77.7891 77.7891 60.5992 77.7891 39.3945C77.7891 18.1898 60.5992 1 39.3945 1C18.1898 1 1 18.1898 1 39.3945C1 60.5992 18.1898 77.7891 39.3945 77.7891Z" stroke="white" stroke-width="0.847561" stroke-miterlimit="10"/>
<path d="M39.394 74.3424C58.6951 74.3424 74.3417 58.6958 74.3417 39.3946C74.3417 20.0935 58.6951 4.44685 39.394 4.44685C20.0928 4.44685 4.44618 20.0935 4.44618 39.3946C4.44618 58.6958 20.0928 74.3424 39.394 74.3424Z" stroke="white" stroke-width="0.847561" stroke-miterlimit="10"/>
</svg>
