<svg width="30" height="27" viewBox="0 0 30 27" fill="none" xmlns="http://www.w3.org/2000/svg">
<path d="M29.1108 7.03351C28.9885 9.80698 27.0735 13.5983 23.3792 18.4091C19.5559 23.4396 16.3164 25.9531 13.6688 25.9531C12.0317 25.9531 10.6442 24.4239 9.51147 21.3553C8.75244 18.5399 7.99836 15.7245 7.24098 12.9175C6.3976 9.84723 5.49469 8.31293 4.52895 8.31293C4.31893 8.31293 3.58635 8.76064 2.32294 9.65775L1 7.92894C2.38578 6.69647 3.75172 5.45898 5.09946 4.22483C6.94497 2.60502 8.3324 1.75487 9.25846 1.666C11.4413 1.45137 12.7874 2.96554 13.2951 6.20349C13.8358 9.69967 14.2162 11.8728 14.4262 12.7247C15.0579 15.6222 15.7491 17.0676 16.5065 17.0676C17.0936 17.0676 17.9766 16.132 19.1541 14.259C20.3315 12.3826 20.9582 10.9573 21.0442 9.97466C21.2129 8.35485 20.5828 7.54998 19.1541 7.54998C18.481 7.54998 17.7865 7.69418 17.0737 7.99601C18.4628 3.43673 21.1087 1.21996 25.018 1.34908C27.9136 1.43124 29.2812 3.32941 29.1108 7.03351" stroke="#26CB99" stroke-width="1.17188"/>
</svg>
