<svg width="30" height="22" viewBox="0 0 30 22" fill="none" xmlns="http://www.w3.org/2000/svg">
<path d="M28.8438 4.98486L29.4254 4.9135L29.424 4.90308L28.8438 4.98486ZM27.7258 2.17365L27.3004 2.57678L27.3074 2.58391L27.7258 2.17365ZM28.8438 16.3023L29.424 16.3841L29.4253 16.3737L28.8438 16.3023ZM27.7258 19.1135L27.3074 18.7032L27.3005 18.7104L27.7258 19.1135ZM25.0897 20.2947L25.0323 19.7115H25.0323L25.0897 20.2947ZM24.908 20.3137L24.9506 20.8981L24.9645 20.8971L24.9783 20.8954L24.908 20.3137ZM15.0625 20.6094L15.0571 21.1953L15.0634 21.1953L15.0625 20.6094ZM5.5 20.3244L5.39167 20.9002L5.41745 20.905L5.44356 20.9076L5.5 20.3244ZM5.11782 20.271L5.1881 19.6893H5.18809L5.11782 20.271ZM2.39834 19.1135L2.82351 18.7102L2.81668 18.7032L2.39834 19.1135ZM1.28125 16.3023L0.699587 16.3737L0.701012 16.3838L1.28125 16.3023ZM1.28125 4.98486L0.700923 4.90333L0.699673 4.91351L1.28125 4.98486ZM2.39834 2.17365L2.81674 2.58397L2.82345 2.5769L2.39834 2.17365ZM5.03767 0.992887L4.98101 0.409695L5.03767 0.992887ZM5.21699 0.974286L5.17441 0.389898L5.16104 0.390872L5.14773 0.392457L5.21699 0.974286ZM24.908 0.974286L24.9774 0.39247L24.964 0.390876L24.9506 0.389898L24.908 0.974286ZM25.0874 0.992915L25.1441 0.409728L25.1441 0.409728L25.0874 0.992915ZM12.1612 14.3222L11.5752 14.3223L11.5753 15.2889L12.4323 14.8417L12.1612 14.3222ZM12.1603 6.36391L12.4328 5.84522L11.5742 5.39408L11.5743 6.36398L12.1603 6.36391ZM19.7593 10.3568L20.0304 10.8762L21.0223 10.3585L20.0318 9.83809L19.7593 10.3568ZM28.8438 4.98486C29.424 4.90308 29.4239 4.90297 29.4239 4.90285C29.4239 4.9028 29.4239 4.90268 29.4239 4.90258C29.4239 4.90238 29.4238 4.90216 29.4238 4.9019C29.4237 4.90138 29.4236 4.90075 29.4235 4.9C29.4233 4.8985 29.423 4.89652 29.4227 4.89409C29.4219 4.88922 29.4209 4.88252 29.4196 4.87406C29.4171 4.85715 29.4133 4.83323 29.4083 4.80305C29.3982 4.74274 29.3831 4.65719 29.3623 4.55246C29.3209 4.34366 29.2563 4.05536 29.1632 3.73707C28.985 3.12766 28.6734 2.30312 28.1441 1.76339L27.3074 2.58391C27.621 2.90366 27.8684 3.48472 28.0385 4.06604C28.1195 4.34313 28.1764 4.59648 28.2129 4.78048C28.231 4.87216 28.244 4.94581 28.2523 4.99559C28.2565 5.02045 28.2594 5.03931 28.2613 5.05141C28.2622 5.05745 28.2628 5.06181 28.2632 5.06438C28.2634 5.06567 28.2635 5.06651 28.2636 5.06689C28.2636 5.06708 28.2636 5.06715 28.2636 5.06711C28.2636 5.06709 28.2636 5.06704 28.2636 5.06696C28.2636 5.06693 28.2636 5.06684 28.2636 5.06682C28.2636 5.06674 28.2635 5.06664 28.8438 4.98486ZM29.7109 9.56901C29.7109 8.40146 29.6394 7.23821 29.5684 6.3698C29.5328 5.93483 29.4972 5.57209 29.4704 5.31759C29.457 5.19031 29.4459 5.09001 29.438 5.02119C29.434 4.98677 29.4309 4.96022 29.4288 4.94209C29.4277 4.93302 29.4268 4.92606 29.4263 4.92127C29.426 4.91888 29.4258 4.91703 29.4256 4.91574C29.4255 4.91509 29.4255 4.91458 29.4254 4.91421C29.4254 4.91402 29.4254 4.91387 29.4254 4.91375C29.4254 4.9137 29.4253 4.91364 29.4253 4.91361C29.4253 4.91356 29.4253 4.91351 28.8438 4.98486C28.2622 5.05621 28.2622 5.05618 28.2622 5.05617C28.2622 5.05617 28.2622 5.05617 28.2622 5.05618C28.2622 5.0562 28.2622 5.05626 28.2622 5.05635C28.2622 5.05654 28.2623 5.05686 28.2623 5.05733C28.2624 5.05825 28.2626 5.05973 28.2628 5.06174C28.2633 5.06577 28.2641 5.07196 28.2651 5.08025C28.267 5.09682 28.27 5.12176 28.2737 5.1545C28.2812 5.22 28.292 5.31671 28.305 5.44015C28.3309 5.68711 28.3657 6.04074 28.4004 6.46534C28.47 7.3161 28.5391 8.44493 28.5391 9.56901H29.7109ZM29.7109 11.7181V9.56901H28.5391V11.7181H29.7109ZM28.8438 16.3023C29.4253 16.3737 29.4253 16.3736 29.4253 16.3736C29.4253 16.3735 29.4253 16.3735 29.4254 16.3734C29.4254 16.3733 29.4254 16.3731 29.4254 16.373C29.4255 16.3726 29.4255 16.3721 29.4256 16.3714C29.4258 16.3701 29.426 16.3683 29.4263 16.3659C29.4268 16.3611 29.4277 16.3541 29.4288 16.3451C29.4309 16.327 29.434 16.3004 29.438 16.266C29.4458 16.1972 29.457 16.0969 29.4704 15.9697C29.4972 15.7153 29.5328 15.3526 29.5684 14.9177C29.6394 14.0494 29.7109 12.8861 29.7109 11.7181H28.5391C28.5391 12.8427 28.47 13.9715 28.4004 14.8221C28.3657 15.2467 28.3309 15.6002 28.305 15.8471C28.292 15.9705 28.2812 16.0672 28.2737 16.1327C28.27 16.1654 28.267 16.1903 28.2651 16.2069C28.2641 16.2152 28.2633 16.2213 28.2628 16.2254C28.2626 16.2274 28.2624 16.2289 28.2623 16.2298C28.2623 16.2302 28.2622 16.2306 28.2622 16.2308C28.2622 16.2309 28.2622 16.2309 28.2622 16.2309C28.2622 16.2309 28.2622 16.2309 28.2622 16.2309C28.2622 16.2309 28.2622 16.2309 28.8438 16.3023ZM28.1441 19.5237C28.6734 18.984 28.985 18.1595 29.1632 17.5501C29.2563 17.2318 29.3209 16.9435 29.3623 16.7347C29.3831 16.63 29.3982 16.5444 29.4083 16.4841C29.4133 16.4539 29.4171 16.43 29.4196 16.4131C29.4209 16.4046 29.4219 16.3979 29.4227 16.393C29.423 16.3906 29.4233 16.3886 29.4235 16.3871C29.4236 16.3864 29.4237 16.3858 29.4238 16.3852C29.4238 16.385 29.4239 16.3848 29.4239 16.3846C29.4239 16.3845 29.4239 16.3843 29.4239 16.3843C29.4239 16.3842 29.424 16.3841 28.8438 16.3023C28.2635 16.2205 28.2636 16.2204 28.2636 16.2203C28.2636 16.2203 28.2636 16.2202 28.2636 16.2202C28.2636 16.2201 28.2636 16.22 28.2636 16.22C28.2636 16.22 28.2636 16.2201 28.2636 16.2203C28.2635 16.2206 28.2634 16.2215 28.2632 16.2228C28.2628 16.2253 28.2622 16.2297 28.2613 16.2357C28.2594 16.2478 28.2565 16.2667 28.2523 16.2916C28.244 16.3413 28.231 16.415 28.2129 16.5067C28.1764 16.6907 28.1195 16.944 28.0385 17.2211C27.8684 17.8024 27.621 18.3835 27.3074 18.7032L28.1441 19.5237ZM25.147 20.8778C25.7749 20.816 27.0324 20.6968 28.1511 19.5166L27.3005 18.7104C26.4918 19.5637 25.6123 19.6545 25.0323 19.7115L25.147 20.8778ZM24.9783 20.8954C25.025 20.8898 25.0788 20.8845 25.147 20.8778L25.0323 19.7115C24.9677 19.7179 24.8999 19.7245 24.8377 19.732L24.9783 20.8954ZM15.0625 20.6094C15.0634 21.1953 15.0634 21.1953 15.0635 21.1953C15.0635 21.1953 15.0636 21.1953 15.0637 21.1953C15.0639 21.1953 15.0642 21.1953 15.0646 21.1953C15.0653 21.1953 15.0664 21.1953 15.0679 21.1953C15.0708 21.1953 15.0752 21.1953 15.0809 21.1953C15.0923 21.1953 15.1093 21.1952 15.1316 21.1951C15.1762 21.195 15.2419 21.1948 15.3269 21.1944C15.4969 21.1936 15.7439 21.1921 16.0525 21.1894C16.6696 21.1841 17.5334 21.174 18.5207 21.1549C20.4924 21.1168 22.9665 21.0427 24.9506 20.8981L24.8654 19.7293C22.9137 19.8716 20.4651 19.9453 18.498 19.9833C17.5159 20.0023 16.6563 20.0123 16.0423 20.0176C15.7354 20.0202 15.4899 20.0217 15.3213 20.0225C15.237 20.0229 15.172 20.0231 15.128 20.0233C15.1061 20.0233 15.0894 20.0234 15.0783 20.0234C15.0727 20.0234 15.0685 20.0234 15.0657 20.0234C15.0643 20.0234 15.0633 20.0234 15.0626 20.0234C15.0623 20.0234 15.062 20.0234 15.0618 20.0234C15.0618 20.0234 15.0617 20.0234 15.0617 20.0234C15.0616 20.0234 15.0616 20.0234 15.0625 20.6094ZM5.44356 20.9076C6.59534 21.019 9.01062 21.0904 11.1128 21.1343C12.1693 21.1564 13.1552 21.1716 13.8769 21.1813C14.2377 21.1862 14.5327 21.1897 14.7374 21.192C14.8398 21.1931 14.9196 21.1939 14.9739 21.1945C15.0011 21.1947 15.0218 21.195 15.0358 21.1951C15.0428 21.1952 15.0481 21.1952 15.0517 21.1952C15.0535 21.1953 15.0548 21.1953 15.0557 21.1953C15.0562 21.1953 15.0565 21.1953 15.0567 21.1953C15.0569 21.1953 15.057 21.1953 15.057 21.1953C15.0571 21.1953 15.0571 21.1953 15.0625 20.6094C15.0679 20.0235 15.0679 20.0235 15.0678 20.0235C15.0678 20.0235 15.0677 20.0235 15.0676 20.0235C15.0674 20.0235 15.0671 20.0235 15.0666 20.0235C15.0658 20.0234 15.0644 20.0234 15.0627 20.0234C15.0592 20.0234 15.054 20.0233 15.0471 20.0233C15.0333 20.0231 15.0127 20.0229 14.9857 20.0227C14.9318 20.0221 14.8524 20.0213 14.7504 20.0202C14.5465 20.0179 14.2525 20.0144 13.8927 20.0096C13.1729 19.9999 12.1901 19.9847 11.1372 19.9627C9.02063 19.9185 6.65466 19.8474 5.55644 19.7411L5.44356 20.9076ZM5.04755 20.8527C5.20022 20.8712 5.30808 20.8845 5.39167 20.9002L5.60833 19.7485C5.47871 19.7241 5.32811 19.7062 5.1881 19.6893L5.04755 20.8527ZM1.97323 19.5167C3.01989 20.6201 4.33812 20.767 5.04755 20.8527L5.18809 19.6893C4.47211 19.6028 3.55308 19.4794 2.82345 18.7102L1.97323 19.5167ZM1.28125 16.3023C0.701012 16.3838 0.701027 16.3839 0.701044 16.384C0.701051 16.3841 0.701068 16.3842 0.701082 16.3843C0.70111 16.3845 0.701142 16.3847 0.701179 16.385C0.701252 16.3855 0.701342 16.3861 0.70145 16.3869C0.701665 16.3884 0.701951 16.3904 0.702307 16.3928C0.70302 16.3977 0.704017 16.4044 0.705308 16.4128C0.707889 16.4297 0.711649 16.4537 0.716663 16.4838C0.726683 16.5442 0.741751 16.6297 0.762482 16.7344C0.803816 16.9433 0.868307 17.2316 0.961285 17.5499C1.13931 18.1593 1.45063 18.9839 1.98 19.5237L2.81668 18.7032C2.50318 18.3836 2.25596 17.8026 2.08615 17.2213C2.00522 16.9442 1.94847 16.6909 1.91205 16.5069C1.8939 16.4152 1.88096 16.3416 1.8727 16.2918C1.86856 16.2669 1.86561 16.2481 1.86376 16.236C1.86284 16.2299 1.86219 16.2256 1.86182 16.223C1.86163 16.2217 1.86151 16.2209 1.86145 16.2205C1.86143 16.2203 1.86142 16.2202 1.86142 16.2203C1.86142 16.2203 1.86143 16.2204 1.86144 16.2204C1.86145 16.2205 1.86146 16.2206 1.86146 16.2206C1.86148 16.2207 1.86149 16.2208 1.28125 16.3023ZM0.414062 11.7181C0.414062 12.8861 0.485603 14.0494 0.556638 14.9177C0.592219 15.3526 0.627818 15.7153 0.654582 15.9697C0.667968 16.0969 0.679153 16.1972 0.687034 16.266C0.690975 16.3004 0.694091 16.327 0.696243 16.3451C0.69732 16.3541 0.698155 16.3611 0.698733 16.3659C0.699022 16.3683 0.699247 16.3701 0.699405 16.3714C0.699483 16.3721 0.699546 16.3726 0.699591 16.373C0.699614 16.3731 0.699632 16.3733 0.699646 16.3734C0.699653 16.3735 0.699661 16.3735 0.699664 16.3736C0.699671 16.3736 0.699676 16.3737 1.28125 16.3023C1.86282 16.2309 1.86283 16.2309 1.86283 16.2309C1.86283 16.2309 1.86283 16.2309 1.86283 16.2309C1.86283 16.2309 1.86282 16.2309 1.86281 16.2308C1.86278 16.2306 1.86274 16.2302 1.86269 16.2298C1.86258 16.2289 1.8624 16.2274 1.86215 16.2254C1.86167 16.2213 1.86092 16.2152 1.85994 16.2069C1.85797 16.1903 1.85505 16.1654 1.8513 16.1327C1.8438 16.0672 1.83301 15.9705 1.82003 15.8471C1.79406 15.6002 1.75934 15.2467 1.72461 14.8221C1.65502 13.9715 1.58594 12.8427 1.58594 11.7181H0.414062ZM0.414062 9.56901V11.7181H1.58594V9.56901H0.414062ZM1.28125 4.98486C0.699673 4.91351 0.699667 4.91356 0.699661 4.91361C0.699658 4.91364 0.69965 4.9137 0.699643 4.91375C0.699629 4.91387 0.69961 4.91402 0.699588 4.91421C0.699542 4.91458 0.69948 4.91509 0.699401 4.91574C0.699243 4.91703 0.699019 4.91888 0.69873 4.92127C0.698152 4.92606 0.697317 4.93302 0.69624 4.94209C0.694088 4.96022 0.690972 4.98677 0.687031 5.02119C0.67915 5.09001 0.667966 5.19031 0.654581 5.31759C0.627817 5.57209 0.592218 5.93483 0.556638 6.3698C0.485604 7.23821 0.414062 8.40146 0.414062 9.56901H1.58594C1.58594 8.44493 1.65502 7.3161 1.72461 6.46534C1.75934 6.04074 1.79406 5.68711 1.82003 5.44015C1.83301 5.31671 1.8438 5.22 1.8513 5.1545C1.85505 5.12176 1.85798 5.09682 1.85994 5.08025C1.86093 5.07196 1.86167 5.06577 1.86216 5.06174C1.8624 5.05973 1.86258 5.05825 1.86269 5.05733C1.86275 5.05686 1.86279 5.05654 1.86281 5.05635C1.86282 5.05626 1.86283 5.0562 1.86283 5.05618C1.86283 5.05617 1.86283 5.05617 1.86283 5.05617C1.86283 5.05618 1.86283 5.05621 1.28125 4.98486ZM1.98 1.76339C1.45063 2.30319 1.13931 3.12783 0.961285 3.73727C0.868307 4.05557 0.803816 4.34388 0.762482 4.5527C0.741751 4.65742 0.726683 4.74298 0.716663 4.8033C0.711649 4.83348 0.707889 4.8574 0.705308 4.87431C0.704017 4.88277 0.70302 4.88948 0.702307 4.89435C0.701951 4.89678 0.701665 4.89875 0.70145 4.90026C0.701342 4.90101 0.701252 4.90164 0.701179 4.90215C0.701142 4.90241 0.70111 4.90264 0.701082 4.90284C0.701068 4.90294 0.701051 4.90306 0.701044 4.90311C0.701027 4.90323 0.701012 4.90334 1.28125 4.98486C1.86149 5.06638 1.86148 5.06648 1.86146 5.06657C1.86146 5.06659 1.86145 5.06667 1.86144 5.06671C1.86143 5.06679 1.86142 5.06684 1.86142 5.06686C1.86142 5.0669 1.86143 5.06682 1.86145 5.06663C1.86151 5.06625 1.86163 5.06541 1.86182 5.06413C1.86219 5.06156 1.86284 5.0572 1.86376 5.05115C1.86561 5.03906 1.86856 5.02021 1.8727 4.99534C1.88096 4.94557 1.8939 4.87193 1.91205 4.78025C1.94847 4.59625 2.00522 4.34292 2.08615 4.06585C2.25596 3.48455 2.50318 2.90359 2.81668 2.58391L1.98 1.76339ZM4.98101 0.409695C4.35282 0.47073 3.09415 0.588704 1.97323 1.77041L2.82345 2.5769C3.63412 1.72227 4.5145 1.63241 5.09434 1.57608L4.98101 0.409695ZM5.14773 0.392457C5.10145 0.397966 5.04818 0.403169 4.98101 0.409695L5.09434 1.57608C5.15814 1.56988 5.2249 1.56342 5.28626 1.55611L5.14773 0.392457ZM15.0563 0.6875C15.0563 0.101562 15.0563 0.101562 15.0563 0.101562C15.0562 0.101562 15.0561 0.101562 15.056 0.101562C15.0558 0.101563 15.0555 0.101563 15.0552 0.101563C15.0544 0.101563 15.0533 0.101563 15.0518 0.101564C15.0489 0.101565 15.0446 0.101567 15.0388 0.101571C15.0274 0.10158 15.0104 0.101598 14.9882 0.101633C14.9436 0.101704 14.878 0.101845 14.793 0.102126C14.6232 0.102688 14.3765 0.103812 14.0681 0.106059C13.4515 0.110552 12.5884 0.119537 11.6019 0.137508C9.63164 0.1734 7.15879 0.245302 5.17441 0.389898L5.25957 1.55867C7.21094 1.41648 9.65777 1.34499 11.6232 1.30919C12.6046 1.29131 13.4634 1.28237 14.0767 1.2779C14.3833 1.27567 14.6285 1.27455 14.7969 1.27399C14.8811 1.27372 14.9461 1.27358 14.99 1.27351C15.012 1.27347 15.0286 1.27345 15.0397 1.27345C15.0453 1.27344 15.0495 1.27344 15.0523 1.27344C15.0537 1.27344 15.0547 1.27344 15.0554 1.27344C15.0557 1.27344 15.056 1.27344 15.0561 1.27344C15.0562 1.27344 15.0563 1.27344 15.0563 1.27344C15.0563 1.27344 15.0563 1.27344 15.0563 0.6875ZM15.0687 0.101562H15.0563V1.27344H15.0687V0.101562ZM24.9506 0.389898C22.9662 0.245302 20.4934 0.1734 18.5231 0.137508C17.5366 0.119537 16.6735 0.110552 16.0569 0.106059C15.7485 0.103812 15.5018 0.102688 15.332 0.102126C15.247 0.101845 15.1814 0.101704 15.1368 0.101633C15.1146 0.101598 15.0976 0.10158 15.0862 0.101571C15.0804 0.101567 15.0761 0.101565 15.0732 0.101564C15.0717 0.101563 15.0706 0.101563 15.0698 0.101563C15.0695 0.101563 15.0692 0.101563 15.069 0.101562C15.0689 0.101562 15.0688 0.101562 15.0687 0.101562C15.0687 0.101562 15.0687 0.101562 15.0687 0.6875C15.0687 1.27344 15.0687 1.27344 15.0687 1.27344C15.0687 1.27344 15.0688 1.27344 15.0689 1.27344C15.069 1.27344 15.0693 1.27344 15.0696 1.27344C15.0703 1.27344 15.0713 1.27344 15.0727 1.27344C15.0755 1.27344 15.0797 1.27344 15.0853 1.27345C15.0964 1.27345 15.113 1.27347 15.135 1.27351C15.1789 1.27358 15.2439 1.27372 15.3281 1.27399C15.4965 1.27455 15.7417 1.27567 16.0483 1.2779C16.6616 1.28237 17.5204 1.29131 18.5018 1.30919C20.4672 1.34499 22.9141 1.41648 24.8654 1.55867L24.9506 0.389898ZM25.1441 0.409728C25.0769 0.40319 25.0236 0.397983 24.9774 0.39247L24.8386 1.5561C24.9 1.56342 24.9669 1.56989 25.0307 1.5761L25.1441 0.409728ZM28.1511 1.77058C27.031 0.58885 25.7717 0.470758 25.1441 0.409728L25.0307 1.5761C25.6102 1.63245 26.4908 1.72245 27.3005 2.57672L28.1511 1.77058ZM12.7471 14.3222L12.7462 6.36385L11.5743 6.36398L11.5752 14.3223L12.7471 14.3222ZM19.4882 9.83733L11.8901 13.8028L12.4323 14.8417L20.0304 10.8762L19.4882 9.83733ZM11.8877 6.88261L19.4868 10.8755L20.0318 9.83809L12.4328 5.84522L11.8877 6.88261Z" fill="#26CB99"/>
</svg>
